<svg width="286" height="286" viewBox="0 0 286 286" fill="none" xmlns="http://www.w3.org/2000/svg">
<g clip-path="url(#clip0_25_1072)">
<path d="M208.15 1.63565C273.918 -3.00984 308.459 73.8881 263.967 123.422C248.477 140.671 226.266 162.977 208.975 178.384C203.779 183.016 195.477 187.235 191.423 191.07C187.863 194.423 181.953 204.938 177.376 210.009C161.995 226.997 141.117 247.902 124.115 263.267C52.9722 327.576 -41.6464 233.072 22.7063 161.864C37.9492 145 58.4563 124.617 75.2798 109.293C80.7502 104.317 91.0175 98.545 94.8798 94.5317C97.67 91.6317 100.35 85.5019 103.47 81.8185C122.094 59.7867 147.769 40.119 167.04 18.2522C178.613 8.74133 193.086 2.69394 208.15 1.63565ZM173.926 197.282C147.976 202.711 121.421 193.942 104.157 173.917C100.914 170.165 92.6257 159.184 93.6565 154.483C94.4949 150.662 99.4018 149.37 102.439 151.597C103.924 152.683 108.46 161.658 110.411 164.242C131.317 191.963 172.015 195.647 198.309 173.216C220.314 154.428 240.835 129.084 261.782 108.867C303.318 49.1626 227.173 -20.1487 171.507 28.9039L112.775 87.6872C112.556 89.3777 113.229 88.5256 114.191 88.4156C141.282 85.5019 163.562 90.7658 181.843 112.055C185.155 115.917 199.889 134.953 187.313 135.475C182.104 135.695 178.709 125.882 175.589 121.745C154.766 94.1331 113.188 90.3398 87.3202 113.086C69.026 133.414 46.0448 151.707 28.2042 172.172C-20.1497 227.643 50.3057 303.702 109.257 261.467L173.912 197.282H173.926Z" fill="black"/>
<path d="M91.9659 0.192768C95.7869 -0.645619 98.5909 1.37476 99.0444 5.1956C99.7867 11.5454 99.9378 33.4671 98.9895 39.5282C98.0411 45.5894 88.8321 45.878 88.0212 38.896C87.279 32.505 87.1278 10.6657 88.0762 4.56338C88.3923 2.52926 89.918 0.646322 91.9659 0.192768Z" fill="black"/>
<path d="M3.98591 88.1539L39.5297 88.0439C45.6186 88.9923 45.6049 98.0084 39.5297 98.9567C34.1143 99.7951 9.9786 99.8089 4.56318 98.9567C-1.23708 98.0496 -1.60819 89.7894 3.98591 88.1539Z" fill="black"/>
<path d="M245.893 187.112L281.437 187.002C287.526 187.95 287.512 196.966 281.437 197.915C276.021 198.753 251.886 198.767 246.47 197.915C240.67 197.008 240.299 188.747 245.893 187.112Z" fill="black"/>
<path d="M190.928 242.087C194.749 241.249 197.553 243.269 198.006 247.09C198.749 253.44 198.9 275.362 197.951 281.423C197.003 287.484 187.794 287.773 186.983 280.791C186.241 274.4 186.09 252.56 187.038 246.458C187.354 244.424 188.88 242.541 190.928 242.087Z" fill="black"/>
<path d="M31.4891 27.6803C33.8257 27.1718 34.9803 27.6391 36.8358 28.9173C39.6809 30.8964 57.1917 48.4063 59.1709 51.2513C63.2394 57.1201 57.4529 63.1262 51.6388 59.4703C48.1065 54.5637 28.6439 38.8954 27.6818 34.6073C27.0358 31.6798 28.369 28.3675 31.4891 27.6803Z" fill="black"/>
<path d="M229.413 225.595C231.75 225.087 232.904 225.554 234.76 226.832C237.605 228.811 255.116 246.321 257.095 249.166C261.163 255.035 255.377 261.041 249.563 257.385C246.03 252.479 226.568 236.81 225.606 232.522C224.96 229.595 226.293 226.283 229.413 225.595Z" fill="black"/>
<path d="M120.857 115.01C128.925 114.103 136.87 114.928 144.361 117.924C149.35 119.917 165.761 128.974 158.477 135.447C153.432 139.942 148.938 133.001 144.856 130.486C132.829 123.091 116.981 124.246 106.219 133.358L49.8796 189.723C43.9556 194.107 37.5643 187.853 41.9764 181.82C61.3564 164.763 78.7985 141.907 98.316 125.455C104.199 120.494 113.133 115.876 120.844 114.996L120.857 115.01Z" fill="black"/>
<path d="M238.333 95.0263C244.092 93.6931 247.391 98.9296 244.34 103.781C225.028 121.016 207.545 143.543 188.041 160.187C173.28 172.776 153.13 175.154 136.128 165.341C131.702 162.784 123.263 157.562 126.603 151.665C130.547 144.67 137.694 153.425 141.625 155.72C153.68 162.798 168.593 161.864 179.451 152.971C198.927 136.987 216.452 113.333 235.777 96.5931C236.505 95.8784 237.33 95.2737 238.347 95.04L238.333 95.0263Z" fill="black"/>
<path d="M209.524 29.1237C219.778 28.299 230.897 31.4464 239.158 37.5625C242.457 40.009 248.93 45.5203 244.01 49.8497C238.718 54.509 233.413 46.4275 228.698 43.8985C197.511 27.172 178.324 65.0232 158.105 81.4473C152.566 85.0757 146.038 79.7293 149.886 73.9156C168.386 58.4123 183.327 31.2128 209.538 29.1099L209.524 29.1237Z" fill="black"/>
<path d="M129.75 203.605C136.004 202.189 138.67 207.192 135.757 212.36C112.116 234.048 90.4402 271.074 52.7522 252.121C47.9553 249.716 37.2894 243.229 41.3579 236.852C45.4263 230.474 53.302 240.068 57.7553 242.308C90.0829 258.65 106.48 220.51 127.18 205.158C128.032 204.526 128.596 203.852 129.75 203.591V203.605Z" fill="black"/>
</g>
<defs>
<clipPath id="clip0_25_1072">
<rect width="286" height="286" fill="white"/>
</clipPath>
</defs>
</svg>
