<svg width="231" height="235" viewBox="0 0 231 235" fill="none" xmlns="http://www.w3.org/2000/svg">
<path d="M179.641 151.405L146.324 196.486C149.593 200.64 152.727 205.763 153.301 211.075C153.801 215.678 153.99 227.523 153.389 231.964C153.22 233.225 152.693 233.96 151.484 234.512L80.2845 234.642C79.008 234.642 77.7787 233.628 77.5424 232.413C78.1637 223.772 76.0228 213.864 79.035 205.653C82.4457 196.343 91.7999 189.113 101.796 187.41C84.1544 172.834 97.5137 144.982 120.605 150.086C125.961 151.269 129.115 154.324 133.168 157.536L163.472 136.79C113.791 100.844 43.0772 130.711 35.1278 189.659C34.7226 192.676 35.067 197.071 34.5469 199.808C34.3173 201.011 33.0948 202.032 31.8048 202.038C22.8424 201.245 12.2118 203.007 3.4587 202.025C-0.951607 201.524 0.0614619 196.694 0.189786 193.502C1.09481 170.058 11.4958 145.691 26.9961 127.812C68.384 80.0527 144.122 74.4616 192.116 116.33L198.363 112.462C198.822 111.825 193.899 107.333 193.075 106.617C173.502 89.5903 146.149 80.5209 119.862 80.2478C117.269 79.3441 117.323 75.3133 119.862 74.6111C123.577 73.5839 136.828 75.4693 141.252 76.1975C158.083 78.9735 174.637 85.9235 188.415 95.5195C191.859 97.9185 204.881 107.918 206.184 111.025C207.488 114.133 200.99 120.036 199.471 122.929C215.369 139.657 226.385 160.689 229.634 183.34C230.086 186.5 231.538 198.644 230.161 200.738C229.404 201.895 228.202 201.915 226.952 202.025C218.112 202.805 208.075 201.375 199.099 202.025C198.248 202.038 197.586 201.674 197.06 201.069C195.911 199.756 196.141 192.462 195.837 190.082C193.973 175.753 188.225 163.075 179.655 151.392L179.641 151.405ZM112.413 93.9787C85.7416 95.0384 59.712 104.966 40.6322 122.936L56.0379 137.661C71.7002 124.379 91.2731 115.862 112.413 115.394V93.9787ZM118.478 93.9787V115.394C136.747 115.901 154.368 122.195 168.788 132.824L186.733 119.536C167.606 103.867 143.683 94.9279 118.478 93.9787ZM129.095 187.41C133.485 187.943 137.956 190.141 141.482 192.722L189.752 125.608L136.403 162.601C135.849 163.452 137.105 167.542 137.2 169.141C137.632 176.611 134.444 182.306 129.088 187.41H129.095ZM28.4887 196.174C29.0087 175.799 37.7956 156.997 51.6208 141.907L36.3232 127.077C20.6947 142.492 10.3409 163.387 7.32868 184.803C6.79512 188.587 6.90995 192.41 6.24807 196.167H28.4955L28.4887 196.174ZM224.649 196.174C223.987 192.416 224.096 188.587 223.569 184.809C221.482 169.98 215.525 154.754 207.17 142.199C205.914 140.307 196.952 128.215 195.601 128.534C194.074 131.043 183.011 144.637 183.174 146.276C183.234 146.893 186.929 151.152 187.651 152.231C196.546 165.474 201.922 180.265 202.409 196.18H224.656L224.649 196.174ZM114.851 155.41C93.8868 156.171 95.3254 187.852 117.728 185.473C136.545 183.47 134.856 154.689 114.851 155.41ZM147.297 228.778V211.992C147.297 211.589 146.27 208.071 146.02 207.382C139.483 189.269 105.997 187.52 92.2321 197.923C88.4297 200.796 83.5939 207.213 83.5939 211.992V228.778H94.211V215.879C94.211 213.162 100.276 212.993 100.276 215.392V228.772H130.608V215.392C130.608 212.993 136.673 213.162 136.673 215.879V228.778H147.29H147.297Z" fill="white"/>
<path d="M124.097 15.5716C127.427 16.1047 139.077 15.7341 141.225 17.34C142.366 18.1982 142.501 19.3749 142.238 20.7207C141.813 22.8597 131.344 29.2115 129.797 31.916C130.452 36.246 132.735 41.3756 133.093 45.6275C133.958 56.0037 119.126 42.3768 115.236 41.8957C113.243 42.0582 105.071 48.345 102.174 49.3267C93.2316 52.3499 101.262 35.2513 101.026 31.6755L89.1252 21.7544C87.869 19.4659 88.6322 17.0539 91.4621 16.6378L106.8 15.5846C107.935 13.0751 112.095 1.12556 113.939 0.319385C114.912 -0.103205 115.979 -0.109706 116.958 0.319385C118.809 1.12556 122.962 13.0686 124.097 15.5846V15.5716ZM115.945 11.2482C114.79 11.0401 115.141 11.3132 114.824 11.8723C113.514 14.1543 112.474 19.726 110.069 20.9222C107.84 22.0275 102.025 21.5984 99.2629 21.9624L107.658 29.7316L105.335 40.4458C109.117 39.2301 113.135 34.094 117.161 35.6283C118.154 36.0054 125.245 40.8099 125.549 40.4458L123.226 29.7316L131.621 21.9624C128.818 21.5984 122.658 22.073 120.517 20.7207C118.376 19.3684 116.864 13.5822 115.938 11.2547L115.945 11.2482Z" fill="white"/>
<path d="M176.69 32.5918C180.019 33.1444 191.65 32.7543 193.804 34.3667C195.364 35.5369 195.114 37.5003 194.041 38.9566L182.464 48.6892C181.985 49.9115 185.436 60.1576 185.679 62.6411C186.686 73.0368 171.604 59.3905 167.822 58.9224C165.91 59.0134 157.617 65.3782 154.753 66.3469C145.838 69.3571 153.686 52.2584 153.605 48.6957L141.704 38.7746C140.475 36.3886 141.151 34.1651 144.041 33.658C148.688 32.8388 154.199 33.2809 158.934 32.4163C161.061 29.9782 164.215 18.3473 166.518 17.3331C167.491 16.9105 168.558 16.904 169.537 17.3331C171.347 18.1262 175.494 30.1343 176.69 32.5853V32.5918ZM168.524 28.2814C167.363 28.0538 167.714 28.4049 167.39 28.9055C166.012 31.0119 165.012 36.4406 162.939 37.7474C160.865 39.0542 154.571 38.56 151.842 38.9956C153.395 41.4792 159.433 44.2488 160.102 46.8623C160.609 48.8583 157.563 57.0565 157.914 57.479C161.196 56.2893 165.971 51.3678 169.395 52.4925C170.469 52.8436 177.237 57.4075 177.622 56.9914C178.081 54.1113 175.035 49.2288 175.805 46.7583C176.494 44.5478 182.458 41.1411 184.193 39.2297C181.215 38.2675 175.157 39.2362 172.806 37.5393C171.138 36.3366 169.233 30.4333 168.517 28.2814H168.524Z" fill="white"/>
<path d="M54.2076 32.5925C54.8695 32.1829 58.834 20.5649 60.1375 18.5885C65.4664 10.5333 69.8362 31.1751 71.9637 32.4169C76.6846 33.1971 82.2228 32.8395 86.856 33.6586C89.7535 34.1658 90.4221 36.3893 89.1929 38.7753L77.2925 48.6963C76.9143 49.665 80.406 60.2168 80.5614 62.6028C81.257 72.966 67.0468 59.7617 63.0755 58.9295C60.8738 58.8255 52.2355 65.7234 49.23 66.5036C40.7538 68.6946 48.8653 52.2526 48.433 48.6963L36.8568 38.9638C35.783 37.5075 35.5263 35.5441 37.0932 34.3738C39.1261 32.8525 50.9658 33.1256 54.2076 32.599V32.5925ZM63.3659 28.282C62.211 28.074 62.5622 28.3536 62.2448 28.8997C61.0291 31.0061 59.9552 36.1747 58.0776 37.5335C55.7273 39.2303 49.6758 38.2617 46.6905 39.2239C48.4263 41.1353 54.39 44.5485 55.0789 46.7524C55.8488 49.2229 52.8028 54.1055 53.2621 56.9856C53.7348 57.4992 61.1236 52.0055 63.0822 52.1291C65.6217 52.2916 70.336 56.5955 72.9767 57.4732C73.3347 57.0506 70.2211 48.7808 70.775 46.8694C71.5517 44.1519 77.4141 41.5383 79.0485 38.9833C76.3334 38.5607 69.5863 39.0613 67.6547 37.5335C65.8514 36.1097 64.4601 30.4535 63.3659 28.269V28.282Z" fill="white"/>
<path d="M33.9188 221.84C33.4325 222.341 31.5617 222.868 30.7783 222.952C25.0442 223.563 10.1991 223.563 4.47853 222.939C-1.01915 222.341 -1.37712 217.296 3.49921 216.646C8.80778 215.937 25.8547 215.989 31.2781 216.607C34.1417 216.932 35.8099 219.896 33.9121 221.847L33.9188 221.84Z" fill="white"/>
<path d="M196.979 221.841C195.081 219.89 196.749 216.925 199.613 216.6C208.156 215.625 218.638 217.322 227.398 216.639C228.925 216.874 230.768 218.18 230.762 219.773C230.606 221.951 228.438 222.712 226.412 222.933C220.692 223.557 205.84 223.557 200.112 222.946C199.329 222.861 197.458 222.335 196.972 221.834L196.979 221.841Z" fill="white"/>
<path d="M2.56053 206.497L31.7442 206.426C34.466 206.575 35.729 210.392 33.3246 211.776L2.46597 212.225C-0.539521 211.334 -0.580035 207.199 2.56053 206.497Z" fill="white"/>
<path d="M198.721 206.497L227.905 206.426C231.464 206.965 231.613 211.152 228.431 212.225H198.626C195.412 211.438 195.641 207.18 198.721 206.497Z" fill="white"/>
</svg>
