<svg width="245" height="250" viewBox="0 0 245 250" fill="none" xmlns="http://www.w3.org/2000/svg">
<path d="M200.198 0.157658C209.276 1.20438 219.839 9.64966 228.254 9.91622C232.576 10.0527 236.69 7.55622 239.384 12.7963C243.997 21.7617 245.341 39.647 244.173 49.5161C241.438 72.648 227.308 91.4955 207.432 103.978C216.252 126.772 215.908 152.296 206.939 175.012C210.761 179.914 219.089 183.386 215.982 190.68L191.378 214.664C188.325 216.354 184.766 213.864 185.637 210.614L208.755 187.579L189.075 168.66L132.997 222.726L152.421 241.398L153.454 240.923C157.682 238.017 172.271 220.847 175.79 220.08C179.308 219.312 181.767 222.661 180.004 225.606L157.237 247.476C148.706 253.789 142.27 240.591 136.178 236.619C118.044 241.534 98.795 241.346 80.6202 236.704C74.5282 240.683 68.166 253.776 59.6426 247.476L1.75477 191.792C-4.07385 184.205 6.19886 180.447 9.6231 174.973C7.46184 168.056 5.24656 161.184 4.13216 154.006C-6.66734 84.435 57.2787 25.7146 129.026 39.2049C135.557 40.4337 141.75 42.6962 148.132 44.4125C147.565 37.3 149.206 16.2486 154.191 11.0865C157.115 8.05683 161.086 10.0593 164.578 9.90322C172.669 9.55214 183.509 1.20438 192.627 0.151157C194.39 -0.0503857 198.442 -0.0503857 200.212 0.151157L200.198 0.157658ZM233.009 17.2303C217.934 19.4342 206.304 4.95567 191.499 8.08283C180.733 10.3583 171.285 19.1872 159.27 17.1978C158.554 21.4107 156.987 25.4805 156.352 29.7129C152.455 55.8354 162.397 78.9413 184.354 94.4276C186.278 95.7864 194.937 101.462 196.659 101.118C199.834 100.487 210.768 92.5617 213.605 90.1497C235.69 71.3607 241.674 44.0874 233.002 17.2368L233.009 17.2303ZM149.037 53.2674C99.2408 31.1952 40.2386 53.4884 18.6126 101.482C9.00173 122.813 8.26557 146.861 15.6746 168.927C19.1867 167.705 21.9152 162.009 25.6434 161.262C30.3643 160.319 31.7557 162.686 35.0651 165.007L44.9596 155.488C45.1554 154.442 34.8084 145.86 33.4509 143.806C27.9397 135.471 33.0457 124.249 42.9739 122.234C39.1107 112.449 46.3576 102.483 57.1639 102.58C57.8596 100.357 57.6434 98.4909 58.6362 96.2155C60.9326 90.9363 66.8625 87.3411 72.8059 87.7182C72.6641 80.7097 77.4661 74.3708 84.7604 73.1876C87.7996 72.6935 89.4138 72.687 92.6152 71.9978C98.795 70.6716 115.376 70.353 121.177 72.557C123.508 73.4411 125.649 75.086 127.195 76.9844C137.664 71.3672 150.179 78.7073 149.652 90.1497C158.459 89.2655 165.078 96.6316 165.355 104.713C173.797 104.518 181.213 111.598 180.49 119.822C192.1 119.035 199.28 130.673 194.235 140.574C192.384 144.215 176.256 157.666 176.485 158.902L182.26 164.538C185.529 161.242 189.696 159.649 193.883 162.614C194.896 163.329 200.462 169.583 201.211 168.933C207.796 148.948 207.959 127.494 200.705 107.651C198.118 109.043 196.389 109.576 193.512 108.497C182.8 104.472 167.982 91.515 161.37 82.5171C154.758 73.5192 150.571 63.7216 149.044 53.2739L149.037 53.2674ZM94.8575 79.0193C93.6418 79.4029 93.9052 82.9397 94.0065 84.0774C94.7494 92.2431 103.732 93.5044 110.702 92.3146L121.292 82.0425C121.508 80.8397 118.118 79.1429 117.004 78.9803C110.493 78.0116 101.632 79.5784 94.8642 79.0193H94.8575ZM85.9355 80.4106C79.9043 82.6406 79.0736 87.5101 82.9166 92.3146C86.6582 96.9891 102.895 112.69 107.724 116.116C115.565 121.681 123.454 113.678 118.294 106.923C117.679 106.117 111.364 100.11 110.864 99.9668C108.865 99.3946 104.786 100.064 102.381 99.8562C91.548 98.933 85.5438 90.4487 85.9355 80.4106ZM139.683 99.2386C136.894 95.9164 141.973 92.7762 142.081 89.389C142.256 83.9279 135.671 80.6252 130.957 83.5898C126.709 86.2619 122.082 93.0818 117.801 96.2155C121.083 99.7587 125.601 102.45 127.053 107.248C129.647 115.824 123.953 123.989 114.971 125.608C115.693 130.848 114.309 136.238 109.973 139.755C105.259 143.578 99.7541 143.806 94.0402 142.174C92.5814 151.009 81.0254 156.158 73.0491 151.425C69.3547 160.787 60.6759 164.48 50.9098 160.722L40.4547 170.624L79.1884 207.792C91.6696 198.476 100.598 182.372 117.26 179.349C125.77 177.808 132.875 180.291 141.439 177.808C144.451 176.937 148.551 173.627 151.165 176.442C156.845 182.573 140.095 186.11 136.232 186.416C129.269 186.962 122.055 185.46 115.261 187.404L136.745 208.306L176.931 169.648L171.055 164.09C167.617 165.546 162.923 174.674 158.729 170.143C157.007 168.283 157.622 166.768 158.979 165.013C165.821 156.197 178.998 147.856 186.022 138.988C191.249 132.396 185.684 124.496 177.937 127.812C175.81 128.722 173.068 131.947 170.508 128.891C167.948 125.836 171.676 123.508 172.494 121.122C174.533 115.173 168.104 110.174 162.41 112.878C160.411 113.828 158.283 117.143 155.332 114.302C152.063 111.162 156.332 108.731 156.987 106.683C158.891 100.792 153.833 95.8449 147.741 97.7888C145.593 98.4714 142.466 102.554 139.67 99.2191L139.683 99.2386ZM71.1647 95.0972C65.0795 95.8904 63.7219 102.457 67.2475 106.904C70.773 111.351 90.9402 130.998 95.5802 134.118C103.145 139.216 110.824 131.193 105.657 124.425C95.9786 116.61 87.077 104.537 77.3513 97.1842C75.5143 95.7929 73.6434 94.7722 71.1647 95.0972ZM54.9621 110.187C49.3901 111.279 48.4108 117.371 51.5716 121.493C57.5016 129.216 68.8076 136.68 75.3522 144.332C82.4438 148.89 90.7241 141.504 84.9089 134.164C81.3766 129.704 66.5451 115.434 61.9051 112.033C59.7304 110.434 57.7852 109.634 54.9554 110.187H54.9621ZM43.8317 129.633C39.2863 130.621 37.7261 136.55 40.2116 140.204C41.1233 141.543 53.1183 153.037 54.4218 153.772C60.4395 157.166 66.9638 151.952 64.9849 145.554C64.4311 143.76 53.125 132.766 51.0178 131.271C48.6945 129.626 46.8371 128.976 43.8384 129.633H43.8317ZM27.548 168.446L8.12371 187.579L64.3906 241.352L83.9161 222.661L27.5547 168.439L27.548 168.446ZM129.924 230.69C127.756 228.037 124.845 226.516 124.865 222.661C124.885 218.805 131.058 214.365 130.896 213.494L107.933 191.383L84.963 213.006C87.131 216.666 91.7845 217.993 91.8182 222.752C91.8452 226.34 89.0356 228.232 86.9486 230.69C101.22 233.401 115.646 233.349 129.924 230.69Z" fill="white"/>
<path d="M218.555 44.7501C217.475 43.7879 216.685 40.4982 215.773 38.9184C206.986 23.6532 183.03 24.7129 175.844 40.6803C165.814 62.9605 195.187 81.4959 212.355 64.6183C215.003 62.0178 217.191 54.7167 220.953 55.3149C228.409 56.4981 221.392 65.7366 218.92 68.4997C205.743 83.1993 181.24 81.3464 170.663 64.8004C155.224 40.6348 181.166 11.7167 208.465 23.0811C214.915 25.7661 224.229 34.3219 224.945 41.3044C225.323 44.9582 221.433 47.3052 218.549 44.7436L218.555 44.7501Z" fill="white"/>
<path d="M207.654 39.6663C211.349 38.7366 213.882 42.2604 212.031 45.355C211.308 46.5643 198.692 58.7218 197.186 59.7621C194.768 61.4264 193.64 61.0818 191.351 59.4955C190.074 58.6113 180.49 49.2298 180.2 48.3391C179.173 45.2185 181.193 42.3059 184.664 43.06C187.17 43.6061 191.965 50.0685 194.383 51.7068C195.295 51.7068 204.865 40.3685 207.654 39.6663Z" fill="white"/>
</svg>
