<svg width="245" height="211" viewBox="0 0 245 211" fill="none" xmlns="http://www.w3.org/2000/svg">
<path d="M199.117 0C217.827 4.25288 211.909 32.2208 193.277 27.902C187.524 26.5668 184.463 22.6216 182.458 17.3082H169.298L168.682 17.9236V57.6941H182.463C183.683 55.2215 184.348 52.9192 186.353 50.8752C194.897 42.1496 210.079 47.8147 210.656 59.9414C211.233 72.0956 197.81 79.4365 187.886 72.0462C184.985 69.8868 183.782 67.1174 182.469 63.8756H168.688V104.261H182.469C185.474 95.404 194.897 90.3709 203.53 95.1128C220.316 104.327 204.815 130.46 188.546 119.196C185.32 116.96 184.15 114.262 182.414 110.915C177.391 110.223 169.083 112.355 164.979 109.014C164.386 108.531 162.517 106.278 162.517 105.707V64.4965L161.902 63.8811H144.011C143.923 70.4197 137.495 70.4472 132.555 70.9472C131.797 73.3869 131.082 75.8045 130.099 78.1727C129.626 79.3156 127.775 82.063 127.632 82.7333C127.187 84.7828 133.308 88.6731 132.313 93.5743C131.879 95.7172 125.626 102.097 123.56 102.525C118.785 103.52 116.549 100.009 112.955 97.8217C109.159 99.8987 105.219 101.921 100.911 102.701C99.6253 107.833 100.554 113.976 93.6416 114.586C82.8995 115.537 81.3775 112.976 80.1852 102.69C75.9708 101.899 72.0091 100.053 68.3551 97.8546C64.4264 99.7723 62.5363 103.564 57.5251 102.52C56.0031 102.206 50.7942 97.2173 49.8216 95.8161C46.3819 90.8874 51.1898 87.4258 53.4426 83.3872C51.7338 79.3431 49.4699 75.5023 48.6402 71.1176C44.0192 70.1615 37.6564 70.7659 37.052 64.513C36.052 54.0841 37.9037 51.3093 48.5029 50.6005C49.4645 47.9245 50.3106 45.2102 51.3986 42.5782C51.8107 41.5892 53.3327 39.4023 53.4536 38.8418C53.9261 36.666 47.5908 33.0724 48.7666 27.9954C49.2611 25.8634 55.4482 19.4841 57.5251 19.0555C62.1846 18.0885 64.5034 21.7864 68.1244 23.759C71.9981 21.7864 75.8993 19.8852 80.1632 18.8632C81.438 15.0719 80.328 9.53876 84.9051 7.742C87.8777 6.57713 94.8944 6.54965 97.5154 8.47828C100.856 10.9344 99.8231 17.9181 100.933 18.8632C105.071 19.9457 108.994 21.66 112.73 23.7095C117.076 21.7259 120.318 16.4016 125.72 20.1929C126.681 20.8688 130.33 24.5942 131.027 25.5887C134.956 31.1768 129.747 33.9461 127.582 38.5396C129.78 42.2486 131.22 46.3146 132.461 50.4356C137.308 51.7159 143.781 50.8422 144.022 57.6941H162.528V16.2752C162.528 14.5829 165.732 11.6982 167.435 11.3025C170.122 10.6762 181.743 11.6377 182.628 11.0718C184.095 5.3683 188.304 1.68686 193.788 0H199.134H199.117ZM191.035 8.38487C183.37 15.5334 195.035 27.3964 202.403 19.572C209.189 12.363 198.601 1.32422 191.035 8.38487ZM137.83 57.6996C135.115 57.1226 128.308 57.3974 126.967 54.7819C126.11 53.1115 125.692 49.5729 124.873 47.4025C124.011 45.1168 120.802 40.5067 120.582 38.9133C120.137 35.7044 124.461 32.5559 125.857 29.8031L121.599 25.5502C118.758 26.5613 115.148 31.7482 111.911 30.7317C110.604 30.3196 107.483 27.9569 105.62 27.1327C102.581 25.7865 99.455 25.0887 96.3065 24.0996C93.9109 22.5337 94.4548 16.5719 93.6416 13.9949L87.2403 13.6048C86.8832 16.4291 87.1359 23.1491 84.2512 24.4183C81.9654 25.4239 78.5313 25.8085 75.74 27.0173C74.1355 27.7096 69.3717 30.8306 68.4925 30.9185C65.7012 31.2043 62.0912 26.4953 59.4757 25.5557C59.0142 25.5557 55.5965 28.7756 55.3438 29.2811C54.5196 30.913 61.5967 35.4407 60.3219 39.5946C59.9153 40.9243 57.8164 43.6112 57.0306 45.3585C55.6185 48.485 54.9097 51.7708 53.9426 55.0347C52.5305 57.3369 45.8599 57.1611 43.2445 57.7106L43.217 63.6338C45.8929 65.1009 52.5744 63.9031 54.025 66.8867C55.0635 69.0296 55.5361 72.8539 56.613 75.4199C57.4152 77.332 60.289 81.2552 60.4978 82.6674C60.9703 85.8213 56.4372 89.3214 55.1514 92.1182C55.7119 93.1732 58.6406 96.6184 59.6681 96.2557C62.0802 95.404 65.8166 90.0467 68.7453 90.8544C70.2508 91.272 73.3223 93.5853 75.1081 94.393C77.4598 95.4535 83.7952 96.7942 84.9985 97.6733C87.081 99.1954 86.7513 105.542 87.4272 108.014C87.8173 108.597 93.4273 108.822 93.768 107.718C94.5098 105.349 93.9493 99.9426 95.6472 98.0634C96.5428 97.0744 102.51 95.7996 104.505 94.9864C106.307 94.2556 111.895 90.75 112.983 90.6786C115.01 90.5467 119.62 95.4095 121.664 96.3876L125.923 92.1127C125.917 91.1951 121.291 86.3433 120.785 84.8872C119.78 81.986 122.708 79.1563 123.923 76.5243C125.055 74.0682 126.357 67.7493 127.357 66.3647C128.868 64.2657 135.341 64.7492 137.791 63.8426L137.835 57.7106L137.83 57.6996ZM196.441 52.9796C185.743 53.1445 186.694 69.0681 196.837 68.8373C206.98 68.6065 207.101 52.8203 196.441 52.9796ZM194.892 99.8272C185.447 101.443 187.309 117.086 197.991 115.289C207.815 113.635 205.81 97.9646 194.892 99.8272Z" fill="white"/>
<path d="M0 159.071C1.09893 158.384 1.2363 157.593 2.65393 157.401C9.19259 156.505 17.6324 158.186 24.3854 157.335C27.7041 154.867 31.0669 152.373 34.6824 150.345C36.8693 149.12 39.5452 146.845 41.9408 148.571C46.963 152.192 37.4572 155.917 35.1549 157.412C32.1878 159.34 29.2756 161.368 26.5283 163.604H6.17052V198.22C12.7916 198.451 19.4951 197.913 26.1162 198.22C48.3037 199.275 70.5736 202.831 92.7556 204.396C119.081 206.254 138.889 193.292 160.939 181.231C163.368 180.083 165.78 182.236 165.351 184.802C165.104 186.297 162.351 187.627 161.098 188.396C147.878 196.517 132.543 203.671 117.806 208.485L105.294 210.99H94.6018C92.9809 210.534 90.7555 210.314 89.0467 210.166C60.1722 207.655 31.2977 204.105 2.27479 204.385L0.00549467 202.743V159.06L0 159.071Z" fill="white"/>
<path d="M183.811 132.284C187.471 130.861 190.52 127.993 194.713 128.136C199.872 128.312 204.861 132.718 204.79 138.048C208.949 136.85 212.466 133.24 216.917 133.081C222.301 132.883 227.801 137.466 227.823 142.999C238.225 139.169 248.198 149.851 242.846 159.906C240.967 163.439 237.967 164.659 234.675 166.554C227.626 170.626 219.834 174.912 212.609 178.648C211.521 179.209 207.878 181.253 207.015 181.313C204.235 181.505 202.389 177.28 204.982 175.538L235.093 159.142C241.335 154.939 237 146.73 229.983 149.081C210.01 160.016 191.778 172.714 168.723 176.302C151.239 179.027 135.216 176.264 117.875 174.225C114.117 172.697 114.243 168.862 118.304 167.818L171.14 161.005C176.014 159.648 176.02 152.834 171.481 151.01L128.474 150.834C117.128 146.444 104.485 144.867 92.4842 147.307C89.7533 147.862 82.297 151.527 81.8795 146.394C81.5827 142.763 88.8302 141.598 91.5885 141.059C104.111 138.603 116.32 139.9 128.315 144.026L167.893 123.141C174.97 119.723 183.388 124.311 183.806 132.284H183.811ZM141.859 144.235H162.217C162.959 144.235 174.179 137.971 175.311 137.163C178.251 135.064 178.58 131.004 175.316 129.053C171.547 126.8 167.267 131.295 163.646 132.482L141.854 144.235H141.859ZM173.937 145.466C176.696 146.257 178.86 148.57 180.091 151.059L180.657 151.197L197.169 142.169C200.553 139.048 197.971 134.141 193.669 134.504L175.294 144.153L173.937 145.466ZM145.151 171.016C163.931 172.643 181.624 168.197 198.213 159.697C203.636 156.917 215.169 151.164 219.565 147.708C223.516 144.603 221.301 138.966 217.021 139.372C215.537 139.515 210.592 142.339 208.894 143.191C199.581 147.867 190.608 153.279 181.212 157.801C180.009 162.225 177.476 165.505 173.119 167.098L145.156 171.011L145.151 171.016Z" fill="white"/>
<path d="M106.835 71.4529C104.67 69.2825 107.895 65.2659 108.258 62.601C110.665 44.8092 89.5817 35.1606 78.3286 48.6885C68.8777 60.046 77.7571 77.3212 92.5433 76.53C96.1423 76.3377 100.912 72.6508 102.967 76.3707C105.159 80.3433 97.7303 82.3434 94.9555 82.6566C68.8832 85.5688 57.9818 51.6611 79.977 39.2157C98.0325 29.0011 119.22 45.4356 114 65.4802C113.302 68.1506 110.593 75.2388 106.829 71.4584L106.835 71.4529Z" fill="white"/>
</svg>
