<svg width="213" height="216" viewBox="0 0 213 216" fill="none" xmlns="http://www.w3.org/2000/svg">
<g filter="url(#filter0_i_100_15)">
<g filter="url(#filter1_b_100_15)">
<rect width="212.451" height="215.502" rx="20" fill="#8C3048"/>
</g>
</g>
<g clip-path="url(#clip0_100_15)">
<path d="M101.157 81.6713C138.256 78.5459 161.546 118.099 141.405 149.038L154.338 171.475C154.952 173.59 154.041 175.571 151.681 175.51C148 175.416 143.28 173.698 139.477 173.509C139.045 173.489 138.621 173.435 138.196 173.57L131.069 182.28C129.936 183.243 127.846 183.324 126.902 182.057L117.542 166.147C109.734 168.572 101.319 168.228 93.4571 166.262L84.3206 182.057C83.3631 183.33 81.2728 183.243 80.1535 182.28L73.0263 173.57C72.6015 173.435 72.1767 173.489 71.7452 173.509C68.0366 173.685 62.7165 175.604 59.244 175.544C57.5246 175.51 56.5199 173.967 56.7087 172.344L69.8167 149.044C51.5167 122.559 68.9132 84.3994 101.164 81.6781L101.157 81.6713ZM101.495 87.0601C75.3391 89.3705 60.0464 118.726 71.9407 141.978C84.0036 165.561 116.936 169.629 134.258 149.428C156.678 123.279 135.856 84.0289 101.495 87.0601ZM88.0493 164.113C82.3854 161.816 77.6249 157.808 73.2421 153.645L64.4697 169.131C65.2181 169.683 72.9117 167.285 74.9413 167.939C76.5258 168.451 79.8973 173.846 81.2998 175.315C81.5695 175.598 81.5223 175.625 81.9943 175.53C83.2282 172.048 86.4108 168.599 87.8066 165.332C87.9752 164.935 88.1909 164.557 88.0493 164.106V164.113ZM146.739 169.131L137.966 153.645C133.597 157.956 128.682 161.641 123.112 164.288L129.214 175.537C129.754 175.907 134.851 168.397 136.267 167.939C138.216 167.312 146.071 169.616 146.739 169.131Z" fill="white"/>
<path d="M118.986 71.6951C118.743 71.9174 117.799 72.3687 117.489 72.4159C115.412 72.7325 108.217 67.5054 105.749 66.7442C103.201 67.3235 95.7632 72.7931 93.7201 72.4226C92.6143 72.2273 91.4478 70.7454 91.4411 69.6205C91.4141 66.7577 93.2212 62.1907 93.4437 59.1191C93.4707 58.7082 93.5651 58.3041 93.41 57.8999C92.9043 56.2092 86.1951 51.6085 84.8938 49.5608C83.788 47.8162 84.7185 45.7954 86.6402 45.27C89.9374 44.3674 94.6776 44.6099 98.1434 43.7948C99.256 41.9761 102.89 32.8623 104.273 32.2359C104.967 31.926 106.269 31.9193 106.963 32.2359C108.352 32.8623 111.919 41.8818 113.025 43.6938L124.596 45.27C131.392 48.8198 119.795 54.5185 117.812 57.8999C117.36 59.4761 119.72 66.9261 119.788 69.2971C119.815 70.1526 119.66 71.0889 118.999 71.6951H118.986ZM105.938 41.1543C105.149 40.9859 105.399 41.2621 105.19 41.5854C104.124 43.2357 102.904 47.4861 101.549 48.382C99.6201 49.6551 95.4463 49.2779 93.1335 49.9111L99.1414 56.2159L97.8602 64.7234C99.7752 63.9219 103.558 61.0658 105.432 60.985C107.583 60.8907 111.251 63.841 113.362 64.7234C113.328 61.7125 110.955 57.5025 112.85 54.9496C114.245 53.077 116.835 51.9925 118.082 49.9111C115.965 49.1836 111.353 49.5945 109.66 48.3887C108.446 47.5198 106.734 42.7036 105.945 41.1543H105.938Z" fill="white"/>
<path d="M162.153 56.3776C163.36 56.1149 164.318 56.3978 165.1 57.3341C166.63 59.1798 169.28 67.2764 170.541 68.0645L182.22 69.8697C188.356 73.1838 176.866 79.0441 175.113 82.4862L177.115 93.8632C175.848 101.003 166.745 91.9233 163.043 91.0678C160.171 91.9233 153.63 97.0358 150.994 96.7125C149.686 96.5509 149.247 95.5674 148.829 94.4492L150.724 82.1426C150.319 80.8022 143.691 75.9927 142.363 73.9921C138.439 68.0712 152.976 69.378 155.491 67.9096C156.88 66.852 159.233 59.4559 160.616 57.5362C161.02 56.9704 161.445 56.5258 162.16 56.3709L162.153 56.3776ZM175.396 74.1605C173.265 73.8574 168.829 73.9248 167.136 72.8133C165.444 71.7019 164.277 67.2629 163.259 65.4038C162.807 65.0602 159.773 72.1599 159.004 72.7662C157.48 73.9652 152.511 73.8507 150.454 74.1605C151.452 75.9658 156.085 79.0576 156.462 80.8022C156.887 82.7893 155.289 86.7837 155.174 88.9729C155.478 89.2693 161.573 85.3624 162.78 85.2816C164.655 85.1536 168.64 88.461 170.683 88.9729C170.986 88.6361 169.112 82.1696 169.55 80.627C170.083 78.741 174.324 76.0668 175.41 74.1605H175.396Z" fill="white"/>
<path d="M47.525 56.3778C48.5499 56.1555 49.6288 56.3037 50.2693 57.1996L55.9131 68.0647L67.8546 69.944C72.8241 73.7768 62.5615 78.9365 60.4982 82.1496C60.3229 82.675 60.424 83.1869 60.4645 83.719C60.6938 86.5347 62.5952 91.7887 62.4334 94.1867C62.3053 96.1738 60.5859 97.0764 58.7316 96.5713C55.6906 95.7495 51.5437 92.2266 48.4016 91.0814C47.0328 90.9669 39.7977 96.221 37.5861 96.6588C35.3744 97.0967 34.0191 95.7629 34.154 93.5805C34.3765 90.0104 36.0757 85.8543 36.0959 82.1563C35.9408 81.5905 28.7934 75.5348 27.7213 73.9991C23.588 68.0781 38.3615 69.4119 40.8496 67.9165C41.9285 67.0947 44.6054 59.4426 45.9742 57.5431C46.3787 56.9773 46.8103 56.5327 47.5183 56.3778H47.525ZM60.7679 74.1607C58.7046 73.8509 53.7419 73.9586 52.218 72.7664C51.4493 72.1601 48.4151 65.0604 47.9633 65.404C46.9249 67.3709 45.6977 72.1062 43.7018 73.1099C41.9285 73.9991 37.8963 73.8441 35.8195 74.1674L41.8341 80.8158L40.5462 88.9866C40.8159 89.3301 46.8844 85.1875 48.442 85.2885C49.6625 85.3694 55.7041 89.3234 56.0479 88.9798C55.8591 86.7704 54.2072 82.5402 54.8545 80.5397C55.4074 78.8287 59.7835 75.9862 60.7747 74.1607H60.7679Z" fill="white"/>
<path d="M103.518 98.1737C138.614 95.2571 142.484 149.178 107.118 151.28C72.8916 153.314 68.7313 101.063 103.518 98.1737ZM104.185 103.562C73.9975 105.651 81.0909 152.681 111.063 145.123C135.296 139.014 129.693 101.798 104.185 103.562Z" fill="white"/>
<path d="M115.297 116.644C117.576 116.206 119.458 119.029 117.9 120.955L102.223 136.616C101.137 137.431 100.065 137.29 99.0269 136.468C96.9906 134.858 94.9677 128.789 93.0528 126.607C91.7312 123.838 94.7317 121.393 97.1726 123.164C98.1571 123.878 100.962 130.049 101.394 130.055C103.915 128.304 113.241 117.035 115.297 116.637V116.644Z" fill="white"/>
</g>
<defs>
<filter id="filter0_i_100_15" x="0" y="0" width="212.452" height="219.502" filterUnits="userSpaceOnUse" color-interpolation-filters="sRGB">
<feFlood flood-opacity="0" result="BackgroundImageFix"/>
<feBlend mode="normal" in="SourceGraphic" in2="BackgroundImageFix" result="shape"/>
<feColorMatrix in="SourceAlpha" type="matrix" values="0 0 0 0 0 0 0 0 0 0 0 0 0 0 0 0 0 0 127 0" result="hardAlpha"/>
<feOffset dy="4"/>
<feGaussianBlur stdDeviation="2"/>
<feComposite in2="hardAlpha" operator="arithmetic" k2="-1" k3="1"/>
<feColorMatrix type="matrix" values="0 0 0 0 0 0 0 0 0 0 0 0 0 0 0 0 0 0 0.25 0"/>
<feBlend mode="normal" in2="shape" result="effect1_innerShadow_100_15"/>
</filter>
<filter id="filter1_b_100_15" x="-60" y="-60" width="332.452" height="335.502" filterUnits="userSpaceOnUse" color-interpolation-filters="sRGB">
<feFlood flood-opacity="0" result="BackgroundImageFix"/>
<feGaussianBlur in="BackgroundImageFix" stdDeviation="30"/>
<feComposite in2="SourceAlpha" operator="in" result="effect1_backgroundBlur_100_15"/>
<feBlend mode="normal" in="SourceGraphic" in2="effect1_backgroundBlur_100_15" result="shape"/>
</filter>
<clipPath id="clip0_100_15">
<rect width="157" height="151" fill="white" transform="translate(27 32)"/>
</clipPath>
</defs>
</svg>
