<svg width="213" height="216" viewBox="0 0 213 216" fill="none" xmlns="http://www.w3.org/2000/svg">
<g filter="url(#filter0_i_100_14)">
<g filter="url(#filter1_b_100_14)">
<rect width="212.451" height="215.502" rx="20" fill="#8C3048"/>
</g>
</g>
<g clip-path="url(#clip0_100_14)">
<path d="M100.976 73.7369C102.589 73.3744 109.312 73.4892 111.196 73.6583C115.539 74.051 113.172 79.9827 114.821 82.1149C115.268 82.6888 118.427 83.8183 119.17 83.4861C121.332 82.5257 123.99 78.1403 126.72 79.88C127.638 80.4659 133.093 85.9566 133.836 86.9593C134.108 87.3217 134.434 87.6057 134.53 88.0949C135.074 90.7467 129.964 93.8756 130.411 96.1045C130.447 96.2857 131.498 98.7442 131.589 98.871C132.93 100.689 139.767 98.8166 140.299 102.242C140.595 104.15 140.553 110.505 140.323 112.498C139.9 116.159 134.271 114.437 132.066 115.718C131.317 116.153 130.121 119.233 130.507 120.176C131.456 122.501 135.974 124.851 133.975 127.889C133.449 128.693 127.886 134.244 127.04 134.848C125.627 135.856 125.035 135.73 123.609 134.932C122.51 134.316 119.731 131.622 118.952 131.411C118.409 131.266 115.588 132.256 115.123 132.601C113.304 133.948 115.177 140.779 111.752 141.311C109.843 141.607 103.489 141.565 101.495 141.335C97.8349 140.912 99.5564 135.283 98.2759 133.078C97.841 132.329 94.7603 131.133 93.818 131.519C91.6616 132.401 89.0461 136.883 86.2675 135.119C85.3494 134.534 79.8949 129.043 79.1519 128.04C78.8801 127.678 78.5539 127.394 78.4573 126.905C77.9137 124.253 83.0238 121.124 82.5768 118.895C82.5406 118.714 81.4896 116.255 81.399 116.128C80.058 114.31 73.2203 116.183 72.6887 112.758C72.3927 110.849 72.435 104.495 72.6645 102.501C73.0874 98.8408 78.717 100.562 80.9218 99.2818C81.6708 98.8468 82.8668 95.7662 82.4802 94.8239C81.5983 92.6675 77.1163 90.052 78.8801 87.2734C79.466 86.3553 84.9568 80.9008 85.9595 80.1578C86.3219 79.886 86.6058 79.5598 87.0951 79.4632C89.7468 78.9195 92.8757 84.0297 95.1047 83.5827C95.2859 83.5465 97.7443 82.4955 97.8712 82.4049C99.5987 81.1303 97.9799 74.4074 100.982 73.7369H100.976ZM109.185 78.539H103.815C103.32 78.9558 103.446 84.5069 102.287 85.8358C101.785 86.4036 98.294 87.3882 97.2369 87.8171C96.4939 88.113 95.7812 88.8681 95.1167 89.0191C92.616 89.5869 90.3206 86.5546 88.3756 85.2922H87.7837L84.1776 88.9708C84.0688 89.5929 87.977 93.3138 88.0978 94.9749C88.2186 96.6361 87.3246 96.9743 86.8172 98.2368C86.3098 99.4992 85.736 101.946 85.1561 102.888C84.0809 104.652 77.7022 104.187 77.4908 104.972L77.5391 110.191C77.9559 110.686 83.5131 110.559 84.836 111.719C85.4038 112.22 86.3883 115.712 86.8172 116.769C87.1132 117.512 87.8682 118.224 88.0193 118.889C88.5871 121.39 85.5548 123.685 84.2923 125.63V126.222L87.9709 129.828C88.5931 129.937 92.314 126.029 93.9751 125.908C95.6362 125.787 95.9745 126.681 97.2369 127.188C98.6987 127.774 102.202 128.517 102.74 129.84C103.144 130.843 103.477 136.376 103.978 136.509L109.197 136.46C109.668 136.062 109.638 130.426 110.598 129.254C111.094 128.65 114.875 127.551 115.986 127.092C117.484 126.482 117.907 125.292 120.021 126.149C120.939 126.524 124.521 130.033 125.24 129.707L128.84 126.029C128.949 125.407 125.041 121.686 124.92 120.025C124.799 118.363 125.693 118.025 126.201 116.763C126.787 115.301 127.53 111.797 128.852 111.26C129.855 110.855 135.388 110.523 135.521 110.022L135.473 104.803C135.056 104.307 129.499 104.434 128.176 103.274C127.608 102.773 126.624 99.2818 126.195 98.2247C125.899 97.4817 125.144 96.769 124.993 96.1045C124.425 93.6038 127.457 91.3084 128.72 89.3634V88.7714L125.083 85.2136C123.241 85.8721 120.843 88.9527 119.037 89.0856C117.4 89.2064 117.037 88.3124 115.775 87.805C114.512 87.2976 112.066 86.7237 111.124 86.1439C109.487 85.1472 109.849 80.2847 109.197 78.533L109.185 78.539Z" fill="white"/>
<path d="M157.236 105.081C156.197 86.0899 144.594 68.9714 127.324 61.1249L129.148 56.7577C147.668 64.7431 161.108 84.0422 162.075 104.314C162.256 108.156 162.697 109.605 158.583 109.913C158.136 109.95 157.707 109.672 157.834 110.36L164.328 118.068L171.117 109.913C169.655 109.98 167.565 110.143 167.028 108.415C166.569 106.953 166.804 102.912 166.587 101.004C164.074 78.6783 148.84 58.6181 127.656 50.9891L129.009 46.4648C153.564 54.7704 170.791 79.2884 171.727 105.081C173.696 105.359 178.07 104.151 178.843 106.573C179.429 108.421 178.16 109.345 177.158 110.656C173.805 115.036 169.746 119.058 166.454 123.51C165.651 124.422 164.467 124.688 163.349 124.175L150.326 108.814C149.335 107.811 150.483 105.075 151.649 105.075H157.236V105.081Z" fill="white"/>
<path d="M104.081 56.7571C85.4159 57.7538 68.0014 69.2185 60.4328 86.3491L59.8892 86.6209L55.7575 84.839C63.7973 66.3191 83.0179 52.8792 103.314 51.9127C107.155 51.7315 108.605 51.2905 108.913 55.404C108.949 55.851 108.671 56.2799 109.36 56.1531L117.062 49.6596L108.913 42.8702C108.98 44.332 109.143 46.422 107.415 46.9595C105.953 47.4186 101.912 47.183 100.004 47.4005C77.2191 49.9616 57.8777 65.2257 49.7232 86.5303L45.4707 84.9779C53.7642 60.4297 78.2943 43.1843 104.087 42.2662C104.365 40.297 103.157 35.9237 105.579 35.1506C107.427 34.5646 108.351 35.8331 109.662 36.8358C114.041 40.1883 118.064 44.2474 122.516 47.5394C123.428 48.3428 123.694 49.5267 123.181 50.6442L107.82 63.6673C106.817 64.6579 104.081 63.5103 104.081 62.3445V56.7571Z" fill="white"/>
<path d="M108.913 158.236C127.614 157.083 142.691 146.929 151.655 130.759C152.018 130.106 152.452 128.312 153.105 128.373L157.236 130.155C149.179 148.668 129.988 162.114 109.68 163.081C105.839 163.262 104.389 163.703 104.081 159.589C104.045 159.142 104.322 158.714 103.634 158.84L95.9263 165.334L104.081 172.123C104.014 170.661 103.851 168.571 105.579 168.034C107.029 167.581 111.088 167.804 112.99 167.593C135.708 165.086 155.159 149.689 163.271 128.463L167.523 130.016C159.157 154.6 134.796 171.767 108.907 172.733C108.629 174.703 109.837 179.076 107.415 179.849C105.579 180.435 104.637 179.172 103.332 178.164C98.9405 174.769 94.9779 170.74 90.4778 167.46C89.3483 166.488 89.1973 164.742 90.3389 163.673L105.174 151.326C106.177 150.336 108.913 151.483 108.913 152.649V158.236Z" fill="white"/>
<path d="M55.7578 109.913C56.6276 127.865 67.1862 144.464 83.1993 152.54L81.4235 157.022C66.7936 149.895 55.7759 135.803 52.2785 119.88C51.6503 117.023 50.267 109.092 51.0583 106.573C51.5778 104.924 53.1121 105.172 54.3987 105.075C54.8457 105.039 55.2745 105.317 55.1477 104.628L48.6542 96.9204L41.8648 105.075C43.3266 105.009 45.4166 104.845 45.9542 106.573C46.3951 107.986 46.1837 112.07 46.3951 113.985C48.7448 135.47 63.0183 155.216 83.2416 163.069L81.2483 167.575C58.029 158.249 42.0762 134.939 41.2608 109.913C39.2916 109.635 34.9184 110.844 34.1452 108.421C33.5593 106.573 34.8277 105.649 35.8305 104.338C39.1829 99.9587 43.2481 95.9419 46.528 91.478C47.6636 90.3484 49.3247 90.3303 50.4845 91.478L62.6619 106.18C63.6526 107.183 62.5049 109.919 61.3391 109.919H55.7517L55.7578 109.913Z" fill="white"/>
<path d="M104.618 93.0848C122.311 90.9526 127.439 116.552 110.586 121.402C90.4898 127.183 84.5702 95.5071 104.618 93.0848ZM105.222 97.9232C93.2381 99.3367 94.5912 117.947 107.246 117.162C119.864 116.377 118.572 96.3527 105.222 97.9232Z" fill="white"/>
</g>
<defs>
<filter id="filter0_i_100_14" x="0" y="0" width="212.452" height="219.502" filterUnits="userSpaceOnUse" color-interpolation-filters="sRGB">
<feFlood flood-opacity="0" result="BackgroundImageFix"/>
<feBlend mode="normal" in="SourceGraphic" in2="BackgroundImageFix" result="shape"/>
<feColorMatrix in="SourceAlpha" type="matrix" values="0 0 0 0 0 0 0 0 0 0 0 0 0 0 0 0 0 0 127 0" result="hardAlpha"/>
<feOffset dy="4"/>
<feGaussianBlur stdDeviation="2"/>
<feComposite in2="hardAlpha" operator="arithmetic" k2="-1" k3="1"/>
<feColorMatrix type="matrix" values="0 0 0 0 0 0 0 0 0 0 0 0 0 0 0 0 0 0 0.25 0"/>
<feBlend mode="normal" in2="shape" result="effect1_innerShadow_100_14"/>
</filter>
<filter id="filter1_b_100_14" x="-60" y="-60" width="332.452" height="335.502" filterUnits="userSpaceOnUse" color-interpolation-filters="sRGB">
<feFlood flood-opacity="0" result="BackgroundImageFix"/>
<feGaussianBlur in="BackgroundImageFix" stdDeviation="30"/>
<feComposite in2="SourceAlpha" operator="in" result="effect1_backgroundBlur_100_14"/>
<feBlend mode="normal" in="SourceGraphic" in2="effect1_backgroundBlur_100_14" result="shape"/>
</filter>
<clipPath id="clip0_100_14">
<rect width="145" height="145" fill="white" transform="translate(34 35)"/>
</clipPath>
</defs>
</svg>
