<svg width="428" height="428" viewBox="0 0 428 428" fill="none" xmlns="http://www.w3.org/2000/svg">
<g clip-path="url(#clip0_25_1349)">
<path d="M81.1936 126.741C80.7377 126.65 78.7133 125.338 78.458 124.918V2.7889L81.6131 0.473908L372.138 -2.72999e-05C374.855 -0.0911687 378.321 1.09367 378.922 4.15602L378.977 57.8748L391.616 83.3032C402.194 87.5139 428 83.0298 428 99.8363C428 108.422 412.115 119.359 406.443 125.502C404.948 135.819 414.686 153.974 406.789 162.305C396.722 172.95 380.655 156.143 370.205 153.154C358.624 155.323 339.475 175.921 330.228 159.443C326.252 152.37 333.274 135.108 333.347 126.705H81.1936V126.741ZM369.804 10.0802H87.1209V116.716H323.298C318.355 109.534 309.911 107.456 311.498 97.1749C313.65 83.3214 337.104 87.6233 346.97 83.4126C354.338 73.9703 355.651 55.0129 369.804 53.8281V10.0802ZM399.877 155.888C401.646 154.685 396.467 132.921 396.266 129.001C395.993 123.551 396.941 121.674 400.352 117.627C403.762 113.58 415.854 105.177 417.714 101.222C418.389 99.7816 418.462 99.18 417.258 98.0317C413.975 94.8782 392.546 95.9901 386.272 91.6335C381.257 88.1337 376.515 72.0564 372.412 66.2962C371.591 65.1478 370.989 63.9265 369.366 63.8172C368.144 63.7443 367.816 64.5463 367.214 65.3484C361.396 73.1501 358.715 90.8679 348.192 93.7298C344.545 94.7141 322.477 96.5187 321.547 97.6306C321.2 99.2712 321.547 100.347 322.386 101.732C325.906 107.674 339.183 115.604 342.028 122.184C345.292 129.749 338.854 144.368 338.8 152.771C338.781 156.162 340.514 156.326 343.432 155.505C349.268 153.847 358.861 145.972 365.536 143.876C376.789 140.321 388.789 155.25 399.914 155.906L399.877 155.888Z" fill="url(#paint0_linear_25_1349)"/>
<path d="M81.4128 301.934L376.898 302.408L378.485 303.556L378.759 425.066L375.968 427.745L81.6317 428.019L78.4766 425.704V303.556L81.4128 301.952V301.934ZM369.804 311.759H87.1212V418.394H369.804V311.759Z" fill="url(#paint1_linear_25_1349)"/>
<path d="M300.3 275.995L2.97256 276.942L0.29163 274.153L0.0180664 154.959C0.875234 152.899 2.15187 151.222 4.57747 151.313L299.005 151.514L301.486 157.237C299.151 194.204 304.458 234.707 301.486 271.237C301.358 272.896 301.34 274.573 300.318 275.995H300.3ZM291.382 160.464H9.61104V268.011H291.382V160.464Z" fill="url(#paint2_linear_25_1349)"/>
<path d="M116.046 29.4027C134.429 30.3141 155.238 27.5069 173.348 29.1657C178.51 29.6396 179.713 30.7515 180.188 36.0013C181.428 49.5996 181.428 77.1607 180.188 90.7773C179.859 94.4594 179.276 97.066 175.172 97.6129C157.628 99.9825 134.849 95.7171 116.721 97.6129C113.985 97.5217 111.778 95.2979 111.705 92.6001C113.602 74.463 109.353 51.7323 111.705 34.1785C112.088 31.2802 113.292 30.2958 116.046 29.4027ZM170.102 39.2459H121.772V87.5509H170.102V39.2459Z" fill="url(#paint3_linear_25_1349)"/>
<path d="M208.146 29.4209L334.715 29.2021C340.022 29.2751 342.21 34.7618 338.417 38.4074L208.821 39.3006C202.966 38.9178 202.51 30.6786 208.146 29.4209Z" fill="url(#paint4_linear_25_1349)"/>
<path d="M208.146 58.5859L334.715 58.3672C340.022 58.4401 342.21 63.9268 338.417 67.5725L208.821 68.4657C202.966 68.0829 202.51 59.8437 208.146 58.5859Z" fill="url(#paint5_linear_25_1349)"/>
<path d="M208.146 87.751L290.944 87.5322C296.252 87.6051 298.44 93.0918 294.647 96.7375L208.821 97.6307C202.966 97.2479 202.51 89.0087 208.146 87.751Z" fill="url(#paint6_linear_25_1349)"/>
<path d="M115.134 331.08C124.18 332.246 173.458 328.564 177.926 331.736C179.732 333.012 180.005 335.673 180.188 337.678C181.355 350.566 181.628 380.734 180.169 393.329C179.622 398.05 177.762 398.889 173.349 399.272C159.67 400.493 132.205 400.511 118.545 399.272C114.861 398.944 112.253 398.36 111.705 394.259C109.335 376.723 113.602 353.956 111.705 335.837L115.134 331.062V331.08ZM170.102 340.923H121.773V389.228H170.102V340.923Z" fill="url(#paint7_linear_25_1349)"/>
<path d="M207.216 331.062L338.417 331.718C342.229 335.382 339.986 340.85 334.715 340.923H209.751C203.805 340.814 201.982 333.978 207.198 331.062H207.216Z" fill="url(#paint8_linear_25_1349)"/>
<path d="M207.216 360.228L338.417 360.884C342.229 364.548 339.986 370.016 334.715 370.089H209.751C203.805 369.98 201.982 363.144 207.198 360.228H207.216Z" fill="url(#paint9_linear_25_1349)"/>
<path d="M207.216 389.393L294.647 390.049C298.404 394.187 296.489 398.598 290.945 399.254C265.941 402.189 235.356 397.012 209.751 399.254C203.805 399.145 201.982 392.309 207.198 389.393H207.216Z" fill="url(#paint10_linear_25_1349)"/>
<path d="M36.6943 180.697L97.6444 180.479C100.216 180.479 101.766 182.046 101.748 184.58C100.289 203.319 103.553 224.591 101.748 243.002C101.42 246.392 101.328 247.522 97.6261 247.996C78.8779 246.538 57.5946 249.801 39.1746 247.996C37.6244 247.85 36.1472 248.069 35.0347 246.665L34.6699 182.32L36.6761 180.679L36.6943 180.697ZM44.7188 189.629L43.351 190.996V237.478L44.7188 238.845H91.2247L92.5925 237.478V190.996L91.2247 189.629H44.7188Z" fill="url(#paint11_linear_25_1349)"/>
<path d="M128.611 180.515H259.922C262.895 180.515 262.895 189.629 259.922 189.629H128.611C125.602 186.858 125.639 183.249 128.611 180.515Z" fill="url(#paint12_linear_25_1349)"/>
<path d="M128.611 209.68H259.922C262.895 209.68 262.895 218.794 259.922 218.794H128.611C125.602 216.023 125.639 212.414 128.611 209.68Z" fill="url(#paint13_linear_25_1349)"/>
<path d="M128.611 238.845H216.152C219.125 238.845 219.125 247.959 216.152 247.959H128.611C125.602 245.188 125.639 241.579 128.611 238.845Z" fill="url(#paint14_linear_25_1349)"/>
</g>
<defs>
<linearGradient id="paint0_linear_25_1349" x1="253.229" y1="-0.00488281" x2="253.229" y2="165.797" gradientUnits="userSpaceOnUse">
<stop stop-color="#FCBDA6"/>
<stop offset="1" stop-color="#8C3048"/>
</linearGradient>
<linearGradient id="paint1_linear_25_1349" x1="228.618" y1="301.934" x2="228.618" y2="428.019" gradientUnits="userSpaceOnUse">
<stop stop-color="#FCBDA6"/>
<stop offset="1" stop-color="#8C3048"/>
</linearGradient>
<linearGradient id="paint2_linear_25_1349" x1="151.217" y1="151.31" x2="151.217" y2="276.942" gradientUnits="userSpaceOnUse">
<stop stop-color="#FCBDA6"/>
<stop offset="1" stop-color="#8C3048"/>
</linearGradient>
<linearGradient id="paint3_linear_25_1349" x1="146.046" y1="28.6299" x2="146.046" y2="98.3507" gradientUnits="userSpaceOnUse">
<stop stop-color="#FCBDA6"/>
<stop offset="1" stop-color="#8C3048"/>
</linearGradient>
<linearGradient id="paint4_linear_25_1349" x1="272.244" y1="29.2021" x2="272.244" y2="39.3006" gradientUnits="userSpaceOnUse">
<stop stop-color="#FCBDA6"/>
<stop offset="1" stop-color="#8C3048"/>
</linearGradient>
<linearGradient id="paint5_linear_25_1349" x1="272.244" y1="58.3672" x2="272.244" y2="68.4657" gradientUnits="userSpaceOnUse">
<stop stop-color="#FCBDA6"/>
<stop offset="1" stop-color="#8C3048"/>
</linearGradient>
<linearGradient id="paint6_linear_25_1349" x1="250.359" y1="87.5322" x2="250.359" y2="97.6307" gradientUnits="userSpaceOnUse">
<stop stop-color="#FCBDA6"/>
<stop offset="1" stop-color="#8C3048"/>
</linearGradient>
<linearGradient id="paint7_linear_25_1349" x1="146.066" y1="330.413" x2="146.066" y2="400.195" gradientUnits="userSpaceOnUse">
<stop stop-color="#FCBDA6"/>
<stop offset="1" stop-color="#8C3048"/>
</linearGradient>
<linearGradient id="paint8_linear_25_1349" x1="272.227" y1="331.062" x2="272.227" y2="340.923" gradientUnits="userSpaceOnUse">
<stop stop-color="#FCBDA6"/>
<stop offset="1" stop-color="#8C3048"/>
</linearGradient>
<linearGradient id="paint9_linear_25_1349" x1="272.227" y1="360.228" x2="272.227" y2="370.089" gradientUnits="userSpaceOnUse">
<stop stop-color="#FCBDA6"/>
<stop offset="1" stop-color="#8C3048"/>
</linearGradient>
<linearGradient id="paint10_linear_25_1349" x1="250.363" y1="389.393" x2="250.363" y2="400.181" gradientUnits="userSpaceOnUse">
<stop stop-color="#FCBDA6"/>
<stop offset="1" stop-color="#8C3048"/>
</linearGradient>
<linearGradient id="paint11_linear_25_1349" x1="68.4891" y1="180.479" x2="68.4891" y2="248.556" gradientUnits="userSpaceOnUse">
<stop stop-color="#FCBDA6"/>
<stop offset="1" stop-color="#8C3048"/>
</linearGradient>
<linearGradient id="paint12_linear_25_1349" x1="194.26" y1="180.515" x2="194.26" y2="189.629" gradientUnits="userSpaceOnUse">
<stop stop-color="#FCBDA6"/>
<stop offset="1" stop-color="#8C3048"/>
</linearGradient>
<linearGradient id="paint13_linear_25_1349" x1="194.26" y1="209.68" x2="194.26" y2="218.794" gradientUnits="userSpaceOnUse">
<stop stop-color="#FCBDA6"/>
<stop offset="1" stop-color="#8C3048"/>
</linearGradient>
<linearGradient id="paint14_linear_25_1349" x1="172.375" y1="238.845" x2="172.375" y2="247.959" gradientUnits="userSpaceOnUse">
<stop stop-color="#FCBDA6"/>
<stop offset="1" stop-color="#8C3048"/>
</linearGradient>
<clipPath id="clip0_25_1349">
<rect width="428" height="428" fill="white"/>
</clipPath>
</defs>
</svg>
