<svg width="213" height="216" viewBox="0 0 213 216" fill="none" xmlns="http://www.w3.org/2000/svg">
<g filter="url(#filter0_i_101_16)">
<g filter="url(#filter1_b_101_16)">
<rect width="212.451" height="215.502" rx="20" fill="#8C3048"/>
</g>
</g>
<g clip-path="url(#clip0_101_16)">
<path d="M119.544 61.1933C119.401 56.9935 119.593 52.9905 120.507 48.8891C120.843 47.3852 121.976 42.9885 122.978 42.048C124.618 40.5113 127.281 41.7253 129.466 41.3808C135.321 40.4566 139.696 35.5787 146.658 36.0271C152.365 36.3935 157.009 40.6097 161.907 41.3808C164.499 41.7909 167.597 40.1722 169.133 42.9503C171.631 47.4837 172.391 58.3934 171.824 63.5065C170.36 76.6802 162.744 87.229 151.825 94.3983C156.58 107.227 156.398 121.55 151.556 134.335C153.894 137.222 159.023 139.798 155.733 144.042L143.086 156.625C141.424 157.576 139.487 156.171 139.961 154.344L152.541 141.395L141.969 130.638L111.311 161.158L121.883 171.915L134.6 159.671C136.439 159.2 137.853 161.125 136.895 162.777L123.677 175.617C119.109 177.662 116.225 170.821 112.863 168.973C103.133 171.63 92.5839 171.521 82.8434 168.973C79.7451 171.051 76.5973 177.575 72.2168 175.611L39.3355 142.948C37.7011 139.18 42.4338 136.894 44.3324 134.34C37.481 116.655 40.106 96.4763 51.0792 81.066C66.378 59.5856 94.8402 51.1038 119.538 61.1933H119.544ZM144.523 40.216C138.282 40.8722 132.597 46.9204 125.856 45.4494C122.84 53.9147 122.769 63.7635 125.939 72.196C129.35 81.2574 137.115 88.793 145.821 92.8999C154.098 88.6618 161.439 81.8644 165.071 73.2131C167.861 66.5689 168.434 59.2027 167.339 52.1101C167.19 51.1367 166.04 45.8103 165.506 45.4494C158.022 46.9423 151.781 39.4504 144.517 40.216H144.523ZM148.435 130.917C152.051 119.767 152.1 107.862 148.298 96.7388L147.803 96.4982C145.755 97.909 144.374 96.9356 142.475 95.9622C131.084 90.1164 122.015 78.534 119.957 65.8416C95.6877 54.7732 66.9668 63.583 52.8457 85.8236C44.3599 99.1832 42.4008 115.906 47.4582 130.917C49.5824 130.042 50.727 127.007 53.1594 126.608C55.5918 126.209 56.2137 127.461 58.0077 128.708L63.3898 123.157C63.3182 122.742 58.503 118.432 57.7656 117.519C53.9574 112.805 56.4448 106.128 62.1956 104.679C60.4566 99.0957 64.0226 93.6436 70.0321 93.6108C70.4338 93.3374 70.2577 91.8882 70.4118 91.2538C71.2703 87.6665 74.8583 85.1181 78.5454 85.2549C78.3473 81.7276 81.0328 77.9051 84.5824 77.1724C86.2994 76.8169 87.4 76.888 89.3206 76.4122C91.2412 75.9365 101.235 75.9583 103.42 76.2536C105.373 76.5216 106.826 77.9161 108.163 79.1957C113.909 76.1497 120.589 80.1527 120.369 86.622C124.948 86.1626 129.141 90.2422 128.624 94.8248C133.384 94.6717 137.468 98.4997 137.154 103.301C144.297 102.978 148.001 110.859 143.631 116.431C142.619 117.722 134.87 124.661 134.975 125.274L138.155 128.434C140.027 126.947 141.237 125.826 143.763 126.947C144.737 127.379 147.973 131.245 148.435 130.912V130.917ZM91.5714 86.529C93.0407 87.8907 97.1571 88.4758 98.9841 87.9344C99.3913 87.8141 105.01 82.2964 104.933 81.8753C104.333 81.0277 103.64 80.5082 102.589 80.3605C98.9676 79.8465 94.2844 80.6558 90.5478 80.3715C89.8709 80.5902 90.0085 83.3245 90.113 84.008C90.2176 84.6916 91.0871 86.0806 91.5659 86.529H91.5714ZM85.9747 81.1535C82.7278 81.8862 81.8363 84.9049 83.7734 87.579C85.1162 89.4273 96.0234 100.299 97.8229 101.507C101.879 104.225 106.127 99.8723 103.304 96.0607C102.968 95.6068 99.5344 92.2327 99.2593 92.1507C98.1696 91.828 95.9519 92.2054 94.6421 92.0905C88.9684 91.5929 85.1822 86.7642 85.9692 81.1589L85.9747 81.1535ZM101.659 141.313L113.067 152.808L113.76 152.944L135.101 131.737C135.283 131.53 135.211 131.404 135.101 131.196C134.991 130.988 132.234 128.243 132.019 128.205C130.115 129.058 127.589 134.149 125.311 131.612C124.376 130.567 124.706 129.714 125.449 128.73C129.136 123.824 136.136 119.165 140.043 114.249C142.674 110.935 140.852 106.577 136.527 107.474C135.151 107.758 133.065 110.634 131.634 108.108C130.6 106.281 132.135 105.778 132.674 104.466C133.791 101.732 131.821 98.6637 128.789 98.9426C126.808 99.1285 125.196 102.092 123.385 99.8941C121.877 98.0622 123.946 97.3294 124.365 95.9349C125.443 92.3475 122.18 89.4492 118.795 91.221C117.645 91.8226 117.453 92.8397 115.758 92.1616C113.006 91.0624 115.554 88.6672 115.978 87.3274C117.133 83.6635 113.221 80.8636 110.045 83.0674C107.734 84.6752 105.373 88.2297 103.034 90.0398C104.229 91.489 106.221 92.796 107.211 94.36C110.15 98.9973 107.151 106.117 101.383 106.309C102.688 113.166 96.7278 118.148 90.1075 115.879C88.9794 121.287 83.08 123.403 78.2703 121.074C77.3678 126.417 71.3308 128.265 66.6311 126.307L60.9409 131.874L82.0234 152.769C88.6107 147.711 93.2994 139.071 101.879 137.015C106.518 135.904 110.568 137.288 115.086 136.194C116.897 135.757 121.041 132.858 121.696 136.041C122.295 138.934 115.483 140.531 113.314 140.728C110.904 140.946 108.67 140.465 106.468 140.465C105.913 140.465 101.802 141.116 101.653 141.313H101.659ZM77.6539 89.4164C74.6217 89.8539 73.4495 93.3538 75.2435 95.7818C79.1123 101.01 86.6736 106.145 90.9495 111.345C94.8182 114.369 99.3308 109.825 96.4306 105.899C92.5179 100.611 84.8851 95.4755 80.6146 90.1711C79.7011 89.5367 78.7711 89.2524 77.6594 89.4109L77.6539 89.4164ZM68.8434 97.8981C66.2899 98.3684 64.9747 101.961 66.7137 103.985L79.9432 117.087C83.834 119.668 88.1264 115.463 85.4299 111.635C84.1036 109.754 74.297 100.069 72.3544 98.6528C71.2207 97.827 70.2522 97.6411 68.8434 97.8981ZM62.7844 108.835C60.1209 109.382 59.4495 112.827 60.9299 114.927C61.5187 115.758 67.7868 121.965 68.5407 122.403C72.459 124.683 76.3001 120.237 73.5871 116.568C72.7836 115.479 67.4731 110.175 66.4165 109.475C65.2939 108.731 64.1217 108.562 62.7844 108.835ZM53.9189 130.649L43.3473 141.406L74.0053 171.926L84.5769 161.169L53.9189 130.649ZM109.638 165.642C107.855 163.827 105.946 161.721 107.586 159.091C107.998 158.429 110.541 156.51 110.442 155.974L97.9 143.539L85.1657 155.701C85.0446 156.384 88.4621 158.555 88.7042 160.053C89.1555 162.832 87.9503 163.816 86.2443 165.642C93.9377 167.168 101.939 167.212 109.633 165.642H109.638Z" fill="white"/>
<path d="M136.978 55.2766C125.13 67.3948 144.903 84.4621 155.271 71.4033C156.619 69.7026 156.9 66.93 159.315 67.1925C163.107 67.6081 159.381 72.929 158.209 74.3235C150.439 83.5872 135.135 81.1427 130.616 70.0143C123.534 52.5696 146.801 39.2975 158.336 53.4063C159.458 54.7789 162.953 60.1272 160.477 61.2646C157.637 62.5661 157.263 59.3834 156.256 57.6608C152.26 50.847 142.553 49.5729 136.978 55.2766Z" fill="white"/>
<path d="M154.131 58.8088C154.951 59.7658 154.61 60.9525 153.939 61.8767C153.124 63.0086 147.511 68.5866 146.372 69.3959C144.996 70.3748 144.226 70.2381 142.922 69.2647C141.964 68.5483 137.044 63.5555 136.885 62.6805C136.598 61.0947 137.837 59.815 139.422 60.1486C140.907 60.4548 143.362 64.343 144.952 65.0047C145.673 64.8789 150.279 59.2025 151.628 58.4971C152.464 58.0596 153.488 58.0706 154.126 58.8143L154.131 58.8088Z" fill="white"/>
</g>
<defs>
<filter id="filter0_i_101_16" x="0" y="0" width="212.452" height="219.502" filterUnits="userSpaceOnUse" color-interpolation-filters="sRGB">
<feFlood flood-opacity="0" result="BackgroundImageFix"/>
<feBlend mode="normal" in="SourceGraphic" in2="BackgroundImageFix" result="shape"/>
<feColorMatrix in="SourceAlpha" type="matrix" values="0 0 0 0 0 0 0 0 0 0 0 0 0 0 0 0 0 0 127 0" result="hardAlpha"/>
<feOffset dy="4"/>
<feGaussianBlur stdDeviation="2"/>
<feComposite in2="hardAlpha" operator="arithmetic" k2="-1" k3="1"/>
<feColorMatrix type="matrix" values="0 0 0 0 0 0 0 0 0 0 0 0 0 0 0 0 0 0 0.25 0"/>
<feBlend mode="normal" in2="shape" result="effect1_innerShadow_101_16"/>
</filter>
<filter id="filter1_b_101_16" x="-60" y="-60" width="332.452" height="335.502" filterUnits="userSpaceOnUse" color-interpolation-filters="sRGB">
<feFlood flood-opacity="0" result="BackgroundImageFix"/>
<feGaussianBlur in="BackgroundImageFix" stdDeviation="30"/>
<feComposite in2="SourceAlpha" operator="in" result="effect1_backgroundBlur_101_16"/>
<feBlend mode="normal" in="SourceGraphic" in2="effect1_backgroundBlur_101_16" result="shape"/>
</filter>
<clipPath id="clip0_101_16">
<rect width="133" height="140" fill="white" transform="translate(39 36)"/>
</clipPath>
</defs>
</svg>
