<svg width="425" height="448" viewBox="0 0 425 448" fill="none" xmlns="http://www.w3.org/2000/svg">
<g clip-path="url(#clip0_25_1284)">
<path d="M214.109 426.821C214.468 426.601 216.266 421.89 218.604 419.834C225.577 413.746 234.908 414.624 241.062 421.331C242.68 423.088 243.4 426.641 245.537 426.9L334.51 426.861C370.714 424.745 372.312 375.858 334.51 372.884C292.751 369.61 246.776 375.459 204.558 372.884C199.883 373.503 198.804 379.252 194.468 381.767C188.993 384.961 181.92 384.442 176.785 380.769C173.668 378.553 172.53 373.463 169.652 372.924L35.8846 372.824C7.43276 367.854 -8.61138 337.253 4.79537 311.023C21.0993 279.124 56.3444 290.083 85.5755 287.927C92.5287 274.513 109.552 273.515 116.185 287.608H299.025C306.537 273.814 322.981 273.954 329.654 288.127C348.296 285.891 376.848 294.934 389.375 277.048C400.225 261.538 391.933 240.438 373.991 235.648L245.557 235.188C239.024 241.177 236.746 246.347 226.556 245.189C218.284 244.251 216.027 236.246 213.429 235.348C208.814 233.771 192.21 235.707 185.637 235.169C130.191 230.657 130.251 153.625 185.637 149.353C198.164 148.395 211.751 150.032 224.378 149.353C230.692 135.999 248.834 135.4 254.708 149.373C260.183 150.072 277.166 146.379 277.126 154.823C277.086 163.267 260.383 159.374 254.668 160.252C248.774 174.884 230.712 174.345 224.418 160.252C203.459 162.368 176.785 153.405 161.64 172.269C145.616 192.211 158.464 221.674 183.639 224.17C187.675 224.569 210.872 224.868 213.449 224.03C214.768 223.591 216.386 219.319 218.764 217.363C224.998 212.173 234.029 212.173 240.023 217.762C242.46 220.038 242.84 223.671 245.577 224.19L370.494 224.15C399.745 227.104 415.709 260.719 396.908 284.554C380.404 305.474 352.911 297.529 329.694 299.026C323.88 310.584 310.253 313.139 301.562 302.978C300.263 301.481 300.723 298.766 298.565 298.966L116.205 299.545C111.73 306.851 105.736 310.604 96.9443 308.787C90.7504 307.51 87.4337 299.545 84.7364 299.026C61.9589 301.561 28.7917 290.363 15.1052 314.317C2.89725 335.656 16.9633 360.288 40.8997 362.784L169.652 362.903C172.53 362.364 173.629 357.534 176.186 355.458C181.281 351.286 188.734 350.727 194.488 354.08C198.164 356.216 200.602 362.304 203.639 362.903L344.779 363.622C384.26 374.8 381.243 430.374 340.524 436.821L244.778 436.762C237.386 450.176 225.377 451.992 215.427 439.896C214.548 438.818 214.268 436.781 214.089 436.781H162.639C159.383 436.781 159.383 426.801 162.639 426.801H214.089L214.109 426.821ZM238.824 149.513C231.931 150.551 233.489 161.39 240.542 160.352C247.595 159.314 245.977 148.415 238.824 149.513ZM232.85 225.447C228.714 221.295 220.862 227.044 225.018 232.753C229.533 238.981 237.745 230.378 232.85 225.447ZM104.976 289.325C100.84 285.173 92.9882 290.922 97.1441 296.631C101.66 302.859 109.872 294.255 104.976 289.325ZM312.731 288.267C307.476 289.804 307.796 298.168 313.65 298.806C322.142 299.725 321.203 285.811 312.731 288.267ZM182.38 371.686C187.315 376.577 195.926 368.393 189.693 363.861C183.978 359.709 178.204 367.554 182.38 371.686ZM226.796 427C222.82 428.198 222.78 436.003 227.635 436.781C237.166 438.339 236.227 424.166 226.796 427Z" fill="url(#paint0_linear_25_1284)"/>
<path d="M320.004 3.13375C321.522 1.35716 323.241 0.878077 325.479 0.618575C342.122 -1.31771 362.382 2.07578 379.425 0.658498C384.141 1.57674 384.28 7.7449 383.941 11.6175C385.24 12.9549 415.949 10.8789 421.464 11.5576C422.862 11.7372 424.061 11.7971 425.02 12.9948V84.0584C424.061 85.2761 422.862 85.336 421.464 85.4957C407.797 87.2124 390.554 84.1183 376.468 85.4557C372.312 84.6772 372.892 78.7686 372.972 75.4749H330.014V137.855L331.513 139.352H348.496C353.111 139.352 352.512 162.029 351.932 165.742C351.213 170.293 348.636 170.972 344.54 171.331C334.709 172.229 315.309 172.229 305.478 171.331C301.422 170.972 298.805 170.313 298.086 165.742C297.466 161.829 296.947 139.352 301.522 139.352H318.505L320.004 137.855V3.13375ZM372.952 11.6175H329.994V64.5159H372.952V11.6175ZM383.941 75.4948H414.411L415.909 73.9977V23.0954L414.411 21.5983H383.941V75.4948ZM340.983 149.353H309.015V160.332H340.983V149.353Z" fill="url(#paint1_linear_25_1284)"/>
</g>
<defs>
<linearGradient id="paint0_linear_25_1284" x1="202.508" y1="139.114" x2="202.508" y2="447.985" gradientUnits="userSpaceOnUse">
<stop stop-color="#DD968C"/>
<stop offset="1" stop-color="#8C3048"/>
</linearGradient>
<linearGradient id="paint1_linear_25_1284" x1="361.352" y1="0.00488281" x2="361.352" y2="172.005" gradientUnits="userSpaceOnUse">
<stop stop-color="#DD968C"/>
<stop offset="1" stop-color="#8C3048"/>
</linearGradient>
<clipPath id="clip0_25_1284">
<rect width="425" height="448" fill="white"/>
</clipPath>
</defs>
</svg>
