<svg width="1515" height="1481" viewBox="0 0 1515 1481" fill="none" xmlns="http://www.w3.org/2000/svg">
<g clip-path="url(#clip0_36_40)">
<path d="M1274.92 1479.08H1186.4V700.55L1274.03 696.124L1274.92 1479.08Z" fill="black"/>
<path d="M1512.28 1479.08H1274.92C1274.43 1479.08 1274.03 1478.68 1274.03 1478.2V697.042C1274.03 696.537 1274.45 696.14 1274.95 696.157L1512.31 705.125C1512.79 705.141 1513.16 705.53 1513.16 706.01V1478.2C1513.16 1478.68 1512.76 1479.08 1512.28 1479.08Z" fill="white"/>
<path d="M1512.28 1480.91H1274.92C1273.42 1480.91 1272.2 1479.69 1272.2 1478.2V697.042C1272.2 696.306 1272.51 695.594 1273.04 695.081C1273.57 694.568 1274.27 694.271 1275.03 694.328L1512.38 703.288C1513.85 703.346 1515 704.537 1515 706.002V1478.19C1515 1479.68 1513.78 1480.9 1512.28 1480.9L1512.28 1480.91ZM1275.86 1477.24H1511.33V706.912L1275.86 698.018V1477.24Z" fill="black"/>
<path d="M1434.37 1072.76C1433.36 1072.76 1432.54 1071.95 1432.54 1070.94V754.787C1432.54 753.778 1433.36 752.959 1434.37 752.959C1435.38 752.959 1436.2 753.778 1436.2 754.787V1070.94C1436.2 1071.95 1435.38 1072.76 1434.37 1072.76Z" fill="black"/>
<path d="M1359.29 960.113C1358.28 960.113 1357.46 959.294 1357.46 958.285V865.016C1357.46 864.006 1358.28 863.188 1359.29 863.188C1360.3 863.188 1361.12 864.006 1361.12 865.016V958.285C1361.12 959.294 1360.3 960.113 1359.29 960.113Z" fill="black"/>
<path d="M1359.29 1279.93C1358.28 1279.93 1357.46 1279.12 1357.46 1278.11V1117.17C1357.46 1116.16 1358.28 1115.34 1359.29 1115.34C1360.3 1115.34 1361.12 1116.16 1361.12 1117.17V1278.11C1361.12 1279.12 1360.3 1279.93 1359.29 1279.93Z" fill="black"/>
<path d="M846.088 1479.16H704.541V897.95L845.318 878.145L846.088 1479.16Z" fill="black"/>
<path d="M1228.03 1479.16H846.751C845.964 1479.16 845.327 1478.86 845.327 1478.49V878.848C845.327 878.459 845.997 878.153 846.809 878.17L1228.09 885.053C1228.85 885.069 1229.46 885.367 1229.46 885.731V1478.49C1229.46 1478.86 1228.83 1479.16 1228.04 1479.16H1228.03Z" fill="white"/>
<path d="M1228.03 1481H846.751C844.863 1481 843.497 1479.95 843.497 1478.49V878.856C843.497 878.26 843.745 877.69 844.184 877.251C844.788 876.655 845.757 876.316 846.833 876.341L1228.12 883.224C1229.98 883.257 1231.29 884.291 1231.29 885.731V1478.48C1231.29 1479.94 1229.93 1480.99 1228.04 1480.99L1228.03 1481ZM847.148 1477.33H1227.62V886.873L847.148 880.006V1477.33Z" fill="black"/>
<path d="M1037.47 1192.64C1036.46 1192.64 1035.64 1191.82 1035.64 1190.81V924.589C1035.64 923.58 1036.46 922.761 1037.47 922.761C1038.48 922.761 1039.3 923.58 1039.3 924.589V1190.81C1039.3 1191.82 1038.48 1192.64 1037.47 1192.64Z" fill="black"/>
<path d="M936.813 1013.28C935.803 1013.28 934.983 1012.46 934.983 1011.45V966.077C934.983 965.068 935.803 964.249 936.813 964.249C937.823 964.249 938.643 965.068 938.643 966.077V1011.45C938.643 1012.46 937.823 1013.28 936.813 1013.28Z" fill="black"/>
<path d="M936.813 1314.38C935.803 1314.38 934.983 1313.56 934.983 1312.55V1086.51C934.983 1085.51 935.803 1084.69 936.813 1084.69C937.823 1084.69 938.643 1085.51 938.643 1086.51V1312.55C938.643 1313.56 937.823 1314.38 936.813 1314.38Z" fill="black"/>
<path d="M1138.14 1102.75C1137.13 1102.75 1136.31 1101.93 1136.31 1100.92V1055.54C1136.31 1054.53 1137.13 1053.71 1138.14 1053.71C1139.15 1053.71 1139.97 1054.53 1139.97 1055.54V1100.92C1139.97 1101.93 1139.15 1102.75 1138.14 1102.75Z" fill="black"/>
<path d="M327.087 1479.16H153.835V1145.11L327.087 1131.37V1479.16Z" fill="black"/>
<path d="M799.836 1479.16H327.087V1132.09C327.087 1131.69 327.998 1131.37 329.107 1131.39L799.836 1137.09V1479.16Z" fill="white"/>
<path d="M799.836 1481H327.087C326.077 1481 325.257 1480.18 325.257 1479.17V1132.1C325.257 1131.53 325.489 1130.97 325.919 1130.55C326.847 1129.63 328.445 1129.54 329.124 1129.57L799.853 1135.27C800.854 1135.29 801.666 1136.1 801.666 1137.1V1479.17C801.666 1480.18 800.846 1481 799.836 1481ZM328.917 1477.33H797.998V1138.91L329.074 1133.22C329.016 1133.22 328.966 1133.22 328.908 1133.22V1477.33H328.917Z" fill="black"/>
<path d="M452.753 1381.96C451.743 1381.96 450.923 1381.14 450.923 1380.14V1172.92C450.923 1171.91 451.743 1171.1 452.753 1171.1C453.763 1171.1 454.583 1171.91 454.583 1172.92V1380.14C454.583 1381.14 453.763 1381.96 452.753 1381.96Z" fill="black"/>
<path d="M700.525 1406.2C699.515 1406.2 698.695 1405.38 698.695 1404.37V1197.16C698.695 1196.15 699.515 1195.33 700.525 1195.33C701.535 1195.33 702.355 1196.15 702.355 1197.16V1404.37C702.355 1405.38 701.535 1406.2 700.525 1406.2Z" fill="black"/>
<path d="M576.639 1325.01C575.629 1325.01 574.809 1324.19 574.809 1323.19V1280.77C574.809 1279.76 575.629 1278.94 576.639 1278.94C577.649 1278.94 578.469 1279.76 578.469 1280.77V1323.19C578.469 1324.19 577.649 1325.01 576.639 1325.01Z" fill="black"/>
<path d="M76.549 1479.16H0V1313.49L75.8287 1301.12L76.549 1479.16Z" fill="black"/>
<path d="M282.011 1479.16H76.5495C76.152 1479.16 75.8291 1478.9 75.8291 1478.57V1301.73C75.8291 1301.39 76.1603 1301.12 76.566 1301.13L282.035 1303.9C282.433 1303.9 282.747 1304.17 282.747 1304.5V1478.56C282.747 1478.89 282.425 1479.15 282.027 1479.15L282.011 1479.16Z" fill="white"/>
<path d="M282.01 1481H76.5493C75.1417 1481 73.999 1479.91 73.999 1478.58V1301.74C73.999 1301.11 74.2557 1300.51 74.7111 1300.05C75.1996 1299.57 75.9117 1299.32 76.5907 1299.32L282.06 1302.09C283.451 1302.11 284.577 1303.2 284.577 1304.51V1478.58C284.577 1479.92 283.434 1481 282.027 1481H282.01ZM77.6588 1477.33H280.901V1305.72L77.6588 1302.98V1477.33Z" fill="black"/>
<path d="M220.2 1438.92C219.189 1438.92 218.37 1438.1 218.37 1437.09V1331.67C218.37 1330.66 219.189 1329.84 220.2 1329.84C221.21 1329.84 222.029 1330.66 222.029 1331.67V1437.09C222.029 1438.1 221.21 1438.92 220.2 1438.92Z" fill="black"/>
<path d="M155.234 1401.36C154.224 1401.36 153.404 1400.54 153.404 1399.53V1368.42C153.404 1367.41 154.224 1366.59 155.234 1366.59C156.244 1366.59 157.064 1367.41 157.064 1368.42V1399.53C157.064 1400.54 156.244 1401.36 155.234 1401.36Z" fill="black"/>
<path d="M42.4185 1224.21L43.9751 1252.97L63.2097 1256.22L64.9236 1222.29L42.4185 1224.21Z" fill="white"/>
<path d="M63.2099 1258.05C63.1105 1258.05 63.0029 1258.04 62.9035 1258.02L43.669 1254.78C42.8244 1254.64 42.1951 1253.93 42.1454 1253.07L40.5805 1224.31C40.5308 1223.32 41.2677 1222.47 42.2531 1222.39L64.7582 1220.47C65.2799 1220.42 65.8015 1220.61 66.1907 1220.97C66.5716 1221.34 66.7703 1221.86 66.7454 1222.38L65.0315 1256.31C65.0066 1256.83 64.7582 1257.32 64.3525 1257.64C64.0213 1257.9 63.6239 1258.05 63.2099 1258.05ZM45.7224 1251.41L61.4793 1254.07L62.978 1224.28L44.3314 1225.87L45.7141 1251.4L45.7224 1251.41Z" fill="black"/>
<path d="M63.7478 1304.85C55.6251 1305.58 42.3439 1307.24 26.9264 1304.31C21.8839 1303.35 18.7623 1298.24 20.2444 1293.33C24.3596 1279.61 31.5798 1253.55 42.3108 1241.85L44.6375 1247.57L48.2724 1242.53C48.794 1241.71 49.6717 1241.17 50.6488 1241.09L58.2913 1240.51C59.8893 1240.39 61.3135 1241.52 61.5619 1243.1L61.7772 1246.55L66.9025 1241.57L68.2108 1271.98C68.4674 1277.91 69.1381 1282.49 70.2311 1288.32L71.5807 1295.55C71.9616 1300.27 68.484 1304.44 63.7644 1304.86L63.7478 1304.85Z" fill="white"/>
<path d="M45.4408 1307.81C39.7358 1307.81 33.3602 1307.39 26.5788 1306.1C23.6643 1305.55 21.1057 1303.77 19.5656 1301.24C18.0255 1298.71 17.6364 1295.63 18.4809 1292.8L19.3669 1289.82C23.5897 1275.61 30.6692 1251.82 40.9447 1240.61C41.367 1240.14 41.9963 1239.93 42.6173 1240.04C43.2383 1240.15 43.7516 1240.57 43.9918 1241.16L45.0682 1243.82L46.7656 1241.46C47.5191 1240.24 48.935 1239.38 50.4916 1239.27L58.1341 1238.69C60.5767 1238.52 62.7626 1240.17 63.2926 1242.51L65.611 1240.26C66.1326 1239.75 66.8944 1239.61 67.5651 1239.87C68.2357 1240.13 68.6829 1240.77 68.716 1241.49L70.0242 1271.9C70.2809 1277.8 70.9433 1282.27 72.0114 1287.98L73.3611 1295.2C73.3694 1295.26 73.3776 1295.32 73.3859 1295.39C73.8496 1301.1 69.5937 1306.16 63.9053 1306.67L61.7359 1306.87C57.364 1307.29 51.8164 1307.81 45.4408 1307.81V1307.81ZM41.7479 1245.36C33.029 1256.74 26.7444 1277.89 22.8776 1290.87L21.9917 1293.86C21.4286 1295.73 21.677 1297.67 22.6955 1299.34C23.6974 1301 25.3617 1302.15 27.2661 1302.51C41.1269 1305.14 53.3234 1304 61.3964 1303.24L63.5824 1303.04C67.2504 1302.71 69.9911 1299.47 69.7427 1295.79L68.4179 1288.66C67.3498 1282.94 66.6294 1278.16 66.3727 1272.07L65.2384 1245.73L63.0359 1247.87C62.5225 1248.37 61.7607 1248.51 61.0983 1248.27C60.4277 1248.01 59.9723 1247.39 59.9309 1246.67L59.7156 1243.22C59.6328 1242.76 59.0697 1242.3 58.4073 1242.34L50.7648 1242.92C50.3674 1242.96 50.0114 1243.17 49.8044 1243.5L46.1032 1248.65C45.714 1249.18 45.0599 1249.47 44.3975 1249.39C43.7351 1249.31 43.172 1248.88 42.9154 1248.26L41.7396 1245.35L41.7479 1245.36Z" fill="black"/>
<path d="M46.2524 1299.04C39.8437 1299.04 32.4993 1298.39 25.2625 1296.35C24.2855 1296.08 23.7224 1295.07 23.9957 1294.09C24.2689 1293.11 25.2874 1292.56 26.2561 1292.82C44.8034 1298.04 64.7666 1293.54 64.9654 1293.49C65.9424 1293.26 66.936 1293.88 67.1596 1294.87C67.3914 1295.85 66.7787 1296.84 65.7934 1297.06C65.2634 1297.18 57.0827 1299.04 46.2524 1299.04Z" fill="black"/>
<path d="M56.354 1277.73H56.3209L38.1544 1277.42C37.1443 1277.4 36.3411 1276.57 36.3577 1275.56C36.3742 1274.55 37.1443 1273.79 38.2207 1273.76L56.3871 1274.08C57.3973 1274.09 58.2004 1274.93 58.1839 1275.94C58.1673 1276.94 57.3476 1277.73 56.354 1277.73Z" fill="black"/>
<path d="M131.984 1217.2L132.779 1259.1L156.062 1260.28L159.25 1218.58L131.984 1217.2Z" fill="white"/>
<path d="M156.062 1262.11C156.062 1262.11 155.996 1262.11 155.971 1262.11L132.688 1260.93C131.727 1260.88 130.965 1260.1 130.949 1259.14L130.154 1217.24C130.146 1216.73 130.344 1216.24 130.709 1215.89C131.073 1215.53 131.57 1215.34 132.075 1215.37L159.341 1216.75C159.838 1216.77 160.293 1217 160.625 1217.37C160.956 1217.74 161.113 1218.23 161.08 1218.72L157.892 1260.42C157.818 1261.38 157.015 1262.11 156.071 1262.11H156.062ZM134.576 1257.37L154.373 1258.37L157.279 1220.32L133.855 1219.14L134.576 1257.38V1257.37Z" fill="black"/>
<path d="M125.501 1282.38C125.244 1286.32 127.77 1289.93 131.57 1291.01C144.802 1294.8 174.601 1303.26 183.138 1304.97C194.217 1307.19 208.111 1304.46 214.337 1298.24C220.564 1292.01 202.249 1275.45 193.463 1269.32C180.414 1260.21 168.317 1242.91 162.927 1241.89C157.536 1240.86 146.615 1256.09 146.615 1256.09L130.411 1248.31C130.411 1248.31 126.809 1262.35 125.501 1282.37V1282.38Z" fill="white"/>
<path d="M191.145 1307.57C188.313 1307.57 185.481 1307.31 182.782 1306.76C174.477 1305.09 146.822 1297.28 131.073 1292.77C126.478 1291.45 123.373 1287.03 123.679 1282.24C124.979 1262.28 128.606 1247.99 128.639 1247.85C128.771 1247.32 129.144 1246.88 129.641 1246.65C130.137 1246.41 130.709 1246.42 131.206 1246.65L146.035 1253.79C149.538 1249.09 157.76 1239.04 163.266 1240.09C166.396 1240.68 170.213 1244.55 176.688 1251.35C182.062 1256.99 188.156 1263.38 194.507 1267.82C200.187 1271.78 216.581 1285.16 217.393 1294.34C217.575 1296.39 216.962 1298.18 215.621 1299.53C210.62 1304.52 200.841 1307.56 191.128 1307.56L191.145 1307.57ZM127.331 1282.49C127.132 1285.56 129.127 1288.41 132.075 1289.25C144.71 1292.87 175.015 1301.47 183.502 1303.17C194.208 1305.33 207.465 1302.53 213.046 1296.94C213.41 1296.58 213.874 1295.95 213.758 1294.67C213.203 1288.45 201.015 1276.83 192.42 1270.83C185.763 1266.19 179.536 1259.65 174.047 1253.88C169.459 1249.07 164.715 1244.1 162.595 1243.69C160.07 1243.18 153.065 1250.27 148.113 1257.17C147.592 1257.89 146.631 1258.13 145.828 1257.75L131.678 1250.95C130.643 1255.62 128.316 1267.39 127.331 1282.48V1282.49Z" fill="black"/>
<path d="M191.931 1296.81C169.352 1296.81 135.685 1284.51 133.905 1283.86C132.953 1283.51 132.472 1282.45 132.82 1281.51C133.168 1280.56 134.228 1280.08 135.172 1280.42C135.702 1280.62 188.826 1300.03 204.765 1290.69C205.635 1290.18 206.761 1290.47 207.274 1291.34C207.788 1292.21 207.49 1293.34 206.62 1293.85C203.002 1295.97 197.843 1296.81 191.931 1296.81Z" fill="black"/>
<path d="M164.582 1273.25C164.052 1273.25 163.523 1273.02 163.158 1272.58C162.521 1271.8 162.637 1270.65 163.423 1270.01L175.802 1259.92C176.588 1259.29 177.739 1259.4 178.377 1260.19C179.014 1260.97 178.899 1262.12 178.112 1262.76L165.733 1272.85C165.394 1273.12 164.98 1273.26 164.574 1273.26L164.582 1273.25Z" fill="black"/>
<path d="M87.3705 879.683C68.2519 877.93 51.3523 892.043 49.6881 911.17C44.72 968.171 34.8916 1078.66 30.4701 1111.47C24.4256 1156.34 33.3764 1229.4 33.3764 1229.4L69.4111 1229.33C69.4111 1229.33 74.5033 1164.48 78.4115 1130.75C79.372 1122.49 81.6573 1114.44 85.1349 1106.87C90.5915 1094.99 99.153 1074.5 103.061 1055.33C109.056 1025.98 126.734 980.05 126.734 980.05C126.734 980.05 127.421 1215.63 127.703 1234.01C127.703 1234.01 155.822 1236.68 166.246 1230.84C166.246 1230.84 188.437 1144.91 188.197 1098.54C187.99 1058.58 198.166 932.804 200.989 898.753C201.387 893.996 197.868 889.826 193.123 889.388L87.3788 879.692L87.3705 879.683Z" fill="white"/>
<path d="M141.878 1236.46C134.277 1236.46 128.059 1235.88 127.521 1235.83C126.593 1235.74 125.873 1234.97 125.865 1234.04C125.625 1218.05 125.062 1035.42 124.929 990.144C119.464 1005.13 109.114 1034.82 104.85 1055.69C100.818 1075.45 91.8006 1096.72 86.7912 1107.64C83.3632 1115.1 81.1525 1122.95 80.2251 1130.96C76.3666 1164.26 71.2826 1228.82 71.233 1229.46C71.1584 1230.41 70.3636 1231.15 69.4114 1231.15L33.3766 1231.22C32.4492 1231.22 31.6709 1230.54 31.555 1229.62C31.4639 1228.88 22.6456 1155.8 28.657 1111.21C33.0123 1078.86 42.5674 971.886 47.8667 910.997C48.7112 901.26 53.3149 892.449 60.8167 886.178C68.3184 879.916 77.799 876.962 87.5447 877.847L193.289 887.543C199.019 888.073 203.291 893.152 202.819 898.877C199.764 935.708 189.828 1058.93 190.035 1098.5C190.275 1144.58 168.25 1230.42 168.027 1231.28C167.902 1231.76 167.588 1232.18 167.149 1232.42C161.353 1235.68 150.705 1236.44 141.895 1236.44L141.878 1236.46ZM129.5 1232.32C135.42 1232.76 155.83 1233.91 164.657 1229.6C166.867 1220.86 186.574 1141.8 186.35 1098.54C186.143 1058.83 196.096 935.46 199.151 898.596C199.458 894.865 196.676 891.547 192.941 891.208L87.1969 881.512C78.4366 880.693 69.8999 883.365 63.1599 888.999C56.4117 894.633 52.2717 902.567 51.5099 911.328C46.2024 972.249 36.6472 1079.29 32.2836 1111.71C26.8271 1152.18 33.7492 1216.59 34.9995 1227.58L67.7139 1227.51C68.5419 1217.08 73.0711 1160.9 76.5901 1130.55C77.5672 1122.15 79.8773 1113.94 83.4626 1106.12C88.4141 1095.34 97.2985 1074.37 101.265 1054.97C107.218 1025.82 124.846 979.861 125.02 979.397C125.335 978.578 126.188 978.09 127.065 978.256C127.935 978.413 128.564 979.166 128.564 980.051C128.564 982.351 129.226 1204.83 129.508 1232.32H129.5Z" fill="black"/>
<path d="M62.8037 1119.53C59.235 1119.53 55.6829 1118.51 52.6441 1116.54C51.7995 1115.98 51.5594 1114.85 52.1059 1114.01C52.6606 1113.15 53.795 1112.91 54.6396 1113.47C58.5395 1116 63.4744 1116.57 67.8462 1115C68.7902 1114.65 69.85 1115.15 70.1895 1116.1C70.529 1117.05 70.0405 1118.1 69.0882 1118.44C67.0596 1119.18 64.9234 1119.53 62.8037 1119.53Z" fill="black"/>
<path d="M54.499 975.857C53.5717 975.857 52.7768 975.162 52.6774 974.219C52.5698 973.209 53.3067 972.308 54.3086 972.208C59.8562 971.629 66.4554 967.683 68.3433 958.343C68.542 957.35 69.5108 956.705 70.5044 956.912C71.498 957.11 72.1355 958.078 71.9368 959.071C69.6598 970.355 61.5371 975.137 54.6978 975.848C54.6315 975.848 54.5653 975.857 54.5073 975.857H54.499Z" fill="black"/>
<path d="M148.428 1190.3C148.386 1190.3 148.345 1190.3 148.304 1190.3C147.293 1190.23 146.532 1189.36 146.606 1188.35C148.105 1166.62 173.814 1129.02 174.907 1127.43C175.479 1126.6 176.621 1126.39 177.458 1126.96C178.294 1127.53 178.501 1128.67 177.93 1129.51C177.665 1129.89 151.69 1167.88 150.266 1188.6C150.2 1189.57 149.396 1190.31 148.444 1190.31L148.428 1190.3Z" fill="black"/>
<path d="M190.872 752.033C196.908 728.753 208.749 730.912 217.617 736.827C223.992 741.079 228.571 747.582 230.533 754.986C232.148 761.1 235.17 769.96 240.478 778.018C250.414 793.099 282.971 796.872 294.141 795.929C299.018 795.515 310.833 778.812 319.445 780.789C325.63 782.212 315.155 792.686 316.613 793.265C322.036 795.399 326.955 794.448 331.682 794.051C339.358 793.397 346.048 790.766 348.93 790.518C352.565 790.204 354.088 793.836 352.846 797.269C351.074 802.183 346.951 809.736 339.375 812.863C325.837 818.464 301.725 816.181 293.304 815.246C286.887 814.526 212.831 825.149 200.849 794.853C198.357 788.549 188.322 761.828 190.864 752.033H190.872Z" fill="white"/>
<path d="M314.17 818.324C306.271 818.324 298.628 817.678 293.114 817.066C292.253 816.967 289.206 817.157 285.695 817.381C264.912 818.696 209.717 822.212 199.16 795.524C196.999 790.055 186.343 762.217 189.1 751.57C191.907 740.757 196.295 734.139 202.141 731.913C206.96 730.085 212.508 731.218 218.635 735.305C225.358 739.789 230.219 746.614 232.305 754.523C233.862 760.43 236.818 769.133 242.009 777.017C251.432 791.313 283.012 795.035 293.992 794.109C295.283 794.001 298.562 791.081 301.187 788.731C307.041 783.511 313.682 777.596 319.858 779.011C321.796 779.458 322.616 780.566 322.963 781.426C324.098 784.239 321.63 788.012 319.651 791.04C319.436 791.379 319.179 791.759 318.948 792.123C322.541 793.133 325.911 792.785 329.447 792.429C330.151 792.355 330.846 792.289 331.533 792.231C336.145 791.842 340.343 790.725 343.713 789.824C345.849 789.261 347.53 788.806 348.772 788.698C350.842 788.508 352.623 789.261 353.798 790.791C355.198 792.611 355.496 795.333 354.568 797.89C353.202 801.662 349.062 810.845 340.07 814.559C333.115 817.43 323.46 818.324 314.153 818.324H314.17ZM292.41 813.385C292.865 813.385 293.23 813.401 293.52 813.434C305.194 814.742 326.59 816.189 338.687 811.184C346.33 808.024 349.94 799.974 351.14 796.657C351.637 795.284 351.546 793.861 350.909 793.033C350.503 792.504 349.915 792.281 349.104 792.355C348.176 792.438 346.545 792.868 344.665 793.373C341.345 794.258 336.791 795.466 331.856 795.888C331.186 795.945 330.507 796.012 329.828 796.086C325.696 796.508 321.018 796.98 315.959 794.986C315.379 794.762 314.94 794.291 314.758 793.704C314.36 792.463 315.106 791.321 316.596 789.046C318.906 785.513 319.908 783.412 319.577 782.8C319.552 782.775 319.411 782.667 319.055 782.593C314.717 781.6 308.581 787.077 303.646 791.478C299.837 794.878 296.823 797.559 294.314 797.765C282.342 798.8 249.37 794.837 238.962 779.044C233.498 770.746 230.401 761.646 228.778 755.474C226.915 748.434 222.601 742.354 216.615 738.366C211.531 734.974 207.101 733.957 203.458 735.346C198.779 737.125 195.153 742.9 192.66 752.504C190.607 760.422 197.926 782.436 202.58 794.2C212.152 818.406 265.425 815.023 285.471 813.749C288.932 813.525 291.085 813.401 292.427 813.401L292.41 813.385Z" fill="black"/>
<path d="M28.7648 787.275C28.7648 787.275 23.4987 706.978 69.1218 690.283C113.047 674.217 171.14 673.87 202.505 694.643C212.3 701.137 224.083 731.027 231.411 752.107C236.163 765.774 246.985 776.462 260.722 781.045L297.345 793.256L297.775 809.91L207.457 804.044C199.268 802.414 196.974 864.114 196.577 901.706C196.577 901.706 155.011 888.883 138.078 881.214C121.145 873.537 78.9668 907.257 51.6095 905.975C63.6818 867.208 63.1436 824.329 56.9501 779.598L28.7648 787.283V787.275Z" fill="white"/>
<path d="M53.1744 907.828C52.6196 907.828 52.0732 907.812 51.5267 907.787C50.9636 907.762 50.442 907.472 50.1108 907.009C49.7879 906.546 49.6968 905.959 49.8624 905.413C60.4277 871.494 62.1996 832.206 55.4183 781.898L29.2533 789.038C28.7234 789.178 28.1521 789.079 27.705 788.764C27.2579 788.442 26.9763 787.945 26.9432 787.391C26.7279 784.057 22.1159 705.531 68.5008 688.563C115.565 671.347 173.616 673.308 203.523 693.121C213.534 699.756 225.159 728.529 233.149 751.503C237.687 764.541 248.211 774.94 261.31 779.3L297.933 791.511C298.661 791.751 299.166 792.429 299.183 793.199L299.613 809.852C299.63 810.365 299.423 810.861 299.05 811.217C298.678 811.573 298.181 811.747 297.659 811.722L207.341 805.856C207.258 805.856 207.183 805.84 207.1 805.823C203.457 807.395 199.085 838.079 198.406 901.706C198.406 902.285 198.125 902.823 197.653 903.162C197.181 903.501 196.585 903.609 196.03 903.435C194.324 902.914 154.158 890.497 137.316 882.861C129.367 879.254 114.198 886.161 98.135 893.466C82.61 900.532 66.5798 907.82 53.1744 907.82V907.828ZM56.9418 777.762C57.2979 777.762 57.6456 777.869 57.952 778.068C58.3908 778.357 58.6889 778.82 58.7551 779.342C65.7849 830.038 64.2945 869.789 54.0686 904.163C66.5136 903.841 81.7985 896.891 96.6115 890.149C114.182 882.149 129.359 875.258 138.823 879.535C153.156 886.029 185.746 896.387 194.763 899.216C195.185 864.875 197.073 809.314 204.807 803.044C205.883 802.175 206.935 802.092 207.663 802.216L295.879 807.941L295.54 794.58L260.134 782.775C245.967 778.051 234.582 766.808 229.672 752.703C218.643 720.976 208.632 700.906 201.487 696.166C172.465 676.94 115.829 675.144 69.751 691.996C30.131 706.49 30.0979 771.888 30.4954 784.901L56.4616 777.819C56.6189 777.778 56.7845 777.753 56.9418 777.753V777.762Z" fill="black"/>
<path d="M179.18 800.363C167.033 803.176 158.124 804.839 155.309 801.091C150.068 794.109 155.599 783.263 149.993 786.705C144.197 790.27 141.912 795.226 141.109 799.445C140.049 805.029 135.578 809.348 129.931 810.034C129.285 810.109 128.622 810.183 127.952 810.258C129.931 816.81 127.165 825.124 129.103 831.684C138.153 830.328 149.645 827.416 151.947 826.928C156.65 825.935 166.032 826.886 180.795 818.382C194.416 810.539 191.327 797.55 179.18 800.372V800.363Z" fill="white"/>
<path d="M129.103 833.504C128.299 833.504 127.579 832.983 127.347 832.197C126.287 828.632 126.503 824.71 126.71 820.913C126.908 817.24 127.099 813.765 126.196 810.779C126.039 810.257 126.122 809.695 126.42 809.24C126.718 808.785 127.207 808.487 127.753 808.429C128.415 808.355 129.07 808.289 129.699 808.206C134.518 807.627 138.376 803.962 139.295 799.097C140.421 793.19 143.783 788.359 149.016 785.141C149.67 784.736 151.417 783.66 152.991 784.545C154.638 785.472 154.622 787.524 154.605 790.113C154.58 793.033 154.547 797.029 156.766 799.983C159.118 803.118 170.47 800.495 178.758 798.576C184.521 797.252 189.315 799.097 190.979 803.308C192.727 807.743 190.574 814.849 181.706 819.962C169.758 826.845 161.014 827.73 155.789 828.259C154.415 828.4 153.231 828.516 152.32 828.714C151.848 828.814 150.97 829.02 149.803 829.293C145.191 830.377 136.596 832.404 129.368 833.488C129.277 833.504 129.185 833.504 129.094 833.504H129.103ZM130.204 811.838C130.717 814.841 130.543 818.017 130.378 821.112C130.212 824.131 130.055 827.018 130.51 829.6C137.217 828.499 144.769 826.721 148.983 825.728C150.184 825.447 151.086 825.231 151.583 825.132C152.684 824.901 153.968 824.768 155.441 824.619C160.691 824.09 168.632 823.279 179.892 816.793C186.566 812.946 188.818 807.776 187.585 804.657C186.616 802.191 183.544 801.223 179.603 802.15C166.338 805.219 157.371 806.882 153.852 802.191C150.896 798.253 150.937 793.339 150.962 790.096C150.962 789.526 150.97 788.831 150.945 788.276C146.557 790.982 143.849 794.853 142.914 799.792C141.697 806.22 136.588 811.052 130.204 811.846V811.838Z" fill="black"/>
<path d="M133.806 831.676C99.7828 837.045 75.3815 839.047 56.8259 835.854C40.8537 833.107 28.9719 819.573 28.0197 803.399C27.2248 789.906 28.0445 774.949 31.3317 759.958L70.6122 777.033C76.607 804.276 77.4433 802.224 129.533 807.775L133.806 831.684V831.676Z" fill="white"/>
<path d="M77.2198 839.204C61.6285 839.204 48.6454 837.086 37.9724 831.891C32.4496 829.202 28.5911 823.842 27.6389 817.546C25.5358 803.548 25.3371 774.361 28.2351 756.252C28.3924 755.251 29.328 754.572 30.3299 754.73C31.3318 754.887 32.0108 755.83 31.8535 756.823C29.0134 774.609 29.2038 803.267 31.2656 817C32.0356 822.104 35.1406 826.439 39.5787 828.599C60.0801 838.567 90.0622 836.64 131.669 830.162L127.968 809.447L124.565 809.083C79.886 804.342 77.2116 804.061 71.813 780.864C71.5811 779.879 72.1938 778.895 73.1792 778.663C74.1645 778.423 75.1498 779.044 75.3817 780.028C78.5888 793.805 95.113 802.277 124.954 805.443L129.724 805.947C130.535 806.03 131.189 806.642 131.33 807.445L135.602 831.353C135.685 831.841 135.578 832.338 135.288 832.735C135.006 833.132 134.567 833.405 134.079 833.479C112.12 836.946 93.2748 839.196 77.2115 839.196L77.2198 839.204Z" fill="black"/>
<path d="M141.92 659.401C138.128 662.536 130.841 666.234 125.434 663.157C121.41 660.873 119.373 655.363 119.829 649.2C117.908 649.258 115.407 649.002 113.702 647.33C111.069 644.758 111.814 640.307 112.07 637.37C113.254 623.811 105.471 621.329 107.864 612.212C109.744 605.048 115.656 601.019 116.757 600.266C122.338 596.46 125.906 597.958 135.056 596.047C150.457 592.829 151.268 586.31 161.287 586.781C161.867 586.806 175.487 587.65 179.636 597.296C183.014 605.139 178.145 614.222 173.359 618.888C167.158 624.919 163.092 621.585 156.923 626.59C146.093 635.384 153.197 650.085 141.928 659.401H141.92Z" fill="black"/>
<path d="M173.111 633.697C170.106 630.826 166.926 625.151 165.941 621.106C162.355 606.355 148.967 603.633 147.575 617.978C147.203 621.801 133.226 620.899 134.683 625.002C138.484 635.699 138.724 632.886 132.415 636.444C131.719 636.444 131.024 636.551 130.361 636.824C127.157 638.123 125.832 642.326 127.405 646.197C128.358 648.547 130.171 650.226 132.15 650.905L131.313 667.467C130.999 673.672 129.575 677.246 123.712 679.306C123.712 679.306 146.035 688.877 144.528 688.108L164.384 680.745C158.306 677.643 154.713 672.952 154.845 666.127L154.978 662.884C156.75 663.132 158.48 663.099 160.095 662.718C167.605 660.94 170.495 652.534 169.774 641.862L173.045 638.892C174.568 637.503 174.602 635.112 173.111 633.689V633.697Z" fill="white"/>
<path d="M145.116 689.919C144.793 689.919 144.363 689.836 143.758 689.654L143.709 689.754C143.593 689.688 143.485 689.621 143.386 689.539C141.647 688.96 138.683 687.694 133.433 685.46C128.217 683.235 123 681.001 123 681.001C122.305 680.703 121.866 680.008 121.891 679.255C121.915 678.503 122.404 677.841 123.116 677.593C127.695 675.988 129.185 673.605 129.5 667.384L130.27 652.079C128.266 651.012 126.652 649.183 125.716 646.892C123.77 642.085 125.542 636.815 129.682 635.128C130.394 634.838 131.139 634.673 131.926 634.631C132.911 634.094 133.739 633.705 134.402 633.39C134.816 633.2 135.263 632.985 135.528 632.828C135.412 632.232 134.915 630.908 134.394 629.51C133.996 628.46 133.516 627.177 132.961 625.614C132.622 624.662 132.688 623.719 133.143 622.892C134.228 620.915 137.126 620.261 140.471 619.5C142.168 619.12 145.34 618.4 145.779 617.705C146.391 611.186 149.546 607.041 154.199 606.71C159.018 606.371 165.27 610.599 167.712 620.675C168.632 624.447 171.679 629.808 174.37 632.373C175.446 633.399 176.05 634.846 176.034 636.336C176.017 637.825 175.371 639.256 174.27 640.257L171.654 642.639C172.258 654.734 168.226 662.685 160.517 664.505C159.325 664.786 158.05 664.91 156.725 664.877L156.667 666.209C156.559 671.901 159.35 676.137 165.212 679.123C165.858 679.454 166.247 680.132 166.205 680.86C166.164 681.588 165.692 682.217 165.013 682.465L145.919 689.547C145.745 689.787 145.514 689.919 145.108 689.919H145.116ZM128.076 679.189C134.617 681.994 142.243 685.237 144.52 686.172L160.202 680.356C155.317 676.823 152.899 672.041 153.015 666.11L153.148 662.834C153.173 662.321 153.404 661.833 153.802 661.502C154.199 661.171 154.721 661.022 155.226 661.096C156.841 661.32 158.339 661.27 159.664 660.956C168.16 658.945 168.275 647.032 167.936 642.003C167.895 641.448 168.118 640.902 168.532 640.522L171.803 637.552C172.159 637.229 172.358 636.782 172.366 636.294C172.366 635.806 172.184 635.359 171.836 635.028C168.615 631.959 165.237 626.036 164.152 621.544C162.314 613.966 157.793 610.102 154.456 610.367C151.74 610.557 149.844 613.469 149.389 618.16C149.082 621.304 145.116 622.205 141.274 623.074C139.718 623.43 137.192 624.001 136.464 624.555C136.985 626.027 137.441 627.227 137.813 628.22C139.627 633.051 140.239 634.673 135.958 636.691C135.263 637.022 134.394 637.428 133.317 638.031C133.036 638.189 132.721 638.238 132.398 638.271C131.918 638.238 131.462 638.346 131.057 638.511C128.788 639.43 127.919 642.565 129.111 645.502C129.823 647.264 131.189 648.629 132.754 649.159C133.532 649.423 134.037 650.168 133.996 650.987L133.16 667.549C132.903 672.67 131.868 676.567 128.084 679.173L128.076 679.189Z" fill="black"/>
<path d="M154.986 664.721C154.862 664.721 154.738 664.704 154.613 664.679C143.675 662.429 139.13 653.742 138.947 653.378C138.492 652.477 138.848 651.376 139.751 650.921C140.653 650.458 141.754 650.822 142.21 651.716C142.251 651.79 146.193 659.219 155.35 661.105C156.344 661.312 156.981 662.28 156.774 663.265C156.592 664.133 155.831 664.729 154.986 664.729V664.721Z" fill="black"/>
<path d="M937.873 782.245L951.924 846.285L976.301 847.551L962.846 778.232L937.873 782.245Z" fill="white"/>
<path d="M976.301 849.388C976.301 849.388 976.234 849.388 976.209 849.388L951.833 848.114C951.005 848.073 950.318 847.485 950.136 846.675L936.084 782.634C935.977 782.146 936.076 781.625 936.358 781.211C936.639 780.797 937.086 780.516 937.583 780.433L962.556 776.421C963.516 776.264 964.46 776.909 964.642 777.877L978.097 847.196C978.205 847.75 978.048 848.321 977.683 848.743C977.336 849.14 976.83 849.371 976.301 849.371V849.388ZM953.415 844.524L974.057 845.599L961.388 780.318L940.084 783.743L953.423 844.524H953.415Z" fill="black"/>
<path d="M943.429 840.826C942.717 845.847 941.574 855.163 941.475 863.51C941.417 868.755 945.358 873.181 950.558 873.843C965.272 875.729 998.648 877.797 1027.07 875.216C1029.02 875.043 1032.46 873.62 1033.42 868.763C1036.64 852.458 1008.24 848.453 977.129 836.623C975.911 836.16 974.529 836.433 973.593 837.343L970.24 840.594C966.878 843.845 961.902 844.764 957.604 842.935L947.395 838.584C945.656 837.839 943.694 838.956 943.429 840.826Z" fill="white"/>
<path d="M997.465 878.269C978.313 878.269 960.453 876.962 950.335 875.663C944.174 874.869 939.579 869.641 939.653 863.494C939.753 854.981 940.928 845.484 941.624 840.578C941.831 839.114 942.684 837.864 943.967 837.136C945.251 836.408 946.766 836.326 948.116 836.905L958.325 841.256C961.96 842.812 966.133 842.034 968.965 839.287L972.326 836.036C973.759 834.646 975.903 834.208 977.791 834.919C985.044 837.674 992.016 839.966 998.764 842.175C1020.69 849.364 1038 855.047 1035.23 869.12C1034.16 874.53 1030.26 876.764 1027.25 877.037C1017.57 877.914 1007.34 878.261 997.465 878.261V878.269ZM945.242 841.083C944.563 845.906 943.404 855.229 943.305 863.535C943.255 867.829 946.476 871.477 950.79 872.032C965.967 873.976 998.764 875.953 1026.91 873.397C1027.55 873.339 1030.75 872.826 1031.62 868.416C1033.77 857.521 1018.6 852.541 997.605 845.658C990.824 843.432 983.803 841.132 976.475 838.344C975.92 838.137 975.282 838.262 974.868 838.667L971.507 841.918C967.607 845.691 961.86 846.75 956.876 844.623L946.667 840.272C946.261 840.098 945.913 840.231 945.747 840.322C945.582 840.413 945.292 840.644 945.226 841.083H945.242Z" fill="black"/>
<path d="M941.5 862.262C941.5 862.262 941.483 863.106 941.475 863.519C941.417 868.764 945.358 873.19 950.558 873.852C965.272 875.738 998.648 877.806 1027.07 875.225C1029.02 875.052 1032.46 873.629 1033.42 868.772C1033.71 867.283 1033.53 864.603 1033.53 864.603L1031.51 864.702C1002.79 866.117 973.99 865.43 945.366 862.642L941.491 862.262H941.5Z" fill="white"/>
<path d="M997.465 878.269C978.313 878.269 960.453 876.962 950.335 875.663C944.174 874.869 939.579 869.641 939.653 863.494L939.678 862.228C939.686 861.715 939.91 861.236 940.291 860.896C940.672 860.557 941.185 860.392 941.69 860.441L945.565 860.822C974.015 863.593 1002.91 864.28 1031.44 862.874L1033.45 862.774C1034.43 862.741 1035.3 863.486 1035.37 864.478C1035.39 864.776 1035.55 867.457 1035.23 869.128C1034.16 874.538 1030.26 876.772 1027.25 877.045C1017.57 877.922 1007.34 878.269 997.465 878.269ZM943.338 864.28C943.644 868.243 946.733 871.519 950.798 872.04C965.976 873.984 998.773 875.961 1026.92 873.405C1027.55 873.347 1030.76 872.834 1031.63 868.425C1031.73 867.937 1031.76 867.217 1031.76 866.53H1031.61C1002.89 867.953 973.817 867.258 945.201 864.47L943.33 864.288L943.338 864.28Z" fill="black"/>
<path d="M984.274 856.081C983.802 856.081 983.339 855.899 982.983 855.543C982.271 854.832 982.271 853.674 982.983 852.954L993.904 842.034C994.616 841.322 995.775 841.322 996.496 842.034C997.208 842.745 997.208 843.903 996.496 844.623L985.574 855.543C985.218 855.899 984.746 856.081 984.283 856.081H984.274Z" fill="black"/>
<path d="M994.997 857.206C994.542 857.206 994.086 857.033 993.73 856.694C993.002 855.99 992.977 854.832 993.681 854.104L1002.41 845.045C1003.11 844.317 1004.27 844.292 1005 844.996C1005.73 845.699 1005.75 846.857 1005.05 847.585L996.322 856.644C995.966 857.016 995.486 857.206 995.005 857.206H994.997Z" fill="black"/>
<path d="M829.305 802.208L823.219 844.938H810.037L809.3 802.911L829.305 802.208Z" fill="white"/>
<path d="M823.219 846.765H810.037C809.035 846.765 808.224 845.963 808.207 844.97L807.47 802.944C807.454 801.943 808.241 801.116 809.234 801.082L829.239 800.379C829.777 800.321 830.307 800.578 830.663 800.983C831.027 801.389 831.193 801.926 831.118 802.464L825.032 845.194C824.9 846.095 824.13 846.765 823.219 846.765ZM811.834 843.109H821.621L827.177 804.11L811.155 804.673L811.826 843.109H811.834Z" fill="black"/>
<path d="M806.121 886.525C798.296 885.234 793.891 879.625 793.651 874.786C792.939 860.407 796.739 846.74 803.86 837.458C804.638 836.449 806.195 836.532 806.874 837.607L807.064 837.781C808.29 838.898 810.12 838.823 811.387 837.748C812.43 836.862 813.771 836.333 815.204 836.316L817.191 836.292C819.427 836.259 821.629 837.508 822.797 839.369C823.343 840.238 824.593 840.279 825.272 839.518L826.398 838.252C827.16 837.516 828.444 838.037 828.477 839.096L829.694 878.442C829.098 886.144 816.355 888.212 806.112 886.533L806.121 886.525Z" fill="white"/>
<path d="M812.943 888.907C810.418 888.907 807.967 888.692 805.823 888.337C796.996 886.889 792.094 880.469 791.813 874.885C791.076 860.118 794.934 846.07 802.403 836.358C803.132 835.415 804.291 834.869 805.475 834.935C806.584 834.985 807.603 835.531 808.265 836.408L808.307 836.441C808.878 836.962 809.698 836.796 810.211 836.366C811.602 835.183 813.366 834.521 815.187 834.497L817.175 834.472C819.89 834.472 822.573 835.837 824.138 838.07L825.049 837.053C826.018 836.118 827.301 835.87 828.419 836.325C829.537 836.78 830.282 837.855 830.323 839.063L831.549 878.401C831.549 878.467 831.549 878.533 831.549 878.599C831.358 881.081 830.125 883.282 827.98 884.953C824.237 887.89 818.433 888.916 812.96 888.916L812.943 888.907ZM806.419 884.721C814.152 885.987 822.076 884.895 825.703 882.057C827.02 881.023 827.732 879.824 827.872 878.384L826.697 840.668L826.647 840.726C825.935 841.528 824.867 841.95 823.79 841.868C822.73 841.777 821.811 841.222 821.248 840.329C820.404 838.98 818.764 838.178 817.216 838.112L815.229 838.137C814.252 838.153 813.316 838.509 812.571 839.138C810.551 840.85 807.719 840.85 805.831 839.138L805.64 838.964C805.525 838.856 805.417 838.732 805.326 838.592C798.371 847.617 794.785 860.78 795.473 874.695C795.671 878.715 799.579 883.596 806.411 884.721H806.419Z" fill="black"/>
<path d="M829.371 867.911C829.148 868.771 828.783 869.598 828.27 870.318C826.506 872.775 821.704 877.582 811.428 876.746C799.257 875.753 793.684 867.29 793.684 867.29C793.535 869.755 793.527 872.262 793.651 874.785C793.891 879.625 798.304 885.242 806.121 886.525C816.363 888.212 829.106 886.136 829.702 878.434L829.379 867.911H829.371Z" fill="white"/>
<path d="M812.943 888.908C810.418 888.908 807.967 888.693 805.823 888.337C796.996 886.889 792.094 880.469 791.813 874.885C791.689 872.321 791.697 869.731 791.854 867.191C791.904 866.405 792.45 865.735 793.212 865.537C793.966 865.33 794.777 865.644 795.216 866.298C795.423 866.612 800.507 874.041 811.577 874.943C820.743 875.696 825.032 871.708 826.788 869.276C827.152 868.763 827.434 868.159 827.607 867.481C827.839 866.596 828.7 866.033 829.586 866.116C830.489 866.215 831.184 866.968 831.217 867.878L831.549 878.401C831.549 878.467 831.549 878.533 831.549 878.6C831.358 881.082 830.124 883.282 827.98 884.953C824.237 887.89 818.433 888.916 812.96 888.916L812.943 888.908ZM795.398 871.882C795.398 872.817 795.431 873.76 795.481 874.695C795.68 878.715 799.588 883.597 806.419 884.722C814.161 885.987 822.076 884.895 825.703 882.058C827.019 881.024 827.732 879.824 827.872 878.385L827.723 873.677C824.941 876.258 819.808 879.253 811.279 878.567C803.637 877.946 798.428 874.587 795.398 871.874V871.882Z" fill="black"/>
<path d="M820.983 858.835H806.849C805.839 858.835 805.02 858.016 805.02 857.007C805.02 855.998 805.839 855.179 806.849 855.179H820.983C821.994 855.179 822.813 855.998 822.813 857.007C822.813 858.016 821.994 858.835 820.983 858.835Z" fill="black"/>
<path d="M822.449 851.705H808.315C807.305 851.705 806.485 850.886 806.485 849.876C806.485 848.867 807.305 848.048 808.315 848.048H822.449C823.459 848.048 824.279 848.867 824.279 849.876C824.279 850.886 823.459 851.705 822.449 851.705Z" fill="black"/>
<path d="M929.957 509.644C929.957 509.644 955.6 638.76 956.403 669.915C957.206 701.071 974.868 817.984 974.868 817.984C974.868 817.984 957.356 826.422 944.613 826.356C944.613 826.356 869.405 631.62 864.942 580.427C860.487 529.243 875.391 505.806 875.391 505.806L929.957 509.644Z" fill="black"/>
<path d="M910.184 511.026C910.184 511.026 833.014 738.399 831.896 823.394C831.896 823.394 827.193 826.48 805.491 822.939C805.491 822.939 789.85 571.757 829.959 506.385L910.184 511.026Z" fill="black"/>
<path d="M1009.78 296.989L1024.16 281.99C1026.6 279.442 1030.72 282.313 1029.18 285.482L1024.75 294.623C1024.75 294.623 1027.77 296.03 1029.27 296.121C1032.55 296.327 1035.73 294.921 1037.99 292.547C1040.62 289.8 1044.87 285.432 1046.31 284.357C1048.44 282.76 1051.2 280.286 1054.25 280.038H1054.34C1057.53 279.798 1059.61 283.306 1057.88 285.995L1051.86 295.293C1047.5 302.044 1041.09 307.215 1033.58 310.069L1014.14 317.448L1012.7 372.885L987.445 353.584L998.789 316.919C1001.06 309.597 1004.79 302.813 1009.78 296.981V296.989Z" fill="white"/>
<path d="M1012.71 374.721C1012.31 374.721 1011.92 374.597 1011.6 374.34L986.344 355.04C985.731 354.576 985.483 353.774 985.706 353.046L997.05 316.38C999.402 308.778 1003.22 301.853 1008.39 295.797C1008.41 295.773 1008.44 295.748 1008.46 295.715L1022.84 280.716C1024.56 278.929 1027.17 278.664 1029.21 280.079C1031.25 281.494 1031.92 284.042 1030.83 286.275L1027.25 293.671C1028.09 293.986 1028.94 294.259 1029.39 294.284C1032.02 294.449 1034.68 293.357 1036.68 291.272C1039.75 288.062 1043.72 284 1045.22 282.883C1045.5 282.668 1045.81 282.437 1046.12 282.189C1048.26 280.526 1050.94 278.466 1054.11 278.209C1056.4 278.06 1058.43 279.111 1059.54 280.981C1060.65 282.85 1060.61 285.159 1059.42 286.987L1053.41 296.286C1048.81 303.409 1042.18 308.769 1034.24 311.772L1015.95 318.713L1014.54 372.926C1014.52 373.612 1014.12 374.233 1013.49 374.531C1013.25 374.647 1012.97 374.713 1012.71 374.713V374.721ZM989.582 352.914L1010.97 369.261L1012.32 317.406C1012.34 316.662 1012.81 316.008 1013.5 315.743L1032.94 308.364C1040.14 305.634 1046.16 300.769 1050.34 294.308L1056.35 285.01C1056.78 284.348 1056.8 283.537 1056.39 282.859C1055.99 282.18 1055.27 281.8 1054.49 281.866C1052.33 282.04 1050.22 283.669 1048.37 285.101C1048.04 285.357 1047.72 285.597 1047.42 285.829C1046.44 286.557 1043.42 289.551 1039.33 293.82C1036.59 296.683 1032.9 298.188 1029.16 297.957C1027.41 297.849 1024.54 296.55 1023.99 296.294C1023.54 296.087 1023.2 295.706 1023.03 295.251C1022.87 294.788 1022.89 294.284 1023.11 293.837L1027.54 284.695C1027.98 283.793 1027.33 283.247 1027.12 283.099C1026.86 282.917 1026.16 282.561 1025.49 283.264L1011.14 298.221C1006.31 303.888 1002.75 310.366 1000.55 317.472L989.59 352.922L989.582 352.914Z" fill="black"/>
<path d="M988.712 331.106L971.059 369.194C968.161 373.943 961.636 374.886 957.496 371.155C947.602 362.245 930.404 338.651 914.953 332.669C893.583 324.405 850.41 325.149 833.519 330.419C816.578 335.706 804.854 340.231 784.907 353.674C783.292 354.642 741.023 380.429 735.078 413.579C726.706 460.279 788.923 497.706 788.923 497.706L807.362 473.127L793.021 441.202C793.021 441.202 785.992 425.665 802.924 412.296C802.924 412.296 810.616 405.694 814.748 409.641C815.311 410.178 815.684 410.857 815.924 411.593C817.025 417.591 817.439 423.796 816.86 430.066C813.68 464.837 803.487 518.487 802.461 530.955C802.345 532.394 803.462 533.627 804.911 533.652L945.672 536.034C946.724 536.051 947.56 535.166 947.469 534.131C946.5 523.162 934.801 439.589 934.859 432.201C946.211 438.298 963.176 456.804 986.278 454.323C1012.14 451.543 1020.92 334.829 1020.92 334.829L988.72 331.114L988.712 331.106Z" fill="white"/>
<path d="M945.705 537.863H945.639L804.878 535.489C803.686 535.464 802.535 534.951 801.74 534.066C800.945 533.18 800.54 531.997 800.639 530.814C801.045 525.875 802.825 514.831 805.077 500.842C808.464 479.828 813.1 451.047 815.038 429.91C815.56 424.21 815.262 418.204 814.144 412.057C813.986 411.602 813.763 411.238 813.481 410.973C810.674 408.293 804.183 413.637 804.117 413.695C788.509 426.013 794.421 439.879 794.686 440.466L809.027 472.391C809.3 472.995 809.225 473.706 808.82 474.236L790.38 498.815C789.817 499.568 788.782 499.774 787.971 499.286C785.387 497.731 724.769 460.668 733.264 413.273C739.342 379.362 782.133 353.228 783.955 352.128C803.206 339.156 814.641 334.407 832.964 328.699C849.731 323.462 893.425 322.42 915.607 330.991C926.868 335.342 938.767 348.438 948.322 358.961C952.354 363.404 955.84 367.234 958.713 369.824C960.278 371.238 962.381 371.867 964.476 371.569C966.53 371.271 968.335 370.097 969.436 368.351L987.039 330.362C987.371 329.642 988.132 329.212 988.911 329.311L1021.11 333.026C1022.09 333.141 1022.8 334.002 1022.73 334.978C1021.82 347.081 1013.07 453.297 986.451 456.151C968.384 458.096 953.853 447.639 943.254 440.011C940.936 438.348 938.833 436.826 936.895 435.577C937.815 445.421 941.375 472.449 944.306 494.786C946.757 513.416 948.877 529.516 949.274 533.991C949.365 535 949.017 536.001 948.322 536.746C947.643 537.474 946.682 537.888 945.689 537.888L945.705 537.863ZM811.478 406.555C813.117 406.555 814.682 407.052 816.007 408.317C816.76 409.029 817.315 409.947 817.663 411.039C817.688 411.114 817.704 411.188 817.721 411.263C818.913 417.782 819.236 424.168 818.681 430.232C816.735 451.502 812.272 479.175 808.687 501.412C806.443 515.319 804.68 526.306 804.282 531.104C804.257 531.352 804.382 531.526 804.448 531.6C804.522 531.683 804.68 531.815 804.936 531.824L945.697 534.198C945.25 529.88 943.13 513.83 940.688 495.233C937.078 467.8 932.979 436.702 933.02 432.176C933.02 431.531 933.368 430.944 933.915 430.613C934.469 430.29 935.148 430.274 935.72 430.572C938.642 432.135 941.781 434.394 945.407 437.008C956.097 444.702 969.411 454.273 986.071 452.478C1005.69 450.369 1016.29 369.65 1018.95 336.418L989.813 333.059L972.715 369.948C972.69 370.014 972.657 370.072 972.616 370.13C970.951 372.86 968.177 374.688 965.006 375.143C961.818 375.606 958.647 374.638 956.262 372.496C953.257 369.782 949.713 365.886 945.614 361.377C936.316 351.143 924.74 338.403 914.283 334.366C893.135 326.192 849.963 327.193 834.049 332.149C816.081 337.758 804.87 342.407 785.917 355.172C784.079 356.281 742.646 381.637 736.866 413.877C729.497 454.96 779.384 489.351 788.459 495.224L805.234 472.863L791.332 441.922C791.258 441.757 783.922 424.929 801.773 410.832C804.017 408.905 807.892 406.53 811.469 406.53L811.478 406.555Z" fill="black"/>
<path d="M860.056 327.822L860.893 283.967L888.97 293.778L889.053 327.416C888.929 332.818 884.383 335.904 884.383 335.904C878.761 340.165 870.779 339.528 864.917 335.59L863.559 334.68C861.29 333.158 859.965 330.568 860.048 327.838L860.056 327.822Z" fill="white"/>
<path d="M875.308 340.678C871.458 340.678 867.451 339.487 863.89 337.096L862.532 336.186C859.725 334.299 858.111 331.156 858.218 327.772L859.055 283.926C859.063 283.338 859.361 282.792 859.841 282.461C860.322 282.122 860.934 282.04 861.489 282.238L889.567 292.05C890.304 292.306 890.792 293.001 890.792 293.771L890.875 327.408C890.734 333.729 885.617 337.269 885.402 337.418C882.529 339.602 878.985 340.694 875.3 340.694L875.308 340.678ZM862.681 286.523L861.895 327.855C861.895 327.855 861.895 327.871 861.895 327.88C861.829 329.998 862.839 331.967 864.594 333.15L865.952 334.06C871.516 337.807 878.645 337.956 883.29 334.44C883.398 334.366 887.132 331.727 887.232 327.367L887.157 295.069L862.69 286.523H862.681Z" fill="black"/>
<path d="M884.524 239.815C874.298 234.744 877.528 248.212 874.878 246.905C865.074 242.065 862.375 240.849 857.101 241.254C853.607 241.519 845.368 246.797 845.674 251.471C846.684 266.727 853.905 264.046 856.074 277.581C857.598 287.086 859.643 290.271 863.021 292.224C866.441 294.201 870.001 289.833 873.901 291.711C878.944 294.151 876.269 303.069 880.757 307.785C883.589 310.755 890.966 313.237 904.148 309.572C906.284 308.976 907.692 306.941 907.485 304.732C907.22 301.903 906.864 298.329 906.235 294.945C903.254 278.813 898.443 274.412 901.101 270.855C905.175 265.403 910.201 252.547 884.524 239.798V239.815Z" fill="black"/>
<path d="M879.399 266.552L880.798 270.813C881.461 272.823 881.982 274.867 882.355 276.943C883.067 280.84 884.541 287.474 885.327 291.222C887.861 303.259 903.949 293.448 903.949 293.448L905.464 290.535L907.468 290.122C907.857 290.039 908.23 289.882 908.52 289.617C909.257 288.964 909.439 287.946 909.066 287.102C907.005 282.502 902.815 272.261 902.194 263.632C902.194 263.632 890.809 258.42 879.391 266.552H879.399Z" fill="white"/>
<path d="M892.498 299.04C891.107 299.04 889.749 298.817 888.49 298.279C885.899 297.162 884.234 294.912 883.539 291.586L882.761 287.963C882.007 284.463 881.071 280.112 880.55 277.266C880.185 275.28 879.68 273.303 879.051 271.384L877.652 267.123C877.403 266.362 877.677 265.527 878.331 265.063C890.478 256.41 902.459 261.738 902.964 261.969C903.568 262.251 903.974 262.838 904.024 263.5C904.636 271.98 908.926 282.304 910.739 286.35C911.459 287.946 911.053 289.808 909.745 290.982C909.232 291.437 908.578 291.76 907.841 291.917L906.69 292.157L905.572 294.3C905.415 294.598 905.183 294.846 904.901 295.02C904.082 295.516 898.079 299.057 892.498 299.057V299.04ZM881.568 267.297L882.537 270.242C883.224 272.319 883.771 274.47 884.16 276.621C884.665 279.409 885.592 283.735 886.346 287.202L887.124 290.85C887.571 292.968 888.49 294.308 889.948 294.937C893.591 296.509 899.917 293.655 902.575 292.149L903.85 289.7C904.106 289.212 904.562 288.865 905.1 288.757L907.104 288.335C907.236 288.31 907.303 288.269 907.311 288.261C907.46 288.128 907.452 287.971 907.402 287.855C905.15 282.842 901.358 273.386 900.48 264.931C897.781 264.004 889.848 262.052 881.568 267.305V267.297Z" fill="black"/>
<path d="M879.937 280.633C879.937 280.633 876.575 270.391 872.237 272.881C867.898 275.38 871.881 286.565 879.937 280.633Z" fill="white"/>
<path d="M803.272 478.571L811.577 485.14C813.465 487.034 816.537 487.051 818.433 485.165L825.785 478.224C827.566 476.47 830.952 474.658 833.453 474.642L841.385 475.312C849.45 475.957 852.331 482.741 852.331 482.741C853.697 485.388 852.845 488.805 850.17 490.964C850.17 490.964 846.8 493.711 843.77 494.232L838.562 495.125C838.562 495.125 833.055 496.937 829.039 499.783C825.024 502.629 819.004 505.417 811.9 504.97L811.345 504.937C807.097 504.672 803.057 503.026 799.827 500.255L791.564 494.182L803.272 478.58V478.571Z" fill="white"/>
<path d="M813.39 506.848C812.869 506.848 812.339 506.832 811.8 506.799L811.246 506.765C806.625 506.476 802.154 504.656 798.643 501.636L790.488 495.647C790.09 495.357 789.833 494.919 789.759 494.439C789.684 493.959 789.809 493.463 790.107 493.074L801.815 477.471C802.113 477.074 802.552 476.818 803.04 476.751C803.529 476.677 804.025 476.826 804.415 477.132L812.719 483.701C812.777 483.742 812.827 483.792 812.885 483.85C814.061 485.024 815.974 485.033 817.158 483.866L824.543 476.892C826.514 474.94 830.331 472.83 833.461 472.813L841.567 473.492C850.626 474.212 853.904 481.707 854.037 482.029C855.767 485.38 854.683 489.69 851.346 492.395C850.965 492.702 847.512 495.465 844.101 496.044L839.033 496.912C838.222 497.185 833.536 498.857 830.116 501.281C827.094 503.423 821.057 506.848 813.398 506.848H813.39ZM794.147 493.794L800.929 498.774C803.943 501.363 807.644 502.869 811.469 503.109L812.024 503.142C819.319 503.597 825.156 500.296 827.988 498.286C832.178 495.316 837.767 493.463 837.998 493.38C838.081 493.355 838.172 493.33 838.263 493.314L843.472 492.42C845.558 492.065 848.191 490.211 849.028 489.533C851.015 487.928 851.702 485.479 850.717 483.568C850.559 483.221 848.059 477.67 841.261 477.132L833.312 476.454C831.515 476.47 828.534 478.083 827.085 479.515L819.7 486.489C817.141 489.012 812.968 489.028 810.368 486.505L803.611 481.169L794.147 493.794Z" fill="black"/>
<path d="M336.352 1028.41L322.309 1066.3L342.214 1072.41L357.243 1037.18L336.352 1028.41Z" fill="white"/>
<path d="M342.214 1074.24C342.04 1074.24 341.858 1074.21 341.676 1074.15L321.763 1068.05C321.282 1067.9 320.885 1067.56 320.661 1067.11C320.438 1066.66 320.413 1066.14 320.587 1065.67L334.63 1027.79C334.804 1027.32 335.16 1026.94 335.615 1026.74C336.07 1026.54 336.592 1026.54 337.056 1026.73L357.946 1035.5C358.393 1035.69 358.749 1036.04 358.932 1036.5C359.114 1036.95 359.114 1037.46 358.915 1037.9L343.895 1073.14C343.597 1073.82 342.926 1074.25 342.206 1074.25L342.214 1074.24ZM324.694 1065.12L341.179 1070.18L354.833 1038.15L337.404 1030.85L324.694 1065.12Z" fill="black"/>
<path d="M345.982 1064.34C338.844 1065.79 331.541 1062.69 327.65 1056.53L325.604 1053.28C324.892 1052.16 323.327 1051.99 322.392 1052.94L304.184 1071.45C300.979 1074.44 300.392 1079.76 302.942 1083.35C306.27 1088.01 311.47 1094.45 318.161 1100.07C330.779 1110.66 339.829 1129.96 354.999 1128.46C370.176 1126.97 369.547 1126.14 372.006 1121.88C374.465 1117.62 369.273 1107.02 359.71 1094.45C353.864 1086.77 349.575 1071.7 348.399 1065.92C348.176 1064.81 347.083 1064.1 345.965 1064.33L345.982 1064.34Z" fill="white"/>
<path d="M353.351 1130.38C342.967 1130.38 335.342 1121.53 327.956 1112.96C324.462 1108.91 320.851 1104.71 316.976 1101.47C310.046 1095.66 304.705 1088.99 301.443 1084.41C298.396 1080.14 299.058 1073.72 302.925 1070.12L321.075 1051.66C321.911 1050.81 323.079 1050.39 324.263 1050.52C325.455 1050.64 326.498 1051.3 327.136 1052.31L329.181 1055.55C332.642 1061.03 339.241 1063.84 345.592 1062.54C347.695 1062.11 349.757 1063.47 350.179 1065.57C351.397 1071.52 355.669 1086.15 361.159 1093.36C368.793 1103.39 377.148 1116.64 373.579 1122.82L373.107 1123.64C370.615 1128.09 369.19 1128.91 355.164 1130.29C354.543 1130.35 353.93 1130.39 353.334 1130.39L353.351 1130.38ZM323.857 1054.15C323.799 1054.15 323.741 1054.18 323.7 1054.22L305.492 1072.73C302.859 1075.19 302.412 1079.45 304.44 1082.29C307.579 1086.68 312.712 1093.09 319.345 1098.67C323.443 1102.1 327.153 1106.41 330.738 1110.57C338.273 1119.31 345.385 1127.56 354.825 1126.64C367.973 1125.34 368.313 1124.74 369.936 1121.84L370.432 1120.96C371.865 1118.49 369.538 1110.36 358.269 1095.56C351.935 1087.23 347.629 1071.23 346.619 1066.29C346.594 1066.18 346.453 1066.1 346.346 1066.11C338.513 1067.72 330.374 1064.25 326.101 1057.49L324.056 1054.25C324.014 1054.18 323.957 1054.15 323.89 1054.14C323.882 1054.14 323.874 1054.14 323.865 1054.14L323.857 1054.15Z" fill="black"/>
<path d="M338.405 1087.81C337.544 1087.81 336.782 1087.21 336.608 1086.33C336.418 1085.34 337.064 1084.38 338.057 1084.19L352.44 1081.39C353.434 1081.19 354.394 1081.84 354.584 1082.83C354.775 1083.83 354.129 1084.79 353.135 1084.98L338.753 1087.78C338.637 1087.8 338.513 1087.81 338.397 1087.81H338.405Z" fill="black"/>
<path d="M342.007 1096.96C341.146 1096.96 340.384 1096.36 340.21 1095.49C340.012 1094.5 340.657 1093.54 341.651 1093.34L356.895 1090.34C357.888 1090.14 358.849 1090.78 359.047 1091.78C359.246 1092.77 358.6 1093.73 357.607 1093.93L342.363 1096.93C342.247 1096.96 342.123 1096.96 342.007 1096.96Z" fill="black"/>
<path d="M371.377 1122.88C371.377 1122.88 362.053 1131.73 347.745 1119.93C338.207 1112.07 304.3 1071.17 304.3 1071.17L300.052 1075.17C297.899 1077.2 297.668 1080.57 299.514 1082.89C307.86 1093.41 330.432 1120.73 345.054 1127.89C363.279 1136.81 371.377 1122.87 371.377 1122.87V1122.88Z" fill="white"/>
<path d="M356.514 1132.69C353.011 1132.69 348.938 1131.82 344.251 1129.53C329.413 1122.27 307.016 1095.29 298.081 1084.02C295.664 1080.97 295.978 1076.5 298.802 1073.83L303.049 1069.83C303.414 1069.48 303.911 1069.31 304.416 1069.33C304.921 1069.36 305.393 1069.6 305.716 1069.99C306.055 1070.4 339.614 1110.84 348.913 1118.51C361.821 1129.15 370.043 1121.62 370.118 1121.54C370.78 1120.91 371.799 1120.87 372.519 1121.43C373.231 1122 373.422 1123.01 372.966 1123.79C372.9 1123.91 367.626 1132.69 356.514 1132.69ZM304.142 1073.84L301.311 1076.51C299.862 1077.88 299.696 1080.19 300.946 1081.77C307.802 1090.4 331.293 1119.13 345.857 1126.26C353.351 1129.92 358.915 1129.48 362.782 1127.85C358.468 1128.02 352.928 1126.59 346.578 1121.34C337.95 1114.23 310.435 1081.4 304.142 1073.84Z" fill="black"/>
<path d="M444.581 1042.32L432.103 1096.79L454.376 1109.11L469.835 1049.93L444.581 1042.32Z" fill="white"/>
<path d="M454.376 1110.94C454.07 1110.94 453.763 1110.86 453.49 1110.7L431.217 1098.39C430.505 1097.99 430.14 1097.17 430.322 1096.38L442.8 1041.91C442.916 1041.41 443.223 1040.99 443.662 1040.73C444.1 1040.48 444.622 1040.41 445.111 1040.56L470.365 1048.17C471.309 1048.45 471.855 1049.44 471.607 1050.39L456.148 1109.57C456.007 1110.12 455.618 1110.57 455.096 1110.79C454.864 1110.89 454.616 1110.94 454.376 1110.94ZM434.197 1095.85L453.2 1106.37L467.616 1051.17L445.93 1044.64L434.197 1095.85Z" fill="black"/>
<path d="M428.881 1094.18C428.177 1099.45 427.051 1109.23 427.018 1117.99C426.993 1123.49 431.133 1128.1 436.565 1128.76C451.925 1130.63 486.734 1132.55 516.36 1129.64C518.389 1129.44 521.965 1127.93 522.926 1122.82C526.163 1105.69 496.529 1101.71 463.997 1089.53C462.722 1089.05 461.289 1089.34 460.312 1090.3L456.835 1093.74C453.357 1097.17 448.174 1098.18 443.678 1096.29L433.005 1091.79C431.183 1091.03 429.146 1092.21 428.881 1094.18V1094.18Z" fill="white"/>
<path d="M482.362 1132.98C463.591 1132.98 446.336 1131.81 436.333 1130.58C429.95 1129.81 425.147 1124.39 425.172 1117.98C425.213 1109.07 426.364 1099.09 427.052 1093.94C427.25 1092.42 428.128 1091.12 429.445 1090.37C430.753 1089.62 432.309 1089.53 433.7 1090.11L444.382 1094.6C448.207 1096.21 452.587 1095.36 455.543 1092.44L459.021 1089C460.486 1087.56 462.689 1087.09 464.635 1087.81C472.219 1090.65 479.506 1093 486.56 1095.28C509.438 1102.65 527.505 1108.46 524.731 1123.17C523.671 1128.81 519.656 1131.16 516.542 1131.47C505.439 1132.56 493.631 1132.98 482.379 1132.98H482.362ZM431.846 1093.4C431.597 1093.4 431.399 1093.49 431.274 1093.55C430.951 1093.74 430.744 1094.05 430.695 1094.42C430.016 1099.49 428.881 1109.29 428.848 1118C428.832 1122.55 432.243 1126.4 436.789 1126.95C452.629 1128.88 486.85 1130.71 516.178 1127.82C516.849 1127.76 520.243 1127.18 521.129 1122.49C523.307 1110.95 507.426 1105.84 485.442 1098.76C478.355 1096.48 471.019 1094.12 463.36 1091.25C462.755 1091.02 462.068 1091.16 461.612 1091.62L458.135 1095.05C454.119 1099.02 448.166 1100.16 442.974 1097.99L432.301 1093.5C432.144 1093.43 431.995 1093.41 431.862 1093.41L431.846 1093.4Z" fill="black"/>
<path d="M427.027 1116.68C427.027 1116.68 427.019 1117.56 427.01 1117.99C426.986 1123.49 431.126 1128.1 436.557 1128.76C451.917 1130.63 486.726 1132.55 516.352 1129.64C518.381 1129.44 521.958 1127.93 522.918 1122.82C523.216 1121.26 523.009 1118.45 523.009 1118.45L520.906 1118.56C490.965 1120.26 460.942 1119.76 431.068 1117.04L427.019 1116.68H427.027Z" fill="white"/>
<path d="M482.362 1132.98C463.591 1132.98 446.336 1131.81 436.333 1130.58C429.95 1129.81 425.147 1124.39 425.172 1117.98L425.189 1116.65C425.189 1116.14 425.412 1115.66 425.793 1115.31C426.174 1114.97 426.687 1114.8 427.184 1114.85L431.225 1115.22C460.909 1117.92 491.04 1118.43 520.79 1116.74L522.893 1116.63C523.92 1116.61 524.748 1117.32 524.822 1118.32C524.847 1118.63 525.038 1121.42 524.706 1123.17C523.647 1128.81 519.631 1131.16 516.517 1131.47C505.414 1132.56 493.607 1132.98 482.354 1132.98H482.362ZM428.865 1118.69C429.171 1122.93 432.467 1126.43 436.781 1126.96C452.62 1128.89 486.842 1130.72 516.17 1127.83C516.84 1127.76 520.235 1127.19 521.121 1122.49C521.229 1121.95 521.254 1121.14 521.245 1120.38L521.005 1120.4C491.073 1122.1 460.76 1121.58 430.902 1118.87L428.865 1118.69Z" fill="black"/>
<path d="M471.565 1109.79C471.101 1109.79 470.638 1109.61 470.282 1109.26C469.561 1108.55 469.545 1107.4 470.257 1106.68L481.559 1095.14C482.271 1094.42 483.43 1094.41 484.151 1095.12C484.871 1095.83 484.888 1096.99 484.176 1097.71L472.873 1109.24C472.517 1109.6 472.037 1109.79 471.565 1109.79V1109.79Z" fill="black"/>
<path d="M482.76 1110.9C482.312 1110.9 481.857 1110.73 481.501 1110.4C480.764 1109.7 480.731 1108.55 481.426 1107.81L490.46 1098.24C491.156 1097.5 492.315 1097.47 493.052 1098.16C493.789 1098.86 493.822 1100.02 493.126 1100.75L484.093 1110.32C483.728 1110.71 483.248 1110.9 482.76 1110.9V1110.9Z" fill="black"/>
<path d="M453.829 724.525C454.251 727.603 440.78 755.152 438.122 780.136C434.503 814.179 444.878 846.476 426.546 877.69C409.208 907.2 378.514 910.037 331.938 1032.36C328.842 1040.5 340.748 1047.72 340.748 1047.72L351.206 1051.48C355.255 1051.83 359.147 1049.86 361.25 1046.39C373.695 1025.92 432.599 969.395 447.47 946.769C464.932 920.196 513.975 854.112 519.043 821.045C523.812 789.873 524.996 744.885 525.12 739.83C525.12 739.557 524.93 739.342 524.665 739.301L453.829 724.525Z" fill="black"/>
<path d="M545.812 741.03C545.812 741.03 569.899 820.624 535.487 915.34C510.597 983.84 477.22 1052.96 466.986 1074.46C464.982 1078.67 460.519 1081.13 455.891 1080.58L443.885 1079.46C437.418 1078.69 435.025 1070.16 434.603 1066.11C432.558 1046.86 435.828 1021.09 442.725 990.409C446.667 972.87 456.239 954.231 459.567 937.992C464.129 915.746 467.557 896.85 468.319 887.13C472.095 838.965 462.217 817.803 463.616 783.768C465.148 746.689 475.581 728.629 475.581 728.629L545.812 741.038V741.03Z" fill="black"/>
<path d="M445.789 954.38C445.45 954.38 445.11 954.289 444.804 954.09C443.951 953.544 443.703 952.419 444.249 951.567C444.315 951.468 450.931 941.118 460.097 927.981L460.942 926.773C477.187 903.51 507.417 860.201 516.915 816.942C517.13 815.957 518.107 815.337 519.092 815.544C520.078 815.759 520.707 816.735 520.492 817.719C510.837 861.69 480.333 905.387 463.947 928.866L463.103 930.074C453.978 943.145 447.404 953.437 447.337 953.536C446.99 954.082 446.394 954.38 445.789 954.38Z" fill="white"/>
<path d="M543.527 530.55C545.15 527.043 546.21 523.295 546.425 519.44C546.872 511.349 544.835 499.32 531.612 490.385C509.637 475.527 485.31 500.751 475.755 503.622C463.608 507.27 442.204 497.765 434.164 499.08C426.737 500.296 398.361 500.569 392.458 535.944C391.804 539.849 391.621 543.812 391.63 547.766C391.63 552.78 390.371 566.207 373.43 578.153C350.784 594.119 329.057 641.068 363.395 666.756C371.609 672.902 382.762 671.785 391.729 668.931C393.352 668.41 395.074 667.781 396.854 667.004C402.021 664.762 407.693 657.846 413.903 658.938C432.103 662.139 490.055 689.216 485.327 623.778C483.994 605.387 484.308 593.151 500.595 589.329C506.871 587.857 517.884 592.589 530.072 589.66C555.964 583.447 549.414 554.625 544.372 545.078C540.654 538.029 542.103 533.611 543.527 530.534V530.55Z" fill="black"/>
<path d="M498.012 524.543C502.309 526.231 504.462 525.734 509.736 522.963C520.02 517.577 524.16 506.004 527.108 511.174C529.683 515.683 528.714 518.909 535.297 524.105C535.926 524.601 535.677 525.652 535.148 526.247L532.365 529.722C531.769 530.392 531.521 532.303 531.612 533.197C531.893 535.968 532.531 541.685 531.91 542.752C530.122 545.854 520.235 547.451 520.235 547.451L519.101 567.984C518.944 570.871 519.937 573.709 521.875 575.86L524.019 578.243C524.019 578.243 523.878 583.959 506.416 584.935C502.292 585.167 497.556 583.951 494.6 583.008C493.3 582.594 492.828 581.031 493.64 579.939C496.563 576.001 503.526 565.767 501.522 541.933C501.464 541.213 501.009 540.576 500.355 540.262C497.838 539.07 490.974 535.455 491.023 530.384C491.081 524.99 494.873 523.302 498.003 524.527L498.012 524.543Z" fill="white"/>
<path d="M505.364 586.805C501.357 586.805 497.059 585.722 494.045 584.762C492.87 584.39 491.975 583.505 491.594 582.33C491.214 581.155 491.429 579.856 492.166 578.863C494.526 575.687 501.704 566.024 499.692 542.107C499.692 542.041 499.634 541.975 499.568 541.933C495.668 540.088 489.135 536.142 489.193 530.384C489.226 527.274 490.369 524.8 492.406 523.427C494.194 522.227 496.538 522.004 498.674 522.848C502.243 524.254 503.774 524.031 508.875 521.35C513.28 519.042 516.493 515.518 519.076 512.688C521.651 509.859 523.497 507.799 525.766 508.072C526.942 508.205 527.927 508.941 528.689 510.273C529.567 511.811 530.055 513.168 530.527 514.484C531.479 517.131 532.299 519.414 536.423 522.666C537.035 523.145 537.408 523.857 537.482 524.659C537.565 525.636 537.201 526.686 536.505 527.464L533.781 530.864C533.558 531.211 533.359 532.428 533.417 533.015L533.475 533.594C534.154 540.237 534.154 542.496 533.475 543.67C531.711 546.723 525.361 548.336 521.957 548.998L520.906 568.084C520.773 570.475 521.618 572.857 523.216 574.636L525.36 577.019C525.675 577.366 525.841 577.821 525.832 578.284C525.799 579.517 524.731 585.738 506.499 586.764C506.118 586.789 505.737 586.797 505.348 586.797L505.364 586.805ZM496.041 525.991C495.47 525.991 494.923 526.148 494.459 526.463C493.449 527.141 492.886 528.548 492.861 530.417C492.82 534.388 499.187 537.697 501.141 538.624C502.392 539.22 503.236 540.427 503.352 541.793C505.48 567.091 497.68 577.589 495.114 581.039L495.155 581.271C497.622 582.057 502.342 583.322 506.316 583.116C516.973 582.52 520.898 580.063 521.916 578.648L520.508 577.085C518.265 574.595 517.08 571.236 517.263 567.885L518.397 547.352C518.447 546.492 519.084 545.78 519.929 545.648C524.292 544.936 529.5 543.24 530.312 541.842C530.552 540.94 530.014 535.695 529.832 533.966L529.774 533.379C529.674 532.386 529.84 529.78 530.983 528.498L533.665 525.147C529.12 521.433 528.085 518.521 527.074 515.716C526.636 514.492 526.222 513.342 525.501 512.084C525.418 511.936 525.344 511.828 525.286 511.762C524.541 512.118 522.959 513.855 521.775 515.154C519.142 518.041 515.54 521.987 510.572 524.593C504.958 527.538 502.251 528.184 497.324 526.248C496.885 526.074 496.447 525.991 496.024 525.991H496.041Z" fill="black"/>
<path d="M458.996 670.594C456.769 646.825 452.438 653.717 449.83 635.707C446.443 612.269 443.934 596.642 465.396 582.346C478.33 573.726 485.699 571.732 499.22 574.14C503.816 579.062 522.206 578.078 522.206 578.078C522.206 578.078 551.103 598.437 570.81 601.722C591.195 605.122 597.993 568.34 607.59 550.504C611.564 554.185 617.923 554.574 622.37 557.726C618.759 573.296 622.212 635.218 578.369 642.11C575.372 642.581 566.877 642.441 558.994 639.81C558.456 642.077 560.236 649.034 559.317 651.177L558.414 653.27C555.856 659.21 554.614 665.621 554.796 672.091C555.914 713.191 558.265 762.042 558.87 774.162C558.936 775.477 557.603 776.412 556.386 775.908L517.155 759.693C502.16 753.629 501.936 730.845 485.906 733.046C469.338 735.329 448.455 728.33 449.267 727.155C459.476 712.33 462.507 707.822 459.012 670.61L458.996 670.594Z" fill="white"/>
<path d="M557.065 777.86C556.593 777.86 556.121 777.769 555.666 777.579L516.443 761.364C509.223 758.444 505.19 751.982 501.638 746.274C497.291 739.292 493.872 733.79 486.146 734.841C470.572 736.992 449.449 731.093 447.71 728.281C447.28 727.586 447.296 726.75 447.743 726.097C457.63 711.735 460.611 707.4 457.174 670.759C455.974 657.986 454.235 654.461 452.389 650.73C450.832 647.587 449.226 644.327 448.017 635.963L447.909 635.252C444.581 612.245 442.171 595.616 464.37 580.816C477.916 571.79 485.799 569.887 499.527 572.328C499.916 572.394 500.272 572.593 500.545 572.882C503.427 575.968 515.002 576.58 522.082 576.241C522.347 576.224 522.628 576.274 522.868 576.365C523.001 576.415 523.125 576.489 523.241 576.572C523.522 576.77 552.031 596.725 571.091 599.902C584.745 602.177 592.164 583.174 598.705 566.405C601.131 560.192 603.425 554.318 605.95 549.619C606.215 549.122 606.704 548.775 607.267 548.684C607.83 548.593 608.401 548.767 608.815 549.147C610.711 550.901 613.336 551.844 616.126 552.837C618.611 553.722 621.186 554.64 623.413 556.221C624.017 556.651 624.307 557.404 624.133 558.123C623.512 560.812 623.082 565.18 622.593 570.235C620.283 593.929 615.977 638.031 578.634 643.905C575.993 644.319 568.525 644.377 560.766 642.251C560.832 643.028 560.932 643.889 561.023 644.666C561.429 648.149 561.627 650.375 560.981 651.88L560.079 653.973C557.603 659.706 556.436 665.779 556.601 672.017C557.702 712.595 559.996 760.371 560.667 774.046C560.733 775.296 560.153 776.47 559.135 777.19C558.514 777.628 557.785 777.852 557.048 777.852L557.065 777.86ZM488.026 731.044C496.463 731.044 500.67 737.794 504.743 744.338C508.163 749.823 511.699 755.498 517.826 757.98L557.065 774.204C556.345 760.553 554.051 712.744 552.95 672.132C552.768 665.357 554.034 658.763 556.717 652.542L557.62 650.449C557.934 649.729 557.595 646.834 557.388 645.105C557.115 642.755 556.874 640.72 557.197 639.38C557.313 638.883 557.636 638.453 558.092 638.205C558.539 637.957 559.077 637.907 559.557 638.073C567.39 640.687 575.554 640.695 578.063 640.298C612.607 634.871 616.574 594.193 618.95 569.896C619.405 565.238 619.778 561.424 620.308 558.587C618.702 557.652 616.847 556.99 614.901 556.295C612.616 555.476 610.264 554.64 608.202 553.292C606.149 557.461 604.187 562.483 602.133 567.753C595.079 585.821 587.08 606.288 570.503 603.525C551.832 600.414 525.775 582.777 521.668 579.931C517.486 580.088 503.41 580.286 498.359 575.844C485.939 573.726 478.976 575.496 466.415 583.869C446.137 597.378 448.174 611.442 451.544 634.73L451.652 635.45C452.778 643.235 454.185 646.097 455.684 649.117C457.597 652.981 459.567 656.985 460.826 670.428C464.27 707.135 461.43 712.645 451.776 726.709C456.313 728.636 472.095 733.087 485.641 731.226C486.469 731.11 487.264 731.052 488.026 731.052V731.044Z" fill="black"/>
<path d="M524.823 656.281C524.516 656.281 524.202 656.207 523.912 656.041C523.034 655.545 522.728 654.42 523.233 653.543C528.706 643.971 525.99 628.84 525.965 628.691C525.783 627.698 526.437 626.739 527.431 626.557C528.416 626.383 529.377 627.028 529.567 628.021C529.691 628.691 532.556 644.608 526.412 655.363C526.073 655.958 525.46 656.281 524.823 656.281Z" fill="black"/>
<path d="M617.675 536.821C615.961 534.463 613.858 532.329 611.365 530.484C607.259 527.431 595.302 519.779 592.843 528.556C592.106 531.204 593.298 534.008 594.822 536.292C600.924 545.441 610.546 553.425 620.722 557.644C624.423 559.174 622.792 549.694 622.436 547.874C621.674 543.894 620.043 540.105 617.667 536.829L617.675 536.821Z" fill="white"/>
<path d="M621.467 559.638C621.045 559.638 620.556 559.555 620.018 559.332C609.61 555.021 599.616 546.782 593.298 537.301C591.055 533.934 590.309 530.823 591.079 528.06C591.982 524.834 593.953 523.551 595.451 523.038C600.991 521.144 609.188 526.587 612.45 529.011C615.058 530.947 617.311 533.214 619.149 535.746C621.658 539.212 623.413 543.282 624.233 547.518C625.417 553.665 625.119 557.52 623.338 558.968C622.982 559.257 622.345 559.638 621.459 559.638H621.467ZM598.051 526.29C597.538 526.29 597.066 526.356 596.652 526.496C596.023 526.712 595.137 527.208 594.623 529.036C594.035 531.146 595.244 533.586 596.362 535.266C602.233 544.076 611.473 551.729 621.128 555.816C621.418 554.674 621.335 551.762 620.656 548.213C619.944 544.498 618.404 540.924 616.201 537.897C614.586 535.663 612.591 533.669 610.289 531.948C606.555 529.177 601.429 526.29 598.059 526.29H598.051Z" fill="black"/>
<path d="M458.408 591.596C447.255 600.175 442.469 623.223 441.757 641.49L444.108 687.206C443.719 697.175 450.972 705.803 460.867 707.135L581.441 722.324L584.869 690.962L490.634 671.529C487.372 670.875 485.144 667.847 485.5 664.546L489.044 631.297L458.408 591.604V591.596Z" fill="white"/>
<path d="M584.894 695.818L594.118 694.751C598.076 694.296 602.067 694.247 606.033 694.619L612.699 695.239C613.692 695.33 614.62 695.802 615.282 696.555L615.365 696.654C616.574 698.036 616.673 700.071 615.589 701.552C614.885 702.52 613.775 703.107 612.583 703.157L606.083 703.421C605.661 703.438 605.586 704.033 605.992 704.158C609.503 705.192 613.179 706.002 616.615 707.285C619.331 708.302 620.126 708.708 620.027 711.744C619.936 714.466 618.536 718.023 616.185 719.553C613.262 721.465 607.118 720.133 603.847 719.62L582.708 716.046L584.911 695.818H584.894Z" fill="white"/>
<path d="M611.631 722.383C609.263 722.383 606.762 721.961 604.675 721.605L582.385 717.849C581.384 717.675 580.713 716.732 580.887 715.739C581.052 714.738 581.996 714.085 582.998 714.242L605.288 718.006C608.037 718.47 613.154 719.33 615.166 718.023C616.955 716.856 618.106 713.878 618.18 711.677C618.224 710.459 617.485 709.565 615.961 708.997C613.759 708.17 611.366 707.533 609.056 706.912C607.855 706.59 606.654 706.267 605.47 705.919C604.427 705.613 603.765 704.604 603.905 703.529C604.038 702.453 604.924 701.642 606.008 701.601L612.508 701.336C613.146 701.311 613.734 700.997 614.106 700.476C614.678 699.69 614.628 698.59 613.99 697.862C613.552 697.365 613.063 697.117 612.533 697.067L605.868 696.447C602.034 696.091 598.151 696.141 594.334 696.579L585.118 697.647C584.124 697.779 583.205 697.043 583.089 696.042C582.973 695.041 583.694 694.131 584.696 694.015L593.911 692.948C597.985 692.476 602.125 692.426 606.207 692.807L612.873 693.427C614.346 693.568 615.688 694.255 616.665 695.363C618.544 697.498 618.677 700.451 617.071 702.643C616.4 703.562 615.489 704.248 614.454 704.637C615.398 704.927 616.334 705.233 617.253 705.58C620.2 706.681 621.997 707.574 621.848 711.818C621.741 714.887 620.234 719.098 617.178 721.1C615.68 722.076 613.709 722.399 611.639 722.399L611.631 722.383Z" fill="black"/>
<path d="M581.433 724.153C581.359 724.153 581.284 724.153 581.201 724.136L460.627 708.947C449.722 707.483 441.84 698.11 442.27 687.132L440.399 650.921C439.836 639.959 440.432 629.461 442.179 619.707C444.017 609.441 446.907 600.448 450.774 592.961C451.238 592.068 452.339 591.712 453.241 592.175C454.144 592.638 454.492 593.739 454.028 594.64C450.327 601.797 447.553 610.45 445.781 620.353C444.084 629.833 443.504 640.05 444.059 650.731L445.93 687.107C445.574 696.348 452.099 704.108 461.099 705.315L579.81 720.273L582.857 692.41L490.253 673.308C486.113 672.48 483.298 668.733 483.646 664.538L481.079 639.182C480.98 638.172 481.708 637.279 482.718 637.18C483.745 637.097 484.623 637.808 484.722 638.818L487.306 664.348C487.322 664.472 487.314 664.596 487.306 664.729C487.049 667.111 488.63 669.254 490.974 669.725L585.217 689.158C586.144 689.349 586.774 690.209 586.666 691.152L583.238 722.515C583.188 723.003 582.94 723.45 582.551 723.756C582.228 724.012 581.822 724.153 581.417 724.153H581.433Z" fill="black"/>
<path d="M1423.41 623.768C1427.32 631.71 1435.59 649.381 1439.9 667.3C1441.64 674.539 1439.77 678.626 1438.11 684.491C1435.74 692.922 1433.07 696.868 1434.23 699.259C1436.66 704.28 1464.62 703.039 1473.9 687.767C1476.86 682.886 1477.47 675.73 1472.58 650.25C1467.56 624.107 1469.43 620.029 1465.57 616.844C1453.42 606.834 1426.78 621.824 1423.4 623.768H1423.41Z" fill="white"/>
<path d="M1443.46 703.735C1442.91 703.735 1442.37 703.718 1441.85 703.701C1438.35 703.536 1433.9 702.775 1432.58 700.061C1431.51 697.861 1432.43 695.371 1433.82 691.598C1434.56 689.588 1435.48 687.089 1436.35 684.004C1436.59 683.16 1436.83 682.349 1437.07 681.555C1438.43 677.03 1439.49 673.464 1438.12 667.739C1434.25 651.648 1427.09 635.4 1421.77 624.588C1421.34 623.719 1421.66 622.677 1422.5 622.197C1427.65 619.227 1454.01 604.956 1466.75 615.446C1469.59 617.787 1469.93 620.451 1470.85 627.574C1471.45 632.232 1472.36 639.28 1474.39 649.919C1479.43 676.153 1478.75 683.334 1475.47 688.728C1468.68 699.904 1453.22 703.743 1443.47 703.743L1443.46 703.735ZM1425.81 624.521C1431.12 635.467 1437.91 651.218 1441.67 666.871C1443.28 673.555 1442.03 677.741 1440.57 682.597C1440.34 683.367 1440.11 684.161 1439.87 684.98C1438.96 688.206 1438.02 690.779 1437.26 692.847C1436.31 695.429 1435.49 697.654 1435.88 698.456C1436.08 698.878 1437.95 699.863 1442.12 700.045C1450.49 700.409 1466.06 697.141 1472.33 686.816C1474.99 682.432 1475.54 675.367 1470.78 650.598C1468.72 639.843 1467.81 632.728 1467.2 628.029C1466.31 621.138 1466.06 619.632 1464.4 618.259C1454.4 610.003 1432.21 621.047 1425.8 624.521H1425.81Z" fill="black"/>
<path d="M1439.85 698.374C1438.91 698.374 1438.11 697.654 1438.03 696.702C1437.94 695.693 1438.69 694.808 1439.69 694.717C1450.16 693.807 1457.59 690.084 1461.77 683.664C1469.7 671.47 1463.61 653.336 1463.54 653.154C1463.21 652.194 1463.72 651.16 1464.67 650.829C1465.63 650.498 1466.67 651.011 1467 651.963C1467.28 652.773 1473.73 671.975 1464.83 685.658C1460 693.071 1451.66 697.348 1440.01 698.357C1439.96 698.357 1439.9 698.357 1439.85 698.357V698.374Z" fill="black"/>
<path d="M1296.54 649.49C1296.54 649.49 1295.09 660.749 1299.83 686.627C1300.51 690.341 1296.57 693.402 1292.81 693.733C1277.45 695.09 1241.39 697.53 1211.29 696.579C1208.51 696.488 1206.47 694.362 1205.85 692.55C1200.28 676.31 1244.62 671.123 1246.42 660.12C1249.64 640.431 1296.55 649.49 1296.55 649.49H1296.54Z" fill="white"/>
<path d="M1225.81 698.622C1220.9 698.622 1216.01 698.556 1211.22 698.398C1207.69 698.291 1204.98 695.668 1204.11 693.137C1200.36 682.2 1214.72 676.053 1227.4 670.626C1235.18 667.292 1244 663.512 1244.61 659.822C1245.21 656.124 1247.19 653.079 1250.49 650.788C1263.89 641.456 1295.55 647.429 1296.89 647.694C1297.84 647.876 1298.48 648.761 1298.36 649.721C1298.34 649.828 1297.02 661.112 1301.64 686.295C1301.99 688.173 1301.51 690.026 1300.27 691.664C1298.63 693.807 1295.84 695.304 1292.98 695.553C1288.96 695.908 1257.22 698.622 1225.82 698.622H1225.81ZM1274.07 649.233C1266 649.233 1257.64 650.267 1252.58 653.791C1250.1 655.528 1248.67 657.687 1248.23 660.418C1247.3 666.093 1238.74 669.758 1228.84 673.993C1217.08 679.032 1204.93 684.235 1207.57 691.954C1207.93 692.996 1209.27 694.676 1211.34 694.742C1246.52 695.85 1288.03 692.31 1292.65 691.904C1294.46 691.747 1296.35 690.754 1297.34 689.447C1297.95 688.645 1298.19 687.801 1298.03 686.957C1294.28 666.49 1294.35 655.098 1294.58 651.003C1291.17 650.44 1282.79 649.233 1274.07 649.233Z" fill="black"/>
<path d="M1231.27 691.846C1225.64 691.846 1220.07 691.68 1214.77 691.292C1213.76 691.217 1213 690.34 1213.07 689.331C1213.14 688.322 1214.03 687.569 1215.03 687.635C1247.22 689.951 1286.74 684.26 1290.46 681.86C1291.31 681.314 1292.44 681.563 1293 682.406C1293.54 683.259 1293.3 684.392 1292.45 684.938C1288.11 687.726 1259.05 691.838 1231.27 691.838V691.846Z" fill="black"/>
<path d="M1223.26 245.664C1223.26 245.664 1227.08 516.776 1214.19 638.992C1212.08 658.913 1228.34 675.988 1248.33 674.888C1254.59 674.54 1261.85 673.167 1270.25 670.338C1289.09 663.992 1303.91 662.826 1314.44 663.438C1324.77 664.034 1333.42 655.703 1333.39 645.362C1333.25 592.754 1331.94 459.949 1322.38 404.19C1322.38 404.19 1362.86 521.549 1396.04 625.184C1399.97 637.469 1411.7 645.494 1424.58 644.84C1439.15 644.096 1459.42 640.266 1481.61 627.749C1496.69 619.244 1503.81 601.366 1498.96 584.754C1480.99 523.27 1426.02 364.017 1307.67 230.517L1223.26 245.664Z" fill="white"/>
<path d="M1246.53 676.765C1237.15 676.765 1228.16 672.935 1221.65 666.093C1214.68 658.78 1211.3 648.836 1212.36 638.801C1225.1 518.091 1221.46 248.394 1221.42 245.689C1221.41 244.795 1222.05 244.018 1222.93 243.86L1307.34 228.713C1307.97 228.597 1308.6 228.82 1309.03 229.3C1427.41 362.833 1482.52 522.004 1500.71 584.241C1505.86 601.846 1498.37 620.394 1482.51 629.345C1459.36 642.4 1438.28 645.973 1424.67 646.668C1410.94 647.38 1398.47 638.768 1394.29 625.746C1369.11 547.104 1339.42 459.668 1326.81 422.77C1333.98 485.206 1335.09 596.733 1335.22 645.37C1335.24 650.854 1332.96 656.157 1328.98 659.922C1324.99 663.694 1319.76 665.605 1314.33 665.282C1301.14 664.521 1286.5 666.813 1270.83 672.091C1262.81 674.796 1255.27 676.352 1248.42 676.732C1247.79 676.765 1247.16 676.782 1246.52 676.782L1246.53 676.765ZM1225.12 247.186C1225.4 269.498 1228.26 523.046 1216.01 639.181C1215.06 648.149 1218.09 657.034 1224.3 663.57C1230.51 670.097 1239.22 673.539 1248.23 673.059C1254.75 672.703 1261.96 671.198 1269.67 668.6C1285.78 663.165 1300.88 660.807 1314.55 661.609C1319 661.866 1323.22 660.31 1326.46 657.241C1329.72 654.164 1331.57 649.837 1331.56 645.361C1331.42 591.397 1330.07 459.907 1320.58 404.487C1320.43 403.544 1321.01 402.642 1321.93 402.402C1322.86 402.163 1323.81 402.675 1324.12 403.577C1324.53 404.752 1364.99 522.136 1397.8 624.613C1401.46 636.054 1412.43 643.624 1424.5 642.995C1437.71 642.325 1458.2 638.85 1480.72 626.143C1495.09 618.036 1501.88 601.225 1497.21 585.259C1479.11 523.377 1424.4 365.315 1306.98 232.493L1225.12 247.186Z" fill="black"/>
<path d="M1329.76 432.863C1328.97 432.863 1328.24 432.35 1328 431.556C1323.21 415.507 1310.85 383.052 1300.88 358.026C1295.52 344.591 1283.92 334.597 1269.83 331.297C1268.84 331.065 1268.23 330.08 1268.46 329.096C1268.69 328.112 1269.68 327.508 1270.66 327.731C1285.92 331.305 1298.48 342.126 1304.27 356.67C1314.28 381.761 1326.68 414.34 1331.51 430.505C1331.8 431.473 1331.24 432.491 1330.27 432.78C1330.1 432.83 1329.92 432.855 1329.75 432.855L1329.76 432.863Z" fill="black"/>
<path d="M1038.27 70.5266C1036.93 68.6321 1037.52 65.9434 1039.66 64.8266C1041.17 64.0324 1043.03 64.3964 1044.25 65.5794L1063.66 84.3672L1065.73 83.9701C1069.8 83.1924 1073.69 85.997 1074.23 90.1086C1074.23 90.1086 1073.97 102.121 1077.6 106.812C1096.26 131.035 1138.97 173.5 1145.56 173.5C1152.64 173.5 1164.43 166.898 1164.43 166.898L1217.74 177.272C1217.74 177.272 1190.38 220.663 1143.67 210.289C1104.33 201.545 1068.69 137.264 1058.41 117.202C1057.19 114.803 1055.2 112.892 1052.8 111.668C1051.8 111.155 1050.85 110.501 1049.98 109.724L1041.98 102.46C1038.95 99.7135 1037.95 95.3784 1039.49 91.5895L1041.41 86.8491C1043.31 82.1418 1042.69 76.7809 1039.77 72.6362L1038.28 70.5349L1038.27 70.5266Z" fill="white"/>
<path d="M1157.82 213.706C1153.19 213.706 1148.33 213.202 1143.26 212.077C1103.09 203.15 1066.91 137.844 1056.77 118.038C1055.74 116.028 1054.07 114.39 1051.95 113.298C1050.78 112.702 1049.7 111.958 1048.73 111.081L1040.73 103.817C1037.15 100.574 1035.96 95.3871 1037.77 90.9032L1039.69 86.1546C1041.37 82.0016 1040.83 77.3357 1038.25 73.679L1036.77 71.586C1035.82 70.2375 1035.49 68.5498 1035.88 66.9449C1036.27 65.3399 1037.33 63.9832 1038.81 63.2055C1040.98 62.0639 1043.68 62.4858 1045.53 64.2727L1064.25 82.3904L1065.39 82.1753C1067.85 81.712 1070.34 82.258 1072.37 83.7223C1074.41 85.1949 1075.71 87.379 1076.04 89.8691C1076.06 89.9601 1076.06 90.0511 1076.06 90.1421C1075.99 93.3024 1076.41 102.27 1079.05 105.695C1098.68 131.167 1140.04 171.316 1145.57 171.663C1152.09 171.663 1163.42 165.359 1163.53 165.293C1163.91 165.078 1164.35 165.004 1164.78 165.095L1218.09 175.469C1218.68 175.585 1219.18 175.982 1219.42 176.536C1219.66 177.09 1219.61 177.727 1219.29 178.24C1219.04 178.637 1196.43 213.698 1157.83 213.698L1157.82 213.706ZM1039.77 69.4764L1041.25 71.5777C1044.55 76.2602 1045.24 82.2249 1043.1 87.5361L1041.17 92.2848C1039.93 95.3458 1040.75 98.8949 1043.19 101.112L1051.2 108.376C1051.93 109.037 1052.74 109.6 1053.62 110.047C1056.43 111.486 1058.65 113.679 1060.03 116.376C1069.98 135.817 1105.45 199.932 1144.05 208.511C1182.81 217.123 1208.22 187.134 1214.6 178.538L1164.71 168.826C1162.15 170.199 1152.15 175.337 1145.54 175.337C1137.5 175.337 1093.74 130.787 1076.13 107.937C1072.36 103.031 1072.36 92.0863 1072.38 90.2248C1072.16 88.7936 1071.4 87.5444 1070.22 86.6923C1069.01 85.8154 1067.54 85.4845 1066.06 85.774L1064 86.1711C1063.41 86.2787 1062.81 86.1049 1062.38 85.683L1042.97 66.8952C1042.28 66.2334 1041.27 66.0431 1040.5 66.4485C1039.96 66.7381 1039.58 67.2179 1039.44 67.8053C1039.29 68.3844 1039.41 68.9966 1039.75 69.4764H1039.77Z" fill="black"/>
<path d="M1199.22 119.345C1208.46 106.539 1223.4 99.1014 1239.18 99.3745L1329.67 100.648C1337.67 100.764 1344.12 107.234 1344.22 115.234L1344.84 169.09L1353.78 253.896C1312.92 223.46 1270.32 249.495 1246.49 257.461C1222.66 265.428 1215.36 254.632 1215.36 254.632L1217.72 183.411C1217.72 183.411 1209.71 201.429 1188.12 215.005C1185.31 216.775 1181.6 215.584 1180.23 212.564C1173.81 198.401 1161.55 188.755 1160.65 168.172C1160.45 163.63 1162.46 159.287 1165.98 156.4C1178.8 145.901 1190.65 131.242 1199.22 119.354V119.345Z" fill="black"/>
<path d="M1319.19 310.284L1340.2 299.074C1340.2 299.074 1320.79 301.763 1322.97 295.153C1324.09 291.752 1325.77 291.926 1330.17 291.86C1333.39 291.81 1338.9 291.504 1343.86 291.198C1351.62 290.71 1358.81 286.888 1363.47 280.658C1377 262.574 1383.55 237.383 1380.89 226.918C1378.96 219.307 1371.46 208.908 1366.03 200.56C1380.08 189.45 1386.67 189.656 1400.88 179.861C1414.84 203.125 1416.44 226.206 1415.21 233.983C1409.97 266.925 1376.49 294.689 1366.12 302.582C1364.13 304.104 1362.22 305.725 1360.43 307.471C1353.26 314.42 1339.53 326.002 1329.83 323.578C1316.15 320.145 1319.19 310.275 1319.19 310.275L1319.19 310.284Z" fill="white"/>
<path d="M1332.62 325.745C1331.51 325.745 1330.42 325.621 1329.38 325.357C1324.1 324.033 1320.44 321.634 1318.52 318.217C1316.16 314.031 1317.39 309.911 1317.44 309.737C1317.58 309.274 1317.9 308.885 1318.32 308.662L1331.8 301.473C1327.79 301.423 1323.66 300.811 1321.91 298.718C1320.97 297.584 1320.72 296.112 1321.22 294.573C1322.69 290.122 1325.52 290.081 1329.44 290.031H1330.14C1332.8 289.982 1337.5 289.75 1343.74 289.361C1351.01 288.906 1357.66 285.332 1361.99 279.558C1374.97 262.226 1381.72 237.705 1379.11 227.364C1377.57 221.283 1372.09 213.027 1367.25 205.747C1366.3 204.316 1365.37 202.909 1364.49 201.561C1363.97 200.767 1364.15 199.716 1364.88 199.129C1372.77 192.891 1378.3 190.177 1384.14 187.307C1388.76 185.032 1393.55 182.69 1399.82 178.364C1400.24 178.074 1400.76 177.975 1401.25 178.082C1401.75 178.19 1402.17 178.496 1402.43 178.926C1415.89 201.346 1418.51 224.783 1417 234.28C1411.65 267.91 1377.53 296.186 1367.21 304.046C1365.26 305.535 1363.39 307.131 1361.68 308.794C1353.42 316.794 1342.07 325.745 1332.62 325.745H1332.62ZM1320.81 311.491C1320.67 312.501 1320.6 314.478 1321.74 316.472C1323.17 318.953 1326.03 320.749 1330.27 321.808C1336.71 323.421 1347.22 317.712 1359.14 306.163C1360.97 304.401 1362.94 302.705 1365.01 301.125C1375.06 293.473 1408.25 265.982 1413.4 233.693C1414.33 227.794 1413.85 206.02 1400.29 182.467C1394.58 186.256 1390.11 188.448 1385.77 190.583C1380.43 193.205 1375.37 195.687 1368.48 200.965C1369.08 201.867 1369.69 202.785 1370.31 203.712C1375.31 211.24 1380.97 219.769 1382.67 226.462C1385.49 237.606 1378.51 263.616 1364.94 281.75C1359.97 288.393 1352.33 292.497 1343.98 293.018C1337.6 293.415 1332.96 293.647 1330.21 293.688H1329.51C1325.53 293.746 1325.35 293.82 1324.72 295.723C1324.58 296.178 1324.67 296.302 1324.74 296.377C1326.08 297.982 1333.7 298.13 1339.97 297.262C1340.85 297.121 1341.69 297.667 1341.96 298.511C1342.24 299.355 1341.86 300.273 1341.09 300.687L1320.82 311.491H1320.81Z" fill="black"/>
<path d="M1330.56 100.921C1344.75 101.161 1358.08 107.63 1367.1 118.584C1378.3 132.193 1393.93 152.354 1407.06 173.64C1408.47 175.915 1408.64 178.786 1407.38 181.144C1398.28 198.202 1381.49 195.919 1368.6 203.489C1366.65 204.639 1364.15 204.126 1362.85 202.273C1351.61 186.256 1338.49 175.617 1338.49 175.617L1326.03 100.847L1330.56 100.921Z" fill="black"/>
<path d="M1281.58 95.2047C1307.83 95.2047 1329.1 73.8924 1329.1 47.6023C1329.1 21.3123 1307.83 0 1281.58 0C1255.33 0 1234.05 21.3123 1234.05 47.6023C1234.05 73.8924 1255.33 95.2047 1281.58 95.2047Z" fill="black"/>
<path d="M1329.42 93.3014C1339.2 93.3014 1347.12 85.364 1347.12 75.5726C1347.12 65.7812 1339.2 57.8438 1329.42 57.8438C1319.64 57.8438 1311.72 65.7812 1311.72 75.5726C1311.72 85.364 1319.64 93.3014 1329.42 93.3014Z" fill="black"/>
<path d="M1348.36 108.028C1355.98 108.028 1362.17 101.835 1362.17 94.1956C1362.17 86.5562 1355.98 80.3633 1348.36 80.3633C1340.73 80.3633 1334.54 86.5562 1334.54 94.1956C1334.54 101.835 1340.73 108.028 1348.36 108.028Z" fill="black"/>
<path d="M1374.34 118.311C1374.34 118.311 1386.01 113.355 1398.04 119.37C1406.98 123.837 1406.51 134.84 1412.65 142.261C1413.9 143.775 1413.19 146.058 1411.28 146.488C1405.6 147.762 1395.42 148.78 1386.37 143.063C1372.92 134.575 1369.39 122.547 1369.39 122.547L1374.34 118.303V118.311Z" fill="black"/>
<path d="M1365.06 124.342C1371.92 124.342 1377.49 118.768 1377.49 111.891C1377.49 105.015 1371.92 99.4404 1365.06 99.4404C1358.19 99.4404 1352.63 105.015 1352.63 111.891C1352.63 118.768 1358.19 124.342 1365.06 124.342Z" fill="black"/>
<path d="M1265.03 19.8553C1262.53 21.9235 1261.08 22.5026 1259.06 24.4716C1254.92 28.4674 1251.32 40.2728 1244.37 42.7133C1243.63 46.5685 1246.72 47.0152 1247.89 49.1662C1247.02 51.0607 1245.59 59.8962 1244.09 65.2984C1243.56 67.1929 1244.52 69.2032 1246.34 69.9395C1249.41 71.1804 1252.86 71.9912 1256.73 72.2724C1256.73 72.2724 1276.53 94.8327 1256.37 110.344C1256.37 110.344 1275.28 125.906 1296.69 103.23C1300.45 99.2504 1283.12 64.1981 1283.12 64.1981C1283.71 63.983 1291.45 61.013 1292.26 54.618C1292.56 52.2685 1292.04 48.5292 1289.93 47.735C1287.86 46.9573 1284.41 49.0338 1282.22 53.4598C1281.74 52.4092 1281.33 51.0524 1280.9 49.4971C1280.31 47.3627 1279.88 44.9222 1280.48 43.6895C1261.19 38.4611 1278.53 19.7146 1265.03 19.8553H1265.03Z" fill="white"/>
<path d="M1272.26 117.335C1262.18 117.335 1255.33 111.858 1255.21 111.759C1254.78 111.403 1254.53 110.874 1254.54 110.319C1254.55 109.765 1254.82 109.244 1255.25 108.896C1260.21 105.083 1263 100.483 1263.51 95.2296C1264.45 85.5917 1257.66 76.3509 1255.81 74.0344C1252.17 73.6952 1248.75 72.8928 1245.65 71.6353C1242.97 70.5515 1241.53 67.6147 1242.32 64.8101C1243.03 62.3034 1243.72 58.9695 1244.33 56.0243C1244.98 52.922 1245.43 50.8041 1245.83 49.4639C1245.62 49.2405 1245.36 49.0089 1245.08 48.769C1243.8 47.6521 1241.88 45.9644 1242.57 42.3657C1242.69 41.7287 1243.15 41.1993 1243.76 40.9842C1247.53 39.6605 1250.42 34.6471 1252.96 30.2211C1254.57 27.4331 1256.08 24.7941 1257.77 23.156C1259.02 21.9482 1260.07 21.2202 1261.17 20.4425C1261.99 19.88 1262.82 19.2926 1263.86 18.4405C1264.18 18.1757 1264.59 18.0268 1265.01 18.0186C1267.69 18.0351 1269.6 18.6225 1270.86 19.9544C1272.85 22.0392 1272.68 25.125 1272.49 28.3928C1272.15 34.0763 1271.85 39.4454 1280.96 41.919C1281.49 42.0596 1281.92 42.4319 1282.15 42.9366C1282.37 43.4329 1282.36 44.012 1282.12 44.5001C1282.1 44.5415 1281.68 45.4515 1282.65 49.0089C1282.68 49.1082 1282.71 49.2074 1282.74 49.3067C1285.14 46.4691 1288.15 45.1041 1290.57 46.0141C1293.81 47.2302 1294.44 51.9623 1294.07 54.8413C1293.36 60.4255 1288.41 63.6768 1285.59 65.0914C1292.28 78.7748 1301.88 100.384 1298.01 104.479C1288.62 114.431 1279.58 117.327 1272.25 117.327L1272.26 117.335ZM1259.4 110.212C1264.45 113.248 1278.97 119.329 1295.36 101.98C1296.68 99.242 1289.2 80.6362 1281.48 65.0087C1281.25 64.5454 1281.23 63.9994 1281.42 63.5196C1281.61 63.0397 1282 62.6592 1282.49 62.4772C1282.79 62.3696 1289.76 59.7471 1290.44 54.378C1290.73 52.103 1290.04 49.7203 1289.29 49.4391C1288.37 49.0999 1285.73 50.4649 1283.86 54.2622C1283.56 54.8909 1282.92 55.2797 1282.22 55.2797H1282.2C1281.49 55.2715 1280.86 54.8496 1280.56 54.2125C1279.98 52.9385 1279.52 51.3584 1279.13 49.9768C1278.56 47.9086 1278.31 46.254 1278.37 44.9552C1268.08 41.4061 1268.54 33.5054 1268.84 28.186C1268.98 25.7372 1269.12 23.4208 1268.22 22.4859C1267.77 22.0144 1266.91 21.7414 1265.67 21.6917C1264.76 22.4197 1263.97 22.9575 1263.28 23.4456C1262.25 24.1571 1261.37 24.7775 1260.32 25.7868C1259 27.0608 1257.61 29.4848 1256.14 32.0411C1253.49 36.6492 1250.52 41.8197 1246.09 43.9707C1246.14 44.8311 1246.64 45.2695 1247.49 46.0141C1248.17 46.6097 1248.94 47.2881 1249.48 48.2891C1249.76 48.7938 1249.78 49.3977 1249.54 49.9189C1249.17 50.7296 1248.5 53.9395 1247.91 56.7689C1247.28 59.7719 1246.57 63.1638 1245.84 65.7946C1245.56 66.8039 1246.06 67.8628 1247.02 68.2434C1250 69.4512 1253.31 70.1875 1256.86 70.4523C1257.34 70.4854 1257.79 70.7087 1258.1 71.0727C1258.53 71.5526 1268.39 82.9444 1267.15 95.5937C1266.61 101.161 1264.01 106.075 1259.4 110.22V110.212Z" fill="black"/>
<path d="M1272.63 69.9229C1272.63 69.9229 1266.03 74.0097 1257.36 72.3385L1272.63 69.9229Z" fill="white"/>
<path d="M1261.58 74.5802C1260.14 74.5802 1258.61 74.4478 1257.01 74.1417C1256.02 73.9514 1255.36 72.9918 1255.56 71.999C1255.75 71.0063 1256.7 70.3527 1257.71 70.5513C1265.59 72.0652 1271.61 68.4086 1271.67 68.3755C1272.53 67.846 1273.65 68.1107 1274.19 68.9629C1274.72 69.8232 1274.46 70.9484 1273.6 71.4861C1273.36 71.635 1268.51 74.5802 1261.6 74.5802H1261.58Z" fill="black"/>
<path d="M500.777 376.07C495.362 376.037 489.839 375.631 484.375 374.746C483.373 374.589 482.694 373.646 482.859 372.645C483.025 371.644 483.961 370.957 484.962 371.131C490.204 371.975 495.503 372.405 500.695 372.405H500.777C502.657 372.405 504.561 372.347 506.449 372.231C507.468 372.198 508.329 372.943 508.387 373.952C508.445 374.961 507.675 375.83 506.664 375.888C504.71 376.004 502.731 376.062 500.777 376.062V376.07ZM528.176 372.19C527.381 372.19 526.644 371.66 526.412 370.858C526.139 369.882 526.702 368.872 527.679 368.599C534.734 366.597 541.449 363.892 547.651 360.533C548.545 360.054 549.654 360.384 550.135 361.27C550.615 362.155 550.284 363.272 549.398 363.752C542.964 367.234 535.992 370.056 528.681 372.124C528.516 372.173 528.35 372.19 528.184 372.19H528.176ZM463.467 369.162C463.26 369.162 463.045 369.129 462.838 369.055C456.264 366.655 449.458 363.57 442.602 359.88C441.707 359.4 441.376 358.291 441.857 357.398C442.337 356.513 443.446 356.174 444.341 356.653C451.039 360.26 457.688 363.272 464.088 365.613C465.041 365.96 465.529 367.011 465.181 367.962C464.908 368.707 464.204 369.162 463.459 369.162H463.467ZM566.281 351.144C565.801 351.144 565.32 350.962 564.964 350.589C564.26 349.861 564.277 348.703 565.006 348C567.051 346.023 568.93 343.963 570.628 341.828C570.578 341.82 570.528 341.812 570.487 341.795C562.828 339.744 555.765 337.22 549.505 334.308C548.586 333.878 548.189 332.794 548.619 331.876C549.05 330.966 550.135 330.569 551.054 330.991C557.123 333.82 563.979 336.261 571.439 338.263C571.969 338.403 572.375 338.759 572.607 339.214C574.511 336.534 576.134 333.746 577.484 330.883C577.914 329.965 578.999 329.568 579.918 329.998C580.837 330.428 581.226 331.512 580.804 332.43C577.732 338.991 573.277 345.113 567.564 350.631C567.208 350.97 566.753 351.144 566.289 351.144H566.281ZM424.717 348.654C424.361 348.654 424.005 348.554 423.69 348.339C418.002 344.484 412.173 340.223 405.855 335.309C405.06 334.689 404.911 333.539 405.54 332.745C406.161 331.951 407.312 331.81 408.107 332.422C414.358 337.287 420.121 341.506 425.744 345.311C426.58 345.882 426.803 347.015 426.232 347.851C425.876 348.372 425.305 348.654 424.717 348.654ZM614.421 347.917H614.363C612.028 347.843 609.652 347.743 607.217 347.603C602.291 347.322 597.256 346.833 592.255 346.147C591.253 346.014 590.55 345.088 590.69 344.087C590.831 343.086 591.75 342.374 592.752 342.523C597.662 343.193 602.597 343.682 607.424 343.954C609.817 344.087 612.169 344.194 614.471 344.261C615.481 344.294 616.276 345.138 616.243 346.147C616.209 347.14 615.398 347.917 614.413 347.917H614.421ZM636.38 347.462C635.436 347.462 634.633 346.734 634.558 345.783C634.475 344.774 635.229 343.888 636.239 343.806C643.89 343.185 650.886 342.077 657.61 340.397C658.587 340.157 659.589 340.753 659.829 341.729C660.077 342.714 659.473 343.706 658.496 343.946C651.574 345.667 644.386 346.817 636.529 347.454C636.479 347.454 636.429 347.454 636.38 347.454V347.462ZM678.724 336.691C678.037 336.691 677.374 336.302 677.068 335.632C676.637 334.714 677.035 333.63 677.954 333.2C684.247 330.263 690.374 326.722 696.691 322.379C697.519 321.8 698.662 322.015 699.242 322.85C699.813 323.686 699.606 324.828 698.77 325.398C692.278 329.857 685.977 333.498 679.502 336.525C679.254 336.641 678.989 336.699 678.724 336.699V336.691ZM531.786 322.743C531.356 322.743 530.925 322.594 530.577 322.288C525.717 318.019 521.858 313.237 519.118 308.091C518.43 306.801 517.801 305.428 517.255 304.005C516.89 303.061 517.362 302.003 518.306 301.639C519.25 301.283 520.31 301.746 520.674 302.689C521.171 303.972 521.734 305.204 522.347 306.362C524.889 311.119 528.474 315.554 532.995 319.533C533.757 320.203 533.831 321.361 533.161 322.114C532.796 322.528 532.291 322.734 531.786 322.734V322.743ZM389.924 321.833C389.51 321.833 389.088 321.692 388.748 321.403C383.076 316.629 377.446 311.781 372.006 307.09C371.244 306.429 371.153 305.279 371.816 304.509C372.478 303.74 373.629 303.657 374.399 304.319C379.831 309.001 385.445 313.841 391.108 318.598C391.886 319.252 391.986 320.402 391.332 321.179C390.967 321.609 390.454 321.833 389.932 321.833H389.924ZM584 312.253H583.975C582.965 312.236 582.154 311.409 582.162 310.4V309.721C582.162 306.031 581.773 302.226 580.986 298.404C580.423 295.666 579.463 292.77 578.121 289.783C577.707 288.865 578.121 287.781 579.04 287.368C579.959 286.954 581.044 287.368 581.458 288.286C582.907 291.513 583.95 294.664 584.571 297.668C585.399 301.73 585.822 305.783 585.822 309.713V310.433C585.805 311.434 584.985 312.244 583.983 312.244L584 312.253ZM715.032 312.211C714.518 312.211 714.013 311.996 713.649 311.583C712.987 310.821 713.069 309.663 713.831 309.001C715.992 307.132 718.245 305.113 720.53 303.004C723.734 300.042 726.781 297.014 729.58 293.994C730.267 293.25 731.426 293.208 732.172 293.895C732.917 294.582 732.958 295.74 732.271 296.485C729.406 299.579 726.293 302.673 723.022 305.692C720.712 307.827 718.427 309.87 716.241 311.773C715.893 312.071 715.462 312.22 715.04 312.22L715.032 312.211ZM356.481 293.266C356.067 293.266 355.645 293.126 355.305 292.836C348.905 287.475 343.332 282.983 338.248 279.103C337.445 278.491 337.288 277.341 337.909 276.539C338.53 275.736 339.673 275.587 340.476 276.199C345.601 280.112 351.223 284.646 357.657 290.04C358.435 290.693 358.534 291.843 357.88 292.621C357.516 293.051 356.994 293.275 356.473 293.275L356.481 293.266ZM516.882 283.579C516.774 283.579 516.667 283.571 516.559 283.554C515.565 283.38 514.895 282.429 515.077 281.436C516.576 272.989 520.699 266.024 526.702 261.821C527.53 261.242 528.673 261.44 529.252 262.268C529.832 263.095 529.633 264.237 528.805 264.816C523.614 268.456 520.02 274.578 518.687 282.065C518.53 282.95 517.76 283.579 516.882 283.579ZM744.525 279.856C744.178 279.856 743.83 279.757 743.515 279.55C742.671 278.996 742.439 277.862 742.994 277.01C747.051 270.863 750.429 264.452 753.045 257.941C753.418 257.006 754.486 256.535 755.43 256.923C756.366 257.296 756.821 258.363 756.449 259.306C753.741 266.04 750.247 272.683 746.057 279.029C745.701 279.558 745.121 279.848 744.525 279.848V279.856ZM567.316 272.923C566.852 272.923 566.38 272.75 566.024 272.394C560.468 266.884 554.333 263.145 548.288 261.598C547.311 261.349 546.715 260.348 546.972 259.372C547.22 258.396 548.222 257.809 549.199 258.057C555.873 259.769 562.588 263.831 568.607 269.796C569.328 270.508 569.328 271.666 568.616 272.386C568.26 272.741 567.788 272.923 567.316 272.923ZM321.382 266.843C321.042 266.843 320.703 266.752 320.397 266.553C314.36 262.715 308.01 259.025 301.518 255.575C300.624 255.103 300.284 253.995 300.756 253.101C301.228 252.208 302.346 251.869 303.232 252.34C309.806 255.831 316.24 259.571 322.359 263.459C323.212 264.005 323.46 265.13 322.922 265.982C322.574 266.528 321.978 266.826 321.374 266.826L321.382 266.843ZM135.602 246.293C135.039 246.293 134.485 246.036 134.129 245.548C133.532 244.737 133.698 243.588 134.518 242.992C140.496 238.582 147.021 234.86 153.926 231.914C154.854 231.517 155.93 231.948 156.327 232.882C156.725 233.817 156.294 234.884 155.359 235.282C148.718 238.111 142.434 241.693 136.687 245.937C136.356 246.177 135.975 246.293 135.602 246.293ZM282.59 246.235C282.341 246.235 282.093 246.185 281.861 246.078C275.105 243.133 268.265 240.46 261.525 238.152C260.565 237.821 260.06 236.787 260.383 235.828C260.714 234.868 261.749 234.363 262.709 234.686C269.54 237.027 276.479 239.732 283.327 242.719C284.254 243.124 284.676 244.2 284.271 245.126C283.973 245.813 283.294 246.227 282.59 246.227V246.235ZM760.705 239.368C760.605 239.368 760.498 239.36 760.39 239.344C759.396 239.17 758.726 238.227 758.891 237.234C759.943 231.087 760.481 224.609 760.481 217.983C760.481 217.222 760.481 216.469 760.464 215.708C760.448 214.699 761.251 213.863 762.261 213.846H762.294C763.288 213.846 764.108 214.641 764.124 215.642C764.141 216.428 764.149 217.205 764.141 217.991C764.141 224.825 763.586 231.509 762.501 237.854C762.352 238.748 761.574 239.377 760.696 239.377L760.705 239.368ZM241.024 232.088C240.883 232.088 240.734 232.072 240.593 232.039C233.315 230.285 226.112 228.961 219.181 228.101C218.179 227.977 217.467 227.058 217.591 226.057C217.716 225.056 218.651 224.328 219.637 224.469C226.7 225.346 234.044 226.694 241.455 228.481C242.44 228.721 243.044 229.706 242.804 230.69C242.605 231.526 241.852 232.088 241.024 232.088ZM175.628 229.069C174.767 229.069 174.005 228.465 173.831 227.588C173.641 226.595 174.287 225.635 175.28 225.445C182.302 224.088 189.754 223.335 197.438 223.211H197.471C198.465 223.211 199.284 224.014 199.301 225.015C199.317 226.024 198.514 226.86 197.496 226.876C190.027 226.992 182.782 227.728 175.976 229.044C175.86 229.069 175.744 229.077 175.628 229.077V229.069ZM760.233 195.654C759.347 195.654 758.577 195.017 758.427 194.124C757.326 187.39 755.745 180.242 753.724 172.871C753.459 171.895 754.031 170.893 755.008 170.62C755.985 170.364 756.987 170.927 757.26 171.903C759.305 179.39 760.92 186.662 762.046 193.52C762.212 194.521 761.533 195.456 760.531 195.621C760.431 195.638 760.332 195.646 760.233 195.646V195.654Z" fill="black"/>
<path d="M166.942 508.734C158.314 508.734 151.301 501.694 151.301 493.032C151.301 484.37 158.323 477.33 166.942 477.33C175.562 477.33 182.583 484.37 182.583 493.032C182.583 501.694 175.562 508.734 166.942 508.734ZM166.942 480.995C160.335 480.995 154.961 486.397 154.961 493.032C154.961 499.667 160.335 505.069 166.942 505.069C173.55 505.069 178.924 499.667 178.924 493.032C178.924 486.397 173.55 480.995 166.942 480.995Z" fill="black"/>
<path d="M1093.47 548.635C1093.19 548.635 1092.91 548.568 1092.64 548.436L1079.98 541.967C1079.08 541.503 1078.72 540.403 1079.19 539.501C1079.65 538.6 1080.75 538.244 1081.66 538.707L1094.31 545.185C1095.21 545.648 1095.57 546.748 1095.1 547.65C1094.78 548.279 1094.13 548.643 1093.47 548.643V548.635Z" fill="black"/>
<path d="M1064 533.561C1063.72 533.561 1063.44 533.495 1063.17 533.362L1050.51 526.885C1049.61 526.421 1049.26 525.321 1049.72 524.419C1050.18 523.518 1051.28 523.162 1052.19 523.625L1064.84 530.103C1065.74 530.566 1066.1 531.666 1065.63 532.568C1065.31 533.197 1064.66 533.561 1064 533.561Z" fill="black"/>
<path d="M1076.71 529.466C1076.43 529.466 1076.15 529.4 1075.88 529.268C1074.98 528.804 1074.63 527.704 1075.09 526.802L1081.56 514.17C1082.02 513.268 1083.12 512.92 1084.02 513.375C1084.93 513.839 1085.28 514.939 1084.82 515.841L1078.35 528.473C1078.03 529.102 1077.38 529.474 1076.72 529.474L1076.71 529.466Z" fill="black"/>
<path d="M1061.64 558.893C1061.36 558.893 1061.08 558.827 1060.81 558.694C1059.91 558.231 1059.56 557.131 1060.02 556.229L1066.49 543.596C1066.95 542.695 1068.05 542.347 1068.95 542.802C1069.86 543.265 1070.21 544.366 1069.75 545.267L1063.28 557.9C1062.96 558.529 1062.31 558.901 1061.65 558.901L1061.64 558.893Z" fill="black"/>
</g>
<defs>
<clipPath id="clip0_36_40">
<rect width="1515" height="1481" fill="white"/>
</clipPath>
</defs>
</svg>
