<svg width="65" height="79" viewBox="0 0 65 79" fill="none" xmlns="http://www.w3.org/2000/svg">
<g clip-path="url(#clip0_38_358)">
<path d="M54.382 65.758L64.7092 76.6123C65.3796 77.5284 64.8081 78.5864 63.8319 78.9627L52.062 78.9257C50.9993 78.5988 47.8607 73.1978 46.832 72.1398L46.2944 71.9054L18.6924 71.9147L18.3001 72.1367C17.2714 73.1978 14.1327 78.5957 13.07 78.9226L1.41754 78.9936C-0.05601 78.7191 -0.463785 77.2292 0.577277 76.1466L10.5925 65.8259C7.20363 65.4989 4.29359 63.2133 3.41935 59.9037C2.89727 43.8581 3.33903 27.717 3.19384 11.6344C4.24108 2.60305 11.6119 1.45562 19.1743 0.650563C28.0125 -0.287122 39.3221 -0.23777 48.1171 0.962097C54.4716 1.82884 59.8993 3.06572 61.5582 10.1724C61.9351 26.696 61.9351 43.3862 61.5582 59.9098C60.6747 63.2256 57.8295 65.5637 54.3851 65.7549L54.382 65.758ZM25.5195 3.29397C21.4634 3.4482 16.4774 3.86769 12.5418 4.80846C8.60613 5.74923 6.524 8.37721 6.27069 12.2483V57.9882C6.35718 60.5391 8.11185 62.4638 10.6666 62.6828H54.3079C56.7391 62.473 58.4937 60.7118 58.7007 58.2935V11.9429C57.9871 5.65361 53.2606 4.77144 47.9595 4.04042C40.8204 3.05647 32.7421 3.02254 25.5164 3.29706L25.5195 3.29397ZM19.0754 65.7549H14.9884L5.19873 75.9152H11.7509L19.0754 65.7549ZM44.3606 68.8363C43.9189 68.2688 42.5163 65.866 41.9696 65.7611L22.8443 65.8999L20.7745 68.8363H44.3637H44.3606ZM59.7788 75.9183L50.1436 65.758H46.0566L53.3811 75.9183H59.7788Z" fill="#8C3048"/>
<path d="M10.5524 12.5196L54.0052 12.4795C54.6662 12.498 55.281 12.8064 55.4972 13.4542L55.6239 39.5151C55.6054 40.1782 55.2964 40.789 54.6477 41.0049L10.9725 41.1313C10.021 41.1406 9.3414 40.28 9.35376 39.3608V14.2531C9.3414 13.4604 9.80478 12.7972 10.5493 12.5196H10.5524ZM30.9473 15.5671H12.4461V38.0438H30.9473V15.5671ZM52.5316 15.5671H34.0303V38.0438H52.5316V15.5671Z" fill="#8C3048"/>
<path d="M14.881 45.7858C23.1106 44.8882 24.1733 57.5347 15.9159 58.0559C7.65841 58.5772 6.96333 46.6495 14.881 45.7858ZM15.0293 48.858C11.2326 49.4625 11.8844 55.3478 15.9004 54.9622C19.9256 54.5766 19.2429 48.1856 15.0293 48.858Z" fill="#8C3048"/>
<path d="M48.797 45.7858C57.0266 44.8882 58.0893 57.5347 49.8319 58.0559C41.5744 58.5772 40.8794 46.6495 48.797 45.7858ZM48.9453 48.858C45.1486 49.4625 45.8005 55.3478 49.8164 54.9622C53.8417 54.5766 53.1589 48.1856 48.9453 48.858Z" fill="#8C3048"/>
<path d="M25.9713 6.36339L38.8811 6.3418C40.7006 6.71502 40.6388 9.18878 38.739 9.41395C34.862 9.87662 30.0768 9.06849 26.101 9.40161C24.4637 8.91426 24.3525 7.01422 25.9713 6.36339Z" fill="#8C3048"/>
<path d="M25.9713 47.3126L38.8811 47.291C40.7006 47.6642 40.6388 50.138 38.739 50.3632C34.862 50.8258 30.0768 50.0177 26.101 50.3508C24.4637 49.8635 24.3525 47.9634 25.9713 47.3126Z" fill="#8C3048"/>
<path d="M25.9713 53.4728L38.8811 53.4512C40.7006 53.8244 40.6388 56.2982 38.739 56.5233C34.862 56.986 30.0768 56.1779 26.101 56.511C24.4637 56.0236 24.3525 54.1236 25.9713 53.4728Z" fill="#8C3048"/>
<path d="M19.8049 6.36034C21.921 5.8915 22.4215 9.16414 20.3734 9.40474C18.4457 9.63299 18.0286 6.75207 19.8049 6.36034Z" fill="#8C3048"/>
<path d="M44.4719 6.36034C46.588 5.8915 47.0885 9.16414 45.0403 9.40474C43.1127 9.63299 42.6956 6.75207 44.4719 6.36034Z" fill="#8C3048"/>
</g>
<defs>
<clipPath id="clip0_38_358">
<rect width="65" height="79" fill="white"/>
</clipPath>
</defs>
</svg>
