<svg width="81" height="76" viewBox="0 0 81 76" fill="none" xmlns="http://www.w3.org/2000/svg">
<g clip-path="url(#clip0_38_344)">
<path d="M31.6111 9.99545C32.8804 9.9273 34.9824 9.58659 35.3686 11.1755L35.3622 25.2654C34.8083 26.8885 33.1938 26.3526 31.9023 26.5168C20.5918 27.9602 13.6149 39.3925 18.3917 49.7532C22.8203 59.3612 35.3242 62.4555 43.9599 56.1028C45.4223 55.028 46.2644 53.2315 48.246 54.7214C50.9652 57.8125 54.8018 60.5878 57.4134 63.6913C57.9737 64.3573 58.2301 64.7413 58.0085 65.6736C57.7426 66.7949 52.5227 70.4405 51.2944 71.1653C27.3439 85.3574 -2.80159 66.386 0.208841 39.2779C1.94673 23.6331 15.4858 10.8503 31.6111 9.99545ZM32.1175 13.3499C20.1518 13.7835 9.38893 21.7159 5.28638 32.6434C0.136034 46.3709 5.90049 61.6657 18.8349 68.7989C30.0346 74.975 44.4315 73.5936 53.925 65.0852L46.8627 58.2183C46.5999 58.1502 44.5012 59.7515 44.02 60.0272C29.6073 68.3033 11.5605 56.6727 13.6434 40.5107C14.8305 31.3084 22.5988 23.8592 32.1175 23.246V13.3468V13.3499Z" fill="#8C3048"/>
<path d="M41.874 0.0869006C43.7353 -0.244517 47.7524 0.449292 49.6897 0.870533C62.0638 3.55905 72.2315 13.4644 75.0299 25.5658C75.4921 27.5605 76.1283 31.0915 75.8972 33.0676C75.777 34.0898 75.147 34.6752 74.0866 34.6968C69.8226 34.384 64.9888 35.0933 60.7944 34.6968C59.8669 34.6101 59.2496 34.2229 59.0534 33.3061C58.8571 32.3893 58.9521 31.2309 58.7748 30.1747C57.5497 22.8154 51.3041 17.5498 43.8841 16.5958C42.5292 16.4224 40.7312 16.9861 40.4843 14.9728C39.981 10.8936 40.8673 5.85109 40.4874 1.66965C40.5318 0.873631 41.0699 0.223185 41.8676 0.0807058L41.874 0.0869006ZM72.4215 31.4477C71.915 16.6299 58.9616 3.93073 43.8113 3.45373V13.3529C53.5073 13.9259 61.7188 21.9605 62.3044 31.4477H72.4215Z" fill="#8C3048"/>
<path d="M65.4255 39.6805C69.8034 39.9716 75.0171 39.1694 79.2969 39.6464C81.2469 39.8632 81.0221 41.6411 80.9556 43.1247C80.6327 50.3013 76.7265 59.677 71.2342 64.5461C70.1485 65.5094 69.3919 65.1934 68.3852 64.3943C66.2517 62.7001 61.0602 57.6607 59.3761 55.5761C58.8158 54.8792 58.36 54.269 58.8443 53.3522C59.1513 52.7699 60.4872 51.5527 61.0064 50.831C62.6841 48.4894 63.6527 45.8101 64.0358 42.9699C64.2067 41.6907 63.6433 40.1729 65.4191 39.6836L65.4255 39.6805ZM77.4799 42.8924H67.3628C67.1602 47.0243 65.3115 50.8589 62.7886 54.0832L69.9522 60.981C74.4599 56.0407 77.2583 49.5487 77.4767 42.8924H77.4799Z" fill="#8C3048"/>
</g>
<defs>
<clipPath id="clip0_38_344">
<rect width="81" height="76" fill="white"/>
</clipPath>
</defs>
</svg>
