<svg width="81" height="80" viewBox="0 0 81 80" fill="none" xmlns="http://www.w3.org/2000/svg">
<g clip-path="url(#clip0_38_348)">
<path d="M32.4983 10.6326C32.2708 10.4485 31.6989 9.34716 31.4114 8.98212C19.8476 -5.73493 -2.56899 6.61716 3.42457 23.5338C9.31387 40.1572 35.3608 35.9951 34.3529 16.6698C34.3055 15.7463 33.5409 14.2518 34.7004 13.7557C36.435 13.0163 36.6404 15.3781 36.7193 16.5138C36.8552 18.4732 36.634 20.4294 36.4002 22.3607C39.0258 21.6837 41.9767 21.6837 44.5991 22.3607C43.7524 17.403 44.3495 12.67 47.1204 8.41428C52.3431 0.405232 62.8989 -2.28109 71.4232 2.33963C81.2651 7.67796 83.9822 20.7196 76.9366 29.4462C76.2668 30.2761 75.2178 31.8018 74.0109 31.0967C72.5038 30.2137 74.5669 28.6974 75.1135 27.958C86.6836 12.3517 66.6587 -5.61325 52.4157 6.00876C39.07 16.9007 50.4663 38.1978 67.2432 33.2682C68.3333 32.9469 70.8293 31.3089 71.3537 32.9469C71.736 34.1449 70.4501 34.5755 69.5718 34.9437C65.9794 36.4444 62.1375 36.4818 58.3303 35.9171C59.0159 38.5098 59.0159 41.4239 58.3303 44.0135C65.8878 42.5814 73.5054 45.3114 77.7991 51.6638C88.8668 68.0375 69.0536 87.678 52.3494 76.7954C45.923 72.6084 43.1521 64.9768 44.6023 57.5699C41.9767 58.247 39.0258 58.247 36.4034 57.5699C37.8441 65.0954 35.0985 72.4867 28.6563 76.7954C11.614 88.1959 -8.83111 66.7895 4.06279 50.4844C8.46397 44.9214 15.715 42.7 22.6754 44.0135C21.9898 41.4208 21.9898 38.5067 22.6754 35.9171C15.1242 37.3461 7.50032 34.6161 3.20657 28.2669C-7.83903 11.9274 11.8794 -7.75358 28.6531 3.13524C30.3561 4.24284 33.6546 7.30668 34.3813 9.16308C34.8837 10.4423 33.4082 11.3752 32.4983 10.6326ZM38.7319 24.2795C37.6419 24.3793 36.555 24.6664 35.5219 25.0033C33.4493 29.5741 29.9707 33.0061 25.3452 35.0497C24.2583 38.201 24.2583 41.7297 25.3452 44.8809C28.5931 46.3754 31.4967 48.5032 33.5283 51.4454C34.0117 52.1442 35.1333 54.5623 35.4555 54.8399C35.7115 55.0615 36.2739 55.1613 36.6119 55.2549C39.4555 56.0193 42.6845 55.8477 45.4743 54.9335C47.1931 51.2925 49.6543 48.2567 53.1677 46.1757C54.621 45.3114 55.471 45.6359 55.9765 43.8076C56.7505 40.9965 56.5768 37.811 55.651 35.056C51.0224 33.0093 47.5469 29.5741 45.4743 25.0096C43.329 24.2639 40.9941 24.0767 38.7288 24.2857L38.7319 24.2795ZM16.4891 46.0852C9.08639 46.7872 3.01384 53.3673 2.48304 60.6057C1.48464 74.2807 17.8129 82.7296 28.5836 73.9188C40.7951 63.9316 32.5836 44.5564 16.4859 46.0852H16.4891ZM60.5009 46.0852C50.6211 47.0774 44.3085 57.5231 47.3984 66.724C51.689 79.5098 69.5307 81.3787 76.3363 69.6693C83.0186 58.1783 73.6949 44.7623 60.5009 46.0883V46.0852Z" fill="#8C3048"/>
<path d="M9.38069 9.78101C15.0583 10.0868 21.4215 9.24749 27.0202 9.73733C28.4482 9.86213 29.3392 10.7326 29.4656 12.1522C29.81 16.021 29.1939 20.3859 29.4593 24.3109C29.2508 25.5589 28.6789 26.4481 27.3361 26.576C21.7596 27.1095 15.3205 26.1548 9.6524 26.576C8.57186 26.5011 7.6556 25.6993 7.53238 24.6197C7.06794 20.6168 7.87993 15.7808 7.52922 11.6873C7.64612 10.7014 8.45811 10.0244 9.38385 9.78101H9.38069ZM25.3551 12.0804H11.6302C12.7677 12.9915 16.8813 17.8899 17.8955 18.1208C18.7739 18.3205 19.1878 18.1208 19.8355 17.6091C21.7343 16.1146 23.5384 13.7278 25.3551 12.0773V12.0804ZM27.0897 22.5169V13.7933L22.6853 18.2113L27.0897 22.5169ZM9.89568 22.5169L14.3095 18.2331L9.89568 13.9493V22.5169ZM25.1971 24.2329L20.7296 19.8961C19.3268 20.7509 17.4974 20.7478 16.0978 19.8961L11.6302 24.2329H25.1971Z" fill="#8C3048"/>
<path d="M68.5962 24.2487C68.8426 26.049 67.8063 27.6027 65.8316 27.3344C64.3719 27.1379 63.1682 25.0506 61.9992 24.2643C58.3468 24.0959 53.2916 25.1879 51.8256 20.7574C51.3359 19.2786 51.3832 13.8841 51.5349 12.1525C51.7434 9.74384 53.4654 7.8032 55.8792 7.40696C60.1129 7.68152 64.8016 7.04504 68.9785 7.40384C71.2122 7.59416 73.2406 9.46928 73.4681 11.6938C73.6514 13.4816 73.6988 18.5173 73.4334 20.2239C73.0953 22.3861 70.7604 24.1271 68.5962 24.2487ZM66.2139 24.854C66.2803 24.0927 65.9959 22.7855 66.6025 22.1989C67.1239 21.6966 67.9896 21.968 68.6467 21.8806C69.5883 21.7527 70.8742 20.8635 71.0701 19.9119C71.3134 18.7326 71.2596 13.3225 71.1048 12.0027C70.95 10.683 69.9421 9.85616 68.6657 9.7376C64.7163 9.37256 60.2046 10.0246 56.192 9.7376C54.8871 10.0059 54.0404 11.023 53.9108 12.3147C53.7466 13.9402 53.7244 17.7186 53.9108 19.3222C54.3721 23.3627 60.3562 21.3877 63.0702 21.9618L66.2139 24.8509V24.854Z" fill="#8C3048"/>
<path d="M69.0162 50.9026C71.5091 50.5438 73.3131 54.191 73.4774 56.2378C74.1472 64.5432 65.1048 73.3728 56.691 72.5023C54.3877 72.2652 50.6374 70.1187 51.8317 67.4292C52.1129 66.799 56.0749 62.7929 56.7605 62.328C58.8995 60.8803 60.4003 62.6213 61.5819 64.2468C63.1016 63.5823 64.4128 62.2875 65.089 60.7836C63.6577 59.6885 61.9642 58.5684 62.871 56.5279C63.1743 55.8446 66.8804 52.1318 67.6292 51.5671C67.9957 51.2894 68.5612 50.9681 69.0131 50.9026H69.0162ZM69.3132 53.2176L64.991 57.4889C65.7556 58.8118 67.5597 58.7088 67.5755 60.6339C67.5913 62.7024 63.6103 66.618 61.5377 66.7054C59.4651 66.7927 59.6451 64.7897 58.1665 64.1844L53.9233 68.5306C58.0717 72.6022 64.7888 68.6242 67.8756 65.0487C70.4443 62.0722 73.0319 56.2346 69.3164 53.2176H69.3132Z" fill="#8C3048"/>
<path d="M47.6134 34.8099C49.3985 34.6695 51.5312 34.9441 52.3589 36.7474C52.7634 37.6304 52.7665 40.4134 52.6465 41.4493C52.3779 43.8173 49.8882 44.6941 47.7556 44.485C48.0589 46.2759 45.6576 46.4974 45.3986 44.8657C44.8709 41.5553 46.4665 35.8333 44.2801 33.1937C41.5693 29.9208 35.9706 31.6088 35.601 35.8333C35.3166 39.0937 35.7969 42.7815 35.642 46.0856C36.2613 47.9919 39.8916 45.992 40.4318 47.7485C41.0037 49.6018 37.7273 49.4084 36.6531 49.2929C33.9865 49.009 32.8964 46.9966 33.2408 44.4819C31.4146 44.6285 29.1809 44.0919 28.5427 42.1887C28.2141 41.209 28.2014 37.7989 28.5869 36.8504C29.342 34.9846 31.5947 34.6477 33.383 34.8099C35.0923 27.2626 45.9009 27.2782 47.6134 34.8099ZM33.244 37.1624C32.4731 37.1936 31.1714 36.9097 30.8017 37.7895C30.6469 38.1577 30.6564 40.4727 30.7164 40.9844C30.8586 42.2012 31.9612 42.1856 32.9817 42.1232L33.244 41.9141V37.1624ZM47.7556 37.1624V41.9141L48.0178 42.1232C49.0383 42.1825 50.141 42.2012 50.2831 40.9844C50.3432 40.4727 50.3527 38.1577 50.1978 37.7895C49.8282 36.9128 48.5265 37.1936 47.7556 37.1624Z" fill="#8C3048"/>
<path d="M26.9315 60.5281C27.2474 60.2192 25.1874 56.8091 27.8035 57.0899C28.7576 57.1928 29.0704 58.8059 29.2253 59.5859C31.4053 70.6276 17.3297 77.2607 9.96812 68.6308C3.78499 61.3799 9.72168 50.1822 19.257 50.8904C20.505 50.984 24.9347 52.2071 25.317 53.4738C25.734 54.8466 24.1069 55.6016 23.1432 54.6095C23.6803 56.0509 24.1669 57.536 24.3849 59.068C24.4576 59.5765 24.2269 60.188 24.6408 60.5281H26.9283H26.9315ZM17.3108 60.5281V53.8295C15.4625 55.3957 15.0044 58.2318 14.7864 60.5281H17.3108ZM22.0437 60.5281C22.0216 58.2162 21.336 55.5174 19.6773 53.8295V60.5281H22.0437ZM9.89545 60.5281H12.4199L12.6253 58.472L13.6015 54.7655C11.5384 55.9916 10.322 58.2287 9.89545 60.5312V60.5281ZM12.4199 62.865H9.89545C10.262 65.2487 11.6111 67.4888 13.6805 68.7836C13.0486 66.8648 12.3883 64.9086 12.4199 62.865ZM17.3108 62.865H14.7864C14.9475 64.84 15.4088 67.57 16.7073 69.1487C16.8748 69.3546 16.979 69.6229 17.3108 69.5636V62.865ZM22.0437 62.865H19.6773V69.5636C21.456 67.96 21.9774 65.1582 22.0437 62.865ZM26.9315 62.865H24.644L23.3833 68.6308C25.3612 67.4732 26.704 65.1052 26.9315 62.865Z" fill="#8C3048"/>
<path d="M66.5735 14.9294C67.6572 13.8561 69.3349 15.4504 68.3396 16.5955C67.3444 17.7405 65.4234 16.0713 66.5735 14.9294Z" fill="#8C3048"/>
<path d="M57.5026 14.6021C59.035 14.4118 59.234 16.6956 57.926 16.9109C56.1978 17.1979 55.9608 14.7924 57.5026 14.6021Z" fill="#8C3048"/>
<path d="M61.6828 14.9293C63.0319 13.594 64.6844 16.1492 63.0541 16.8294C61.7871 17.3598 60.8077 15.7936 61.6828 14.9293Z" fill="#8C3048"/>
</g>
<defs>
<clipPath id="clip0_38_348">
<rect width="81" height="80" fill="white"/>
</clipPath>
</defs>
</svg>
