<svg width="126" height="118" viewBox="0 0 126 118" fill="none" xmlns="http://www.w3.org/2000/svg">
<path d="M37.2058 99.291C29.1064 100.071 19.3123 103.558 17.1076 92.6434L14.3931 70.3938L2.02887 70.329C0.101288 69.664 -0.429241 67.6218 0.337076 65.8444C5.22677 57.8932 12.6099 49.6978 15.6487 40.8433C17.2933 36.0526 17.9299 30.9235 19.6542 26.1593C28.0601 2.93854 55.6887 -2.26413 77.1073 4.71592C78.861 3.90374 82.0147 -0.0953698 83.8509 0.00173894C85.0357 0.0664781 88.7642 3.76249 90.0021 4.69827C96.4627 9.57724 103.374 12.9113 111.639 13.4616C115.14 13.6941 119.034 13.1408 122.47 13.4498C124.421 13.6264 124.781 14.365 124.952 16.2248C122.6 37.0855 132.208 65.4236 112.924 80.1429L84.4521 99.8883C83.8863 100.759 83.4854 105.694 83.4147 107.027C83.2378 110.476 84.9237 117.571 80.3553 117.986L39.9763 117.98C39.1569 118.215 37.2058 116.309 37.2058 115.785V99.291ZM121.138 17.2577C115.644 17.3371 110.436 17.4372 105.048 16.2395C96.7663 14.3974 90.0374 9.99216 83.8067 4.43637C80.594 6.63161 77.797 9.36243 74.434 11.3635C65.7304 16.5396 56.3224 17.8227 46.2689 17.2577L46.2571 57.1193C46.6816 64.2024 49.5022 70.7028 54.7456 75.5023L83.5768 95.5037L84.4551 95.2271C98.0779 83.6212 121.48 77.059 121.15 55.6597L121.138 17.2577ZM4.45161 66.5948H15.7106C16.8276 66.5948 17.8975 68.4163 18.1274 69.4374C19.7249 76.5587 19.2062 85.4927 20.9657 92.5846C22.6664 99.441 31.3818 95.7862 36.4778 95.4978C37.5093 95.439 41.0079 95.2242 41.0079 96.8073V114.178H79.6096C79.4917 108.811 79.698 103.431 80.7561 98.161L54.4862 80.1429C47.2504 74.7843 43.0386 66.3446 42.4727 57.3959C41.618 43.886 43.1182 29.5316 42.455 15.9305C42.4138 15.0948 42.7792 14.2061 43.5249 13.7882C44.9839 12.9702 53.322 13.6293 55.7713 13.4586C60.8496 13.1085 68.1267 10.925 72.4033 8.1677C72.754 7.94111 73.0753 7.80575 72.5949 7.47322C71.9848 7.05242 68.3683 6.39914 67.3898 6.24612C50.1978 3.53296 30.7805 8.87394 23.698 26.1093C21.7144 30.9382 21.0689 36.4381 19.4419 41.4201C16.4386 50.613 9.51225 58.4729 4.44866 66.5948H4.45161Z" fill="#8C3048"/>
<path d="M83.0374 11.1841C84.906 10.7662 86.9014 13.1116 88.4635 14.115C94.373 17.9081 101.128 20.7155 108.161 21.6012C110.136 21.8513 113.145 21.6306 114.787 21.9926C115.671 22.1868 116.307 22.8695 116.184 23.8112C115.509 35.1288 117.024 47.3703 116.178 58.579C115.721 64.6321 112.325 69.773 107.66 73.4308C101.579 78.2009 92.8463 84.1775 86.253 88.2619C82.9372 90.3159 83.3498 89.7038 80.2757 87.6793C74.2277 83.6949 60.5136 75.1728 56.2045 70.2527C46.7906 59.4971 52.5675 37.7889 50.9346 24.3997C51.0732 21.045 54.1443 22.1544 56.3548 21.9279C63.5582 21.1951 70.5435 19.1352 76.7713 15.451C78.0357 14.7036 82.2328 11.3636 83.0345 11.1841H83.0374ZM112.364 25.7239C103.265 25.3943 94.5734 22.4958 86.9456 17.6727C86.1852 17.1931 84.2842 15.4216 83.5709 15.4922C75.2328 21.6277 65.1793 25.3885 54.7485 25.7239C54.9637 37.0238 54.3005 48.4032 55.117 59.659C56.1132 64.073 58.5094 68.0398 62.2555 70.6323L83.6004 85.2192C84.1044 85.2663 84.6585 84.7248 85.0829 84.4659C91.0867 80.8081 100.424 74.5166 105.773 70.0879C109.325 67.1481 111.639 63.458 112.325 58.8203L112.364 25.721V25.7239Z" fill="#8C3048"/>
<path d="M91.3785 31.2034L95.2897 33.537C98.9533 33.3104 100.751 30.7561 103.242 34.3962C103.923 35.3908 107.059 40.823 107.059 41.6352C107.061 43.4685 103.333 45.8786 103.047 46.9556C102.903 47.4971 103.321 48.4858 103.327 49.2244C103.333 49.9101 102.979 50.681 103.059 51.2078C103.274 52.6497 107.347 54.8714 107.044 57.0402C106.973 57.5463 102.738 65.0031 102.34 65.3415C100.451 66.9365 96.9372 64.3086 94.9036 65.0649C94.6766 65.1502 91.5966 67.0365 91.464 67.1866C89.8871 68.9993 90.9924 73.019 87.6678 73.3221C86.2501 73.4516 79.7659 73.5222 78.7166 73.1808C76.9364 72.5982 76.8627 68.1341 75.8016 67.0394C75.6454 66.8776 72.0762 64.8707 71.8522 64.8501C69.9305 64.6706 67.1658 66.7893 65.1705 65.3886C64.6606 65.0325 61.1296 59.0442 60.7347 58.1437C59.317 54.9097 62.9688 53.7856 64.2804 51.2814L64.0505 46.6584C63.0218 45.1606 59.9713 43.1183 60.3633 41.1261C60.5077 40.3905 64.5486 33.4781 65.1292 33.022C66.9507 31.5889 69.8833 33.537 72.0437 33.4575L75.9018 31.2976C76.8332 29.7144 77.0513 25.5799 79.0084 24.9855C80.1313 24.6442 85.6694 24.7148 87.0783 24.8443C90.736 25.1827 90.1642 28.5314 91.3785 31.2093V31.2034ZM86.5861 28.6874H80.8181C80.5823 28.8375 79.6273 32.6865 79.2471 33.3957C78.5191 34.7493 77.3195 34.6257 76.1907 35.3085C75.4715 35.744 73.5528 37.3006 73.0193 37.4007C71.4012 37.7126 68.3477 36.1677 67.3279 36.6621L64.4749 41.3468C65.1587 42.8211 68.0265 44.5809 68.2004 46.0434C68.2976 46.8644 67.8997 47.5559 67.8997 48.3387C67.8997 49.4245 68.3124 51.8699 68.0795 52.5967C67.714 53.7503 64.5044 56.5017 64.4808 56.8136L67.4959 61.875L72.8896 60.8892L78.8168 64.241L80.9684 69.8173L86.3385 69.6643L88.5402 64.2704C90.4088 63.9025 92.8787 61.3954 94.3229 60.9687C95.7671 60.542 99.4248 62.2105 100.079 61.7956L102.699 57.1108C102.752 55.6718 99.2539 54.1622 99.1684 51.8581C99.136 50.9753 99.5191 50.1425 99.5191 49.2244C99.5191 48.0385 98.9709 47.0468 99.2627 45.7815C99.5545 44.5161 102.817 42.2061 102.67 41.1232C102.611 40.6906 100.221 36.665 99.8817 36.5562L94.3966 37.3948C92.6429 35.8528 88.9528 35.026 87.9389 33.0249C87.5705 32.2951 86.8219 28.8375 86.5831 28.6845L86.5861 28.6874Z" fill="#8C3048"/>
<path d="M75.5894 48.5736C77.8589 46.4342 80.9772 52.4609 82.056 52.2725L92.3688 42.9913C93.5036 42.0908 95.16 43.0766 95.3575 44.3302C95.5284 45.4072 93.5389 47.0228 92.7756 47.7732C90.4295 50.0743 86.0939 54.2559 83.5591 56.0892C82.4008 56.9279 81.885 57.2721 80.6353 56.3805C79.8808 55.842 75.8547 51.8341 75.389 51.1131C74.8762 50.3215 74.8732 49.2563 75.5924 48.5765L75.5894 48.5736Z" fill="#8C3048"/>
</svg>
