<svg width="144" height="144" viewBox="0 0 144 144" fill="none" xmlns="http://www.w3.org/2000/svg">
<path d="M123.223 40.4118C126.961 40.9467 130.096 43.4483 130.26 47.4242C133.902 47.7978 137.026 50.404 137.1 54.2159C143.644 55.3195 145.931 60.9 142.082 66.3729C145.727 68.7924 143.369 73.3768 139.931 70.2102C135.881 76.75 133.695 84.3764 129.387 90.8511L143.573 105.32C144.968 107.321 142.669 109.641 140.645 108.243L126.672 94.3771C123.733 97.0796 120.935 99.3888 117.477 101.426C116.108 102.233 114.232 102.816 112.976 103.67C111.599 104.61 109.929 107.627 108.002 105.456C106.432 103.69 108.943 101.313 110.4 100.255C112.449 98.7719 115.782 97.6937 118.223 95.9902C127.446 89.5551 129.277 81.456 133.925 72.0722C135.736 68.4132 138.148 65.0825 139.789 61.3358C139.979 59.4992 137.42 57.9484 135.881 58.854C133.724 60.1274 130.634 68.1812 128.735 70.4026C126.785 71.8657 124.575 70.2894 125.294 67.9548L132.539 55.2488C133.724 52.9792 130.629 50.7832 128.71 51.9859L121.947 63.2035C119.827 64.7769 117.664 63.2091 118.543 60.6453C120.385 56.7967 123.877 52.5944 125.496 48.7741C126.176 47.1695 126.247 46.08 124.518 45.1603C122.488 44.0822 121.95 44.8009 120.83 46.363C118.807 49.1844 117.392 52.8915 115.329 55.7496C113.764 57.241 111.281 55.6025 111.786 53.6357L118.968 40.8335C119.266 38.38 116.023 36.8264 114.359 38.779C110.853 42.8908 107.517 49.5268 104.13 54.1225C101.143 58.1748 97.906 61.2933 93.3456 63.5742C92.0304 64.2335 89.6666 65.5891 88.3344 64.7146C85.1117 61.0047 91.3898 60.2236 93.6602 58.6899L89.5844 54.5272C86.5318 56.2081 84.6412 59.8501 83.0993 62.8922C82.2689 64.5307 82.079 67.8614 79.3013 66.9955C76.6087 66.155 78.9413 62.3008 78.7486 62.0631C73.6212 65.0938 68.1169 67.7228 62.1563 65.1533C65.189 70.2498 67.8618 75.7878 65.2542 81.7192C70.3589 78.6913 75.9086 76.0227 81.8466 78.629C81.0558 76.7585 78.9017 74.4521 79.3211 72.3213C79.6131 70.8384 82.0705 70.6318 82.9775 71.7468C85.9054 77.9866 90.3411 83.27 94.1647 88.941C94.2412 89.3768 94.3064 89.8381 94.2214 90.2767C93.9833 91.5331 87.9206 96.2024 88.0566 96.9863C89.2981 98.2823 90.7238 99.4228 92.1665 100.484C96.9622 104.018 102.985 107.035 107.537 110.694C112.874 114.981 109.955 122.65 103.535 123.029C103.025 126.683 100.454 129.999 96.4945 130.042C96.2678 133.602 93.4164 136.915 89.7034 136.882C88.6037 143.416 83.0087 145.702 77.5298 141.859C75.1065 145.498 70.5148 143.144 73.6864 139.711C67.0937 135.685 59.5061 133.477 53.0098 129.184L38.5177 143.348C36.5138 144.74 34.1897 142.445 35.5898 140.424L49.4782 126.27C46.9159 123.734 44.5351 120.978 42.6984 117.854C41.7517 116.241 40.9779 113.883 39.9321 112.471C38.4185 110.425 35.5445 108.484 33.8864 106.438C30.3746 112.78 21.0297 110.357 20.7775 103.37C17.0333 102.833 13.9041 100.331 13.7398 96.358C10.0948 95.9845 6.97414 93.3754 6.90044 89.5664C0.296388 88.4429 -1.91441 82.8936 1.91764 77.4093C-1.72451 74.9955 0.625174 70.4026 4.06892 73.5721L4.21064 73.4447C5.94527 71.9364 6.85226 65.606 9.6356 66.0446C12.6088 66.5116 10.8685 69.9725 10.1656 71.5204C8.48768 75.2247 5.94527 78.5045 4.26166 82.2116C4.31834 85.1433 7.24624 86.3404 9.22178 83.7765C11.4779 80.8504 13.0538 76.4529 15.2646 73.3825C17.4102 71.9166 19.4538 73.5098 18.6177 76.0284C17.3507 79.843 12.6655 84.8292 11.3022 88.9438C10.4916 91.2983 13.9212 93.0754 15.5764 91.5275L22.1833 80.4316C24.4536 79.1752 26.2364 80.5788 25.4542 83.137C23.6118 86.9856 20.1199 91.1879 18.5015 95.0082C17.8212 96.6127 17.7504 97.7022 19.4793 98.6219C21.5087 99.7001 22.0473 98.9813 23.1668 97.4192C25.1906 94.5979 26.6049 90.8908 28.6683 88.0326C30.2244 86.5469 32.713 88.1656 32.2113 90.1465L25.029 102.949C24.5897 104.949 27.2852 106.489 28.9574 105.725C35.4963 97.4843 39.6288 86.6064 49.0247 81.1108C50.0706 80.4995 53.6277 78.595 54.631 78.6913C56.3912 78.8554 57.0941 80.8787 56.0936 82.2739L50.3398 85.0952L54.4156 89.2579C55.5097 88.4571 56.6349 87.86 57.4938 86.7592C58.979 84.8519 62.1761 78.8469 62.1761 76.5293C62.1704 70.3291 53.486 60.5434 50.0989 55.4299C49.6596 54.6686 49.5859 53.7235 50.0451 52.9254C50.6516 51.8756 56.0709 47.5233 55.9462 46.8016C51.7485 42.5738 46.2725 40.0072 41.61 36.368L40.9751 36.2604C40.0936 36.4897 34.9663 42.622 33.447 43.6548C31.891 44.7104 29.2947 45.548 27.4722 46.6743C22.6481 49.657 19.6636 53.0471 16.6421 57.7673C15.5424 59.4879 14.8848 62.6375 12.5351 62.3404C9.30681 61.93 11.4751 58.3701 12.3197 56.8222C12.7789 55.9845 14.7516 53.3726 14.5816 52.716L0.426769 38.4621C-0.967736 36.4614 1.33093 34.1409 3.35466 35.5388L17.5321 49.4051C20.0745 46.8526 22.8295 44.4614 25.9615 42.6389C27.6026 41.6824 29.8786 40.9693 31.3525 39.8798C33.4074 38.3602 35.3461 35.5049 37.3953 33.8438C31.0435 30.3376 33.4669 21.0104 40.4678 20.7585C40.9808 17.0995 43.5515 13.7914 47.5083 13.7461C47.7095 10.2937 50.6063 6.7564 54.2427 6.99127C55.351 0.414696 60.9205 -1.95388 66.473 1.92868C68.8794 -1.69919 73.4937 0.629768 70.3164 4.07653C79.5762 9.43344 89.8309 11.8614 97.1776 20.218C100.457 23.9506 101.526 27.8926 104.065 31.3139C105.587 33.3655 108.447 35.3011 110.111 37.3471C113.614 31.0139 122.962 33.4136 123.22 40.4147L123.223 40.4118ZM58.7749 50.2682L54.6084 54.3375C55.1866 54.9997 55.6684 55.9619 56.2551 56.5788C58.1768 58.6021 65.0587 62.2102 67.8788 62.0376C74.4574 61.6357 83.4196 53.0217 89.0742 49.7673C89.5107 49.6909 89.9727 49.6258 90.412 49.7107C91.764 49.9683 95.4515 55.1582 97.1351 55.8657C98.4276 55.6421 106.568 42.9248 107.682 40.9042C107.554 40.2505 101.355 34.8568 100.412 33.5608C98.9236 31.5148 97.8465 28.1869 96.1402 25.7504C89.6666 16.5081 81.6085 14.7309 72.1814 10.073C69.2337 8.61561 66.5042 6.64038 63.5678 5.19149C61.6801 4.26047 60.0844 3.34925 58.9478 5.93008C58.2392 7.54027 58.8259 8.24207 60.0957 9.21837C63.0207 11.4681 67.4338 13.05 70.5063 15.2516C71.9716 17.1986 70.3929 19.4058 68.0546 18.6842C64.7185 17.5183 57.6978 11.6209 54.6736 11.253C52.3636 10.9729 51.2015 13.35 52.0603 15.2743L63.2985 22.0263C64.8092 23.993 63.4402 26.2173 60.9573 25.4844C58.2959 24.5137 49.2656 17.8381 47.1228 17.9796C45.5157 18.0843 44.1241 20.801 45.1558 22.1706L55.8328 28.6368C57.3265 30.1989 55.6854 32.6779 53.7155 32.1713L40.8929 24.9976C38.7983 24.6977 37.6419 26.8653 38.0217 28.7245C46.1875 35.4653 57.1848 39.4214 62.7657 48.9523C63.392 50.022 65.2684 53.5282 65.1664 54.5781C65.0105 56.1713 63.0973 56.9835 61.7595 56.1317C60.9828 55.6365 59.5231 51.3124 58.7749 50.2654V50.2682ZM85.2223 93.514L89.3888 89.4447C88.8106 88.7825 88.3287 87.8204 87.742 87.2035C86.4722 85.8678 80.6193 82.5484 78.8081 82.0814C74.0209 80.8448 68.3834 84.733 64.4804 87.2714C62.7373 88.4061 56.1248 93.7432 54.923 94.0149C54.5092 94.1083 54.0018 94.1508 53.5852 94.0715C52.2303 93.814 48.5485 88.6241 46.8621 87.9166C45.5696 88.1401 37.4293 100.858 36.3154 102.878C36.443 103.532 42.6417 108.925 43.5855 110.221C45.0736 112.267 46.1506 115.595 47.8569 118.032C54.3193 127.257 62.3915 129.071 71.8158 133.709C74.7748 135.164 77.4873 137.139 80.4294 138.591C82.3171 139.522 83.9128 140.433 85.0494 137.852C85.9621 135.781 84.5959 135.036 83.054 134.006C80.1063 132.034 76.4698 130.534 73.4937 128.531C72.0283 126.584 73.6071 124.376 75.9454 125.098L89.3264 132.529C91.4154 133.118 92.9459 130.113 91.9397 128.508L80.7015 121.756C79.1908 119.789 80.5598 117.565 83.0427 118.298C85.7041 119.269 94.7344 125.944 96.8772 125.803C98.4361 125.701 99.7795 123.145 98.9718 121.77C97.9287 119.993 90.052 116.891 88.1672 115.145C86.6735 113.583 88.3146 111.104 90.2844 111.611L103.107 118.785C105.202 119.085 106.358 116.917 105.978 115.058C97.8125 108.317 86.8152 104.361 81.2343 94.8299C80.5739 93.7008 78.7684 90.3503 78.8421 89.2042C78.9442 87.5657 80.9141 86.8045 82.2405 87.6506C83.0172 88.1458 84.4768 92.4698 85.2251 93.5169L85.2223 93.514Z" fill="#8C3048"/>
</svg>
