<svg width="162" height="109" viewBox="0 0 162 109" fill="none" xmlns="http://www.w3.org/2000/svg">
<path d="M7.11371 0L154.563 0.166434C158.1 1.12162 160.836 4.28387 161.126 7.97076L160.858 102.455C159.901 105.986 156.734 108.714 153.037 109L6.56287 108.732C3.11292 107.806 0.496488 104.81 0.0145097 101.272L0 7.97076C0.315279 4.03784 3.31224 0.85388 7.11371 0ZM7.82401 5.73113C6.46504 6.11827 5.68589 7.27608 5.75112 8.68715L6.03743 101.72C6.59188 102.78 7.60293 103.32 8.80607 103.262L153.824 102.976C154.885 102.422 155.425 101.413 155.371 100.212L155.085 7.17838C154.53 6.11827 153.519 5.57917 152.316 5.63706L7.82401 5.73113Z" fill="#8C3048"/>
<path d="M82.6177 14.3418L148.076 14.5336C149.134 15.0835 149.678 16.0894 149.624 17.2978L149.337 93.1087C148.786 94.1615 147.775 94.7079 146.569 94.65L82.0958 94.3642C81.0376 93.8142 80.4941 92.8083 80.5484 91.5999V17.2978C80.4832 15.8904 81.2623 14.7289 82.6213 14.3418H82.6177ZM143.851 20.0042H86.3177V51.576H143.851V20.0042ZM143.851 57.318H86.3177V88.8899H143.851V57.318Z" fill="#8C3048"/>
<path d="M50.7201 43.6817C59.2906 45.5414 68.0097 48.5698 69.0135 58.6174C69.5281 63.7551 69.8579 71.0927 63.1392 71.6825C48.5929 72.9633 32.1875 70.6802 17.4418 71.6825C14.521 71.545 11.9625 69.3632 11.5566 66.4325C11.0239 62.6118 11.3609 56.4827 13.1656 53.031C16.6881 46.2976 23.6894 45.9503 29.8573 43.1426C19.6959 35.0235 23.3488 17.9423 35.9745 14.7945C51.5137 10.9195 62.6717 28.301 52.8691 40.9789C52.5212 41.4276 50.2707 43.2511 50.7201 43.6745V43.6817ZM38.7649 20.0987C25.8058 21.7847 27.6975 41.9233 40.816 41.1816C54.9492 40.382 53.1844 18.2245 38.7649 20.0987ZM63.3023 65.9296V58.5739C63.3023 56.7287 60.8199 53.5701 59.2363 52.5859C57.0945 51.2508 44.4109 47.0755 41.9213 46.9018C38.0002 46.6305 24.0881 50.6104 20.8954 52.8573C19.6995 53.7003 17.2752 56.8155 17.2752 58.2157V65.9296H63.3023Z" fill="#8C3048"/>
<path d="M68.2236 89.7232C69.8543 91.5033 68.7925 94.3906 66.3754 94.6475L14.213 94.6402C10.571 94.2784 10.5782 89.242 14.213 88.8838L66.9914 88.9887C67.3792 89.1949 67.9373 89.4084 68.2236 89.7232Z" fill="#8C3048"/>
<path d="M48.0855 78.2423C49.7163 80.0225 48.6545 82.9097 46.2374 83.1666C36.1194 82.2766 24.099 84.2991 14.213 83.1594C10.5565 82.7361 10.5528 77.8263 14.213 77.4029C24.0954 76.2596 36.1267 78.2858 46.2374 77.3957C46.8389 77.4572 47.6905 77.8082 48.0855 78.2423Z" fill="#8C3048"/>
<path d="M95.5622 38.7395L133.968 38.6562C137.603 39.0144 137.61 44.0509 133.968 44.4127H96.1964C92.9132 44.1341 92.4602 39.7743 95.5622 38.7395Z" fill="#8C3048"/>
<path d="M95.5622 27.2584L117.041 27.2041C120.226 27.7034 120.216 32.407 117.041 32.9027C110.841 33.8687 102.321 32.2442 95.8666 32.9027C92.8334 32.4287 92.6414 28.1159 95.5622 27.2584Z" fill="#8C3048"/>
<path d="M95.5622 76.0529L133.968 75.9697C137.603 76.3279 137.61 81.3644 133.968 81.7262H96.1964C92.9132 81.4476 92.4602 77.0877 95.5622 76.0529Z" fill="#8C3048"/>
<path d="M95.5622 64.5728L117.041 64.5186C120.226 65.0179 120.216 69.7214 117.041 70.2171C110.841 71.1832 102.321 69.5586 95.8666 70.2171C92.8334 69.7431 92.6414 65.4303 95.5622 64.5728Z" fill="#8C3048"/>
</svg>
