<svg width="337" height="247" viewBox="0 0 337 247" fill="none" xmlns="http://www.w3.org/2000/svg">
<g clip-path="url(#clip0_25_1136)">
<path d="M163.926 191.253C163.151 190.375 154.594 199.931 152.808 200.796C139.67 207.127 133.619 184.346 126.216 177.7C117.212 181.2 107.735 183.821 98.7965 187.491C90.1468 191.044 84.8178 193.626 83.8727 204.046C82.7308 216.577 84.7128 230.642 83.8465 243.343C80.6701 249.438 74.5798 247.393 73.9891 240.774C73.1885 231.9 73.0178 205.803 74.9867 197.794C75.6561 195.041 77.2049 192.656 77.9662 189.956L72.5191 188.068C64.9193 195.959 57.5821 201.228 46.1628 197.781C40.3613 196.024 37.1981 191.398 32.4728 188.094C25.4769 192.748 11.5244 194.95 10.3431 204.689C8.91236 216.577 11.5637 231.061 10.2249 243.238C8.26921 248.796 1.19451 248.062 0.511975 242.085C-0.275561 235.242 -0.275561 204.807 1.50952 199.144C4.96156 188.212 16.1577 185.932 24.7944 180.453C19.3078 178.382 5.51283 169.141 5.8016 162.81C5.88035 161.053 7.38979 158.891 7.82294 156.951C12.8369 134.51 6.01161 110.995 22.7993 92.6054C39.6263 74.1892 68.8045 75.3951 84.4896 94.5977C99.0066 112.372 92.89 133.907 97.1558 154.696C97.7727 157.698 99.9253 160.975 99.6497 164.055C99.2166 169.075 85.7628 179.103 80.5651 180.112C84.319 184.975 87.4166 181.174 91.5512 179.601C101.514 175.826 112.027 172.903 121.543 168.263C123.236 163.098 128.434 160.241 131.414 155.837L131.624 138.613C117.382 125.846 112.303 111.297 110.767 92.5923C110.478 89.027 111.187 84.9898 110.701 81.5163C110.268 78.4098 107.866 74.1761 107.131 70.6632C100.293 37.9466 113.117 2.94925 150.446 0.51123C175.188 -1.10101 201.688 1.79578 226.614 0.524337C229.226 0.524337 230.394 2.22833 231.208 4.45662C230.42 27.1197 234.45 52.9286 228.858 74.8839C228.307 77.0597 226.627 79.4977 226.312 81.5163C225.629 85.9729 226.587 91.8713 226.299 96.577C225.524 108.937 221.075 121.704 213.121 131.26C211.441 133.278 205.639 137.905 205.285 139.819L205.403 155.404C205.77 156.636 213.029 163.478 214.459 165.353C215.313 166.48 215.313 168.42 216.205 169.023C222.23 173.073 236.996 175.092 243.9 179.129C246.722 178.198 257.459 176.56 258.299 173.755C258.653 172.588 258.666 167.293 258.089 166.349C257.721 165.733 252.944 161.997 251.592 160.385C246.998 154.88 243.309 147.002 242.679 139.793C242.338 135.952 243.257 131.116 242.522 127.498C241.787 123.88 238.112 120.04 237.495 114.823C235.04 94.0865 250.095 80.3366 269.889 79.1438C282.174 78.4098 301.81 78.1346 313.912 79.1438C318.047 79.4846 320.304 80.2973 320.79 84.7277C321.591 91.9238 321.407 110.969 319.648 117.693C318.795 120.944 315.999 125.348 315.566 128.035C314.949 131.889 315.815 136.726 315.343 140.92C314.188 151.144 308.373 160.699 299.92 166.467C300.012 169.167 298.595 174.227 301.259 175.668C314.831 180.177 334.362 180.885 336.462 198.843C338.05 212.461 335.451 228.741 336.488 242.648C335.596 248.35 327.615 248.35 326.723 242.648C324.806 230.366 328.127 213.497 326.683 200.743C326.014 194.858 323.008 192.525 317.85 190.559C313.873 189.051 301.837 185.316 297.951 184.804C296.704 184.634 296.534 184.673 295.471 185.302C294.591 185.827 284.38 196.169 284.156 196.942L283.986 241.993C283.014 248.363 275.743 248.73 274.22 242.648L274.05 196.942L261.738 184.359L255.805 185.997C268.432 201.333 261.095 224.206 262.985 242.635C262.092 248.337 254.112 248.337 253.219 242.635C251.342 230.681 256.133 207.179 251.539 197.126C250.227 194.268 247.995 191.856 245.265 190.283L210.942 177.556C208.409 178.041 198.814 198.725 192.999 200.927C183.273 204.61 180.267 196.051 173.783 191.227V242.019C173.783 245.152 169.845 247.8 166.735 246.45C166.17 246.2 163.939 244.234 163.939 243.985V191.227L163.926 191.253ZM221.678 10.3682H149.16C146.81 10.3682 139.88 12.6882 137.438 13.7368C114.088 23.8297 112.067 51.7751 118.17 73.4289C120.677 82.329 120.008 83.6791 120.624 92.6054C125.205 159.847 212.294 156.439 216.428 96.5377C216.796 91.2684 215.693 84.4786 216.468 79.5371C217.295 74.294 221.678 67.7926 221.678 61.1471V10.3682ZM85.1722 130.958C85.4347 117.156 81.9433 102.253 69.6446 94.3749C52.6731 83.5087 31.3178 90.9931 23.8362 109.344C20.8042 116.763 21.0929 123.395 20.266 131.207C20.6729 132.544 23.2324 132.23 24.3612 132.885C26.4744 134.117 26.4613 140.841 27.0913 143.424C31.5672 161.512 53.2901 169.377 68.3451 158.366C72.8078 155.103 79.3313 146.832 79.0031 141.104C78.8587 138.482 73.2279 132.112 71.0752 130.316C65.93 126.043 50.7043 119.358 44.3121 121.259C42.2383 121.875 38.0381 128.35 35.9642 129.294C31.3834 131.391 27.2226 127.511 29.2571 122.596C29.6246 121.691 38.4581 112.686 39.5869 111.939C41.8445 110.432 46.5566 111.048 49.3524 111.362C63.6593 113.014 76.2992 119.686 85.1984 130.945L85.1722 130.958ZM310.933 89.0139H267.946C257.866 89.0139 248.074 98.3989 247.247 108.321C246.499 117.326 251.264 119.699 252.366 126.2C253.652 133.842 251.25 139.124 254.834 147.33C265.951 172.903 303.28 166.585 305.682 137.827C306.011 133.881 305.197 129.385 305.853 125.545C306.549 121.429 310.946 116.225 310.946 111.625V89.0139H310.933ZM195.427 146.032C181.869 152.088 167.942 154.093 153.425 150.292C149.264 149.204 145.721 146.989 141.625 146.032C141.993 148.85 140.654 153.058 142.584 155.234L168.743 172.798L194.508 155.26C196.372 152.927 195.086 148.929 195.44 146.032H195.427ZM31.8822 166.48C31.7247 166.218 30.5565 165.89 30.0577 165.392C28.0626 163.452 26.1463 161.407 24.1643 159.441L18.901 151.262L16.394 162.207C16.3415 164.841 28.417 171.854 31.0421 172.247C32.381 172.444 31.9084 172.129 32.0266 171.277C32.1447 170.425 32.2234 167.057 31.8822 166.48ZM73.3722 172.247C79.3969 171.12 84.7521 167.463 88.8211 163.046L86.1697 151.93C84.2534 154.775 82.8095 158.117 80.5782 160.765C77.1524 164.815 71.9022 165.772 73.3722 172.247ZM138.016 163.754L133.383 168.328L133.343 169.626L148.516 191.882L160.644 179.771L138.016 163.74V163.754ZM189.521 191.909L203.88 169.796C204.313 168.027 200.533 165.602 199.719 163.767L176.421 179.784C180.241 182.72 184.126 188.684 187.88 191.266C188.431 191.647 188.563 192.158 189.521 191.909ZM63.5149 171.592C56.5321 174.03 48.9323 173.65 41.8708 171.592L40.8601 182.104C43.8265 183.965 45.756 187.046 49.103 188.278C55.8233 190.742 60.6666 186.626 64.7093 181.659C63.3968 178.303 63.3705 175.157 63.5149 171.592ZM289.932 171.592C282.647 173.794 275.546 173.899 268.288 171.592C268.786 173.047 267.579 175.38 267.776 176.429C267.92 177.202 278.25 187.413 279.011 187.269C282.936 182.406 291.336 178.657 289.932 171.592Z" fill="url(#paint0_linear_25_1136)"/>
<path d="M24.6104 212.356C27.8 211.399 30.9764 213.221 31.3964 216.446C32.0002 220.968 32.0133 238.244 31.3176 242.661C30.4251 248.402 22.2478 248.586 21.4997 242.058C20.9353 237.208 20.8171 221.138 21.5522 216.524C21.7884 215.069 23.1666 212.802 24.5973 212.369L24.6104 212.356Z" fill="url(#paint1_linear_25_1136)"/>
<path d="M230 245.44C227.178 248.507 222.335 246.646 221.718 242.661C221.206 239.398 221.114 222.843 221.692 219.775C222.61 214.952 230.512 214.362 231.457 221.125C232.048 225.346 232.021 237.077 231.536 241.403C231.404 242.609 230.801 244.562 230 245.44Z" fill="url(#paint2_linear_25_1136)"/>
<path d="M107 245.479C106.331 244.758 105.622 241.835 105.517 240.734C105.084 236.383 105.005 226.028 105.582 221.781C106.593 214.257 114.403 214.781 115.361 219.775C115.873 222.462 115.86 240.643 115.361 243.343C114.705 246.856 109.35 247.996 107.013 245.492L107 245.479Z" fill="url(#paint3_linear_25_1136)"/>
<path d="M209.025 59.7053C211.847 63.205 209.76 68.4087 204.956 68.0941C202.659 67.9499 196.399 62.1695 193.261 60.7014C180.832 54.9079 160.736 54.2918 147.204 55.5895C145.406 55.7599 137.32 56.5856 136.664 57.5163C135.378 61.2782 138.252 70.9385 134.249 72.7998C125.336 76.9418 126.085 62.353 126.715 57.4114C128.145 46.2437 137.32 46.6107 146.547 45.7587C163.073 44.2383 197.659 45.6146 209.025 59.7053Z" fill="url(#paint4_linear_25_1136)"/>
<path d="M263.51 105.543C267.29 105.228 275.559 106.264 279.667 106.801C284.445 107.43 300.918 109.908 299.684 116.71C298.398 123.736 290.365 119.004 286.663 118.178C278.985 116.461 272.855 116.619 265.334 115.885C255.516 114.915 256.829 106.093 263.51 105.543Z" fill="url(#paint5_linear_25_1136)"/>
</g>
<defs>
<linearGradient id="paint0_linear_25_1136" x1="168.5" y1="0.00878906" x2="168.5" y2="247.016" gradientUnits="userSpaceOnUse">
<stop stop-color="#D89982"/>
<stop offset="1" stop-color="#8C3048"/>
</linearGradient>
<linearGradient id="paint1_linear_25_1136" x1="26.4415" y1="212.102" x2="26.4415" y2="246.962" gradientUnits="userSpaceOnUse">
<stop stop-color="#D89982"/>
<stop offset="1" stop-color="#8C3048"/>
</linearGradient>
<linearGradient id="paint2_linear_25_1136" x1="226.598" y1="216.101" x2="226.598" y2="246.97" gradientUnits="userSpaceOnUse">
<stop stop-color="#D89982"/>
<stop offset="1" stop-color="#8C3048"/>
</linearGradient>
<linearGradient id="paint3_linear_25_1136" x1="110.455" y1="216.067" x2="110.455" y2="246.839" gradientUnits="userSpaceOnUse">
<stop stop-color="#D89982"/>
<stop offset="1" stop-color="#8C3048"/>
</linearGradient>
<linearGradient id="paint4_linear_25_1136" x1="168.335" y1="45.2725" x2="168.335" y2="73.5309" gradientUnits="userSpaceOnUse">
<stop stop-color="#D89982"/>
<stop offset="1" stop-color="#8C3048"/>
</linearGradient>
<linearGradient id="paint5_linear_25_1136" x1="278.992" y1="105.484" x2="278.992" y2="120.502" gradientUnits="userSpaceOnUse">
<stop stop-color="#D89982"/>
<stop offset="1" stop-color="#8C3048"/>
</linearGradient>
<clipPath id="clip0_25_1136">
<rect width="337" height="247" fill="white"/>
</clipPath>
</defs>
</svg>
