<svg width="257" height="256" viewBox="0 0 257 256" fill="none" xmlns="http://www.w3.org/2000/svg">
<g clip-path="url(#clip0_25_1131)">
<path d="M120.58 0.169956C133.16 -0.550044 154.52 0.929956 166.17 5.77996C173.84 8.96996 171.12 18.67 164.48 18.48C161.93 18.41 156.75 16.29 153.77 15.67C107.47 6.04996 60.86 23 33.77 61.86C-18.54 136.86 32.82 239.84 123.92 243.02C198.97 245.64 255.76 178.34 240.93 104.51C240.25 101.1 237.79 94.51 237.71 91.71C237.53 85.4 246.74 82.7 249.95 88.98C254.72 98.3 256.65 123.15 256.16 133.76C250.91 248.42 108.47 298.52 31.91 212.52C-38.63 133.28 15.2 6.22996 120.58 0.169956Z" fill="url(#paint0_linear_25_1131)"/>
<path d="M120.09 38.6802C123.84 38.3902 134.07 37.9002 137.04 39.4302C141.42 41.6902 142.22 48.1902 137.65 50.7402C135.03 52.2002 128.5 50.8702 124.95 51.0402C57 54.1802 26.66 139.47 77.69 184.79C125.61 227.35 202.24 195.15 205.19 131.28C205.36 127.55 203.91 121.04 205.69 118.28C209.3 112.69 216.95 115.16 217.69 121.78C221.36 154.47 201.02 189.27 173.02 205.12C106.41 242.81 27.44 185.98 40.83 110.93C47.61 72.9202 81.42 41.7002 120.08 38.6802H120.09Z" fill="url(#paint1_linear_25_1131)"/>
<path d="M238.94 38.5299C243.39 39.4199 244.68 46.4799 241.4 49.4899C228.72 60.1599 216.75 77.1299 203.93 87.0199C197.19 92.2198 183.95 88.1099 175.7 89.7899L133.43 132.02C128.13 137.11 119.76 131.71 122.81 124.9C136.57 109.44 152.03 95.4299 166.43 80.5199C168.12 72.2699 164 59.0299 169.2 52.2899C179.09 39.4699 196.06 27.4999 206.73 14.8199C209.08 12.5499 213.5 12.1999 215.95 14.5099C216.3 14.8399 217.69 17.0799 217.69 17.2699V37.7699L218.44 38.5199H238.94V38.5299ZM221.19 51.0299H209.94C208.75 51.0299 205.19 47.4699 205.19 46.2799V35.0299L179.69 60.2799V76.5299H195.94L221.19 51.0299Z" fill="url(#paint2_linear_25_1131)"/>
<path d="M124.58 76.6805C129.23 76.3505 134.84 76.8505 135.01 82.8605C135.22 90.1305 127.83 88.9405 123.49 89.5905C96.1901 93.7005 81.5601 123.54 95.9701 147.49C114.46 178.22 161.24 168.4 166.62 132.72C167.28 128.35 166.01 121.4 173.01 121.2C181.01 120.97 179.85 130.39 179.04 135.64C172.49 178.37 117.52 193.74 89.6901 160.76C62.9601 129.08 83.2801 79.6405 124.57 76.6705L124.58 76.6805Z" fill="url(#paint3_linear_25_1131)"/>
</g>
<defs>
<linearGradient id="paint0_linear_25_1131" x1="128.113" y1="-0.00195313" x2="128.113" y2="255.872" gradientUnits="userSpaceOnUse">
<stop stop-color="#D89982"/>
<stop offset="1" stop-color="#8C3048"/>
</linearGradient>
<linearGradient id="paint1_linear_25_1131" x1="128.725" y1="38.3691" x2="128.725" y2="217.084" gradientUnits="userSpaceOnUse">
<stop stop-color="#D89982"/>
<stop offset="1" stop-color="#8C3048"/>
</linearGradient>
<linearGradient id="paint2_linear_25_1131" x1="182.698" y1="12.9385" x2="182.698" y2="134.028" gradientUnits="userSpaceOnUse">
<stop stop-color="#D89982"/>
<stop offset="1" stop-color="#8C3048"/>
</linearGradient>
<linearGradient id="paint3_linear_25_1131" x1="128.617" y1="76.6035" x2="128.617" y2="178.574" gradientUnits="userSpaceOnUse">
<stop stop-color="#D89982"/>
<stop offset="1" stop-color="#8C3048"/>
</linearGradient>
<clipPath id="clip0_25_1131">
<rect width="256.25" height="255.88" fill="white"/>
</clipPath>
</defs>
</svg>
